<?xml version="1.0" encoding="UTF-8" standalone="no"?>
<svg
   xmlns:dc="http://purl.org/dc/elements/1.1/"
   xmlns:cc="http://creativecommons.org/ns#"
   xmlns:rdf="http://www.w3.org/1999/02/22-rdf-syntax-ns#"
   xmlns:svg="http://www.w3.org/2000/svg"
   xmlns="http://www.w3.org/2000/svg"
   xmlns:sodipodi="http://sodipodi.sourceforge.net/DTD/sodipodi-0.dtd"
   xmlns:inkscape="http://www.inkscape.org/namespaces/inkscape"
   width="48"
   viewBox="0 0 48 48"
   height="48"
   id="svg2"
   version="1.1"
   inkscape:version="0.48.4 r9939"
   sodipodi:docname="application-x-cell.svg">
  <metadata
     id="metadata24">
    <rdf:RDF>
      <cc:Work
         rdf:about="">
        <dc:format>image/svg+xml</dc:format>
        <dc:type
           rdf:resource="http://purl.org/dc/dcmitype/StillImage" />
      </cc:Work>
    </rdf:RDF>
  </metadata>
  <defs
     id="defs22" />
  <sodipodi:namedview
     pagecolor="#ffffff"
     bordercolor="#666666"
     borderopacity="1"
     objecttolerance="10"
     gridtolerance="10"
     guidetolerance="10"
     inkscape:pageopacity="0"
     inkscape:pageshadow="2"
     inkscape:window-width="1280"
     inkscape:window-height="843"
     id="namedview20"
     showgrid="false"
     inkscape:zoom="9.8333333"
     inkscape:cx="12.849342"
     inkscape:cy="26.979693"
     inkscape:window-x="0"
     inkscape:window-y="25"
     inkscape:window-maximized="1"
     inkscape:current-layer="svg2"
     inkscape:snap-global="true"
     inkscape:snap-grids="false" />
  <path
     sodipodi:type="star"
     style="fill:#008080;fill-rule:evenodd;stroke:none"
     id="path3845"
     sodipodi:sides="6"
     sodipodi:cx="22.474577"
     sodipodi:cy="24.40678"
     sodipodi:r1="19.974962"
     sodipodi:r2="17.298824"
     sodipodi:arg1="1.0471976"
     sodipodi:arg2="1.5707963"
     inkscape:flatsided="true"
     inkscape:rounded="0"
     inkscape:randomized="0"
     d="m 32.462057,41.705605 -19.974962,-10e-7 -9.9874803,-17.298825 9.9874823,-17.298824 19.974962,1e-6 9.98748,17.298825 z"
     transform="matrix(1.1647612,0,0,1.1647612,-2.5474321,-4.837556)" />
  <path
     sodipodi:type="star"
     style="fill:#72ffe2;fill-opacity:1;fill-rule:evenodd;stroke:none"
     id="path3845-7"
     sodipodi:sides="6"
     sodipodi:cx="22.474577"
     sodipodi:cy="24.40678"
     sodipodi:r1="19.974962"
     sodipodi:r2="17.298824"
     sodipodi:arg1="1.0471976"
     sodipodi:arg2="1.5707963"
     inkscape:flatsided="true"
     inkscape:rounded="0"
     inkscape:randomized="0"
     d="m 32.462057,41.705605 -19.974962,-10e-7 -9.9874803,-17.298825 9.9874823,-17.298824 19.974962,1e-6 9.98748,17.298825 z"
     transform="matrix(0.97500263,0,0,1.0209672,1.6778129,-1.328027)" />
  <path
     style="fill:#000000;fill-opacity:0.43203885;stroke:none"
     d="m 8.8263129,32.122859 29.6082141,0 -5.169203,9.239121 -19.387423,0 z"
     id="path3865"
     inkscape:connector-curvature="0"
     sodipodi:nodetypes="ccccc" />
  <text
     xml:space="preserve"
     style="font-size:46.59044266px;font-style:normal;font-weight:normal;line-height:125%;letter-spacing:0px;word-spacing:0px;fill:#000000;fill-opacity:1;stroke:none;font-family:Sans"
     x="14.304837"
     y="39.209194"
     id="text3867"
     sodipodi:linespacing="125%"><tspan
       sodipodi:role="line"
       id="tspan3869"
       x="14.304837"
       y="39.209194"
       style="font-size:6.98856211px;font-style:normal;font-variant:normal;font-weight:bold;font-stretch:normal;fill:#ffffff;fill-opacity:1;font-family:Sans;-inkscape-font-specification:Sans Bold">CELL</tspan></text>
  <path
     inkscape:connector-curvature="0"
     id="path2986"
     d="m 22.43013,29.22259 c -0.17798,-0.0795 -0.367269,-0.282713 -0.451741,-0.485094 -0.04359,-0.104303 -0.08694,-0.505248 -0.124166,-1.145982 -0.03147,-0.542043 -0.07284,-1.028764 -0.09216,-1.081593 -0.0254,-0.07002 -0.149793,-0.136191 -0.459778,-0.244431 -0.233694,-0.0817 -0.585641,-0.229185 -0.782063,-0.327959 -0.196439,-0.09876 -0.399978,-0.179575 -0.452268,-0.179575 -0.05857,0 -0.379565,0.260947 -0.837581,0.681107 -0.408364,0.37461 -0.808481,0.714967 -0.889189,0.756342 -0.166092,0.08517 -0.539749,0.09904 -0.732697,0.02738 -0.15345,-0.0573 -1.776504,-1.656604 -1.880569,-1.853214 -0.10322,-0.19501 -0.09221,-0.559796 0.02337,-0.780787 0.05269,-0.100599 0.396017,-0.508296 0.762894,-0.905997 0.394926,-0.428106 0.667047,-0.760446 0.667047,-0.81466 0,-0.05018 -0.08072,-0.252297 -0.179573,-0.448736 -0.09876,-0.196468 -0.246022,-0.547484 -0.32724,-0.780071 -0.08123,-0.232589 -0.180896,-0.440106 -0.221514,-0.461159 -0.04062,-0.02128 -0.517341,-0.06264 -1.059383,-0.09255 -0.630321,-0.03492 -1.054608,-0.07917 -1.177367,-0.123129 -0.233901,-0.08386 -0.503418,-0.370589 -0.541482,-0.576315 -0.01531,-0.08348 -0.02163,-0.701627 -0.01401,-1.373748 l 0.01399,-1.222034 0.140462,-0.176057 c 0.248214,-0.311127 0.364903,-0.342379 1.550512,-0.415303 0.671043,-0.04157 1.078984,-0.08493 1.11287,-0.119226 0.02951,-0.0295 0.129971,-0.260354 0.223452,-0.512471 0.09348,-0.252116 0.239597,-0.597104 0.324682,-0.766654 0.08506,-0.169552 0.154708,-0.345538 0.154708,-0.391082 0,-0.04565 -0.280684,-0.390689 -0.62373,-0.766979 -0.343046,-0.376299 -0.671194,-0.746943 -0.729204,-0.823663 -0.163133,-0.215774 -0.218303,-0.482961 -0.153757,-0.744728 0.04875,-0.197641 0.138012,-0.304788 0.883593,-1.060486 0.456165,-0.46235 0.905907,-0.880058 0.999447,-0.92824 0.217065,-0.111823 0.562213,-0.113372 0.777733,-0.0047 0.0907,0.04611 0.488901,0.381475 0.884775,0.744904 0.395868,0.363418 0.746581,0.675999 0.779365,0.694598 0.03458,0.0194 0.247801,-0.05553 0.507268,-0.178204 0.246216,-0.116633 0.614614,-0.268318 0.818665,-0.337093 0.276676,-0.09323 0.384023,-0.152836 0.422226,-0.234345 0.02803,-0.05995 0.07629,-0.552805 0.107368,-1.094857 0.05963,-1.0424691 0.09505,-1.2072541 0.310025,-1.4316791 0.239115,-0.249617 0.376623,-0.270096 1.713113,-0.255104 l 1.217314,0.0136 0.190434,0.126103 c 0.32765,0.216991 0.367309,0.351879 0.444475,1.5117531 0.03749,0.561466 0.07818,1.064537 0.0905,1.117992 0.01726,0.07525 0.117872,0.130428 0.444059,0.244328 0.231778,0.08088 0.602931,0.238321 0.824811,0.349758 0.22187,0.111434 0.421187,0.202601 0.442915,0.202601 0.02144,0 0.377967,-0.310657 0.791648,-0.690371 0.413676,-0.379682 0.828661,-0.730373 0.922203,-0.77926 0.22111,-0.115584 0.550222,-0.114535 0.792042,0.0036 0.114808,0.05572 0.504865,0.410557 0.994746,0.905313 0.840899,0.849267 0.907175,0.94644 0.907825,1.331048 5.34e-4,0.272041 -0.12064,0.450491 -0.843578,1.243053 -0.393084,0.430943 -0.714694,0.801801 -0.714694,0.824136 0,0.02234 0.102598,0.254465 0.227996,0.515854 0.125397,0.261382 0.274947,0.627452 0.332331,0.813473 0.07139,0.231107 0.133375,0.350571 0.196017,0.377175 0.05027,0.0213 0.557233,0.06801 1.126259,0.103554 1.129223,0.07031 1.311117,0.116989 1.500449,0.383277 0.178988,0.25174 0.199797,0.440408 0.184298,1.670344 l -0.01511,1.176529 -0.138153,0.196442 c -0.246692,0.350776 -0.308991,0.368748 -1.561756,0.450493 -0.612122,0.03966 -1.123695,0.08339 -1.136819,0.09647 -0.01321,0.01319 -0.08909,0.208773 -0.168875,0.434773 -0.07991,0.225996 -0.236592,0.593275 -0.348523,0.816171 -0.111933,0.222896 -0.197206,0.432764 -0.189499,0.466366 0.01,0.03349 0.313115,0.387188 0.678684,0.785736 0.365569,0.398551 0.711077,0.816163 0.7678,0.928031 0.120498,0.23762 0.131673,0.489237 0.03219,0.727071 -0.08775,0.209885 -1.576243,1.722927 -1.818192,1.848111 -0.202299,0.104658 -0.570811,0.115917 -0.782564,0.02358 -0.0811,-0.03547 -0.48785,-0.375502 -0.903835,-0.756116 -0.415987,-0.380613 -0.789435,-0.692127 -0.829868,-0.69224 -0.04035,-1.02e-4 -0.274774,0.09386 -0.520729,0.208769 -0.245967,0.114943 -0.610426,0.262757 -0.80991,0.328482 -0.275731,0.0908 -0.36805,0.142411 -0.384967,0.21503 -0.01227,0.05244 -0.05283,0.554898 -0.09023,1.116341 -0.08216,1.234875 -0.129351,1.368741 -0.559356,1.586491 -0.124693,0.06324 -0.331034,0.07404 -1.375175,0.07227 -0.924109,-0.002 -1.262543,-0.01719 -1.365991,-0.06329 z m 1.810625,-5.482944 c 1.108183,-0.116141 2.034061,-0.558112 2.822322,-1.347234 0.600794,-0.601451 0.988457,-1.276306 1.22187,-2.127103 0.146331,-0.533373 0.145475,-1.711139 -0.0027,-2.251013 -0.446459,-1.638384 -1.619298,-2.844675 -3.240347,-3.332768 -0.377714,-0.113725 -0.480279,-0.124509 -1.214733,-0.127717 -0.703472,-0.0049 -0.850129,0.01 -1.191819,0.102862 -1.706058,0.465747 -3.010879,1.836597 -3.367421,3.537834 -0.320338,1.528468 0.14805,3.088562 1.263946,4.209995 0.584276,0.587182 1.342385,1.01801 2.163702,1.229636 0.234203,0.06009 0.566557,0.106862 1.039917,0.145531 0.03758,0.0046 0.264721,-0.01518 0.504228,-0.03974 z M 23.10403,21.817867 c -1.168832,-0.316998 -1.986852,-1.311746 -2.059285,-2.504194 -0.0506,-0.833753 0.217681,-1.539167 0.809735,-2.128894 1.078262,-1.073987 2.799983,-1.084057 3.864581,-0.02274 0.876858,0.874276 1.087241,2.117709 0.542999,3.209164 -0.463543,0.92964 -1.317524,1.47824 -2.364932,1.519283 -0.356574,0.01381 -0.532945,-0.0033 -0.793098,-0.07265 z m 1.307659,-1.155915 c 0.322851,-0.120785 0.707917,-0.478708 0.869865,-0.80852 0.11428,-0.232739 0.128078,-0.310208 0.128087,-0.71922 7e-6,-0.43511 -0.01,-0.47311 -0.157081,-0.748143 -0.300999,-0.555161 -0.747619,-0.836476 -1.378501,-0.868289 -0.506818,-0.02542 -0.810144,0.08192 -1.176011,0.416163 -0.463865,0.423946 -0.648442,1.013326 -0.499461,1.594864 0.128961,0.50335 0.402159,0.845134 0.861705,1.078008 0.428722,0.217242 0.870024,0.235251 1.351397,0.05531 z"
     style="fill:#00a2a8;fill-opacity:1" />
</svg>
