<?xml version="1.0" encoding="UTF-8" standalone="no"?>
<!-- Generator: flash2svg, http://dissentgraphics.com/tools/flash2svg -->

<svg
   xmlns:dc="http://purl.org/dc/elements/1.1/"
   xmlns:cc="http://creativecommons.org/ns#"
   xmlns:rdf="http://www.w3.org/1999/02/22-rdf-syntax-ns#"
   xmlns:svg="http://www.w3.org/2000/svg"
   xmlns="http://www.w3.org/2000/svg"
   xmlns:sodipodi="http://sodipodi.sourceforge.net/DTD/sodipodi-0.dtd"
   xmlns:inkscape="http://www.inkscape.org/namespaces/inkscape"
   id="Drive-External"
   image-rendering="optimizeSpeed"
   version="1.1"
   style="background-color:#ffffff"
   x="0px"
   y="0px"
   width="1024px"
   height="1024px"
   viewBox="0 0 1024 1024"
   enable-background="new 0 0 1024 1024"
   inkscape:version="0.48.5 r10040"
   sodipodi:docname="drive-external-usb.svg">
  <metadata
     id="metadata26">
    <rdf:RDF>
      <cc:Work
         rdf:about="">
        <dc:format>image/svg+xml</dc:format>
        <dc:type
           rdf:resource="http://purl.org/dc/dcmitype/StillImage" />
        <dc:title />
      </cc:Work>
    </rdf:RDF>
  </metadata>
  <sodipodi:namedview
     pagecolor="#ffffff"
     bordercolor="#666666"
     borderopacity="1"
     objecttolerance="10"
     gridtolerance="10"
     guidetolerance="10"
     inkscape:pageopacity="0"
     inkscape:pageshadow="2"
     inkscape:window-width="1141"
     inkscape:window-height="657"
     id="namedview24"
     showgrid="false"
     inkscape:zoom="0.32593203"
     inkscape:cx="400.51634"
     inkscape:cy="453.24905"
     inkscape:window-x="223"
     inkscape:window-y="45"
     inkscape:window-maximized="0"
     inkscape:current-layer="Drive-External" />
  <defs
     transform="matrix(1 0 0 1 0 0) "
     id="defs3">
    <path
       d="m 38.650563,12.764798 -8.308794,0 0,8.310562 2.882358,0 c -0.257227,4.816849 -3.169536,5.132217 -5.755905,5.400015 -0.16209,0.01762 -0.29775,0.037 -0.45103,0.05286 l 0,-16.420277 4.154401,0 -5.792904,-8.107955 -5.838713,8.107954 4.154401,0 0,21.300551 c -0.186755,-0.02291 -0.366461,-0.04581 -0.569072,-0.06519 -2.491231,-0.257228 -5.280211,-0.560261 -5.717146,-4.882038 1.744213,-0.776966 2.961641,-2.522943 2.961641,-4.554335 0,-2.751982 -2.230481,-4.984224 -4.984224,-4.984224 -2.753745,0 -4.985984,2.232242 -4.985984,4.984224 0,2.607512 1.999678,4.742852 4.552574,4.964844 0.628973,5.415871 4.374629,6.485303 6.915191,6.832384 -1.89397,1.171619 -3.158965,3.261151 -3.158965,5.650197 0,3.67342 2.975735,6.64563 6.647392,6.64563 3.671658,0 6.645632,-2.973973 6.645632,-6.64563 0,-3.097301 -2.121246,-5.688957 -4.985986,-6.428928 l 0,-3.888362 c 0.218468,-0.03172 0.466885,-0.05462 0.706495,-0.07929 2.517658,-0.262512 7.655161,-0.819252 7.986386,-7.882437 l 2.938728,0 0,-8.310562 0.0035,0 0,0 z"
       id="path-main" />
  </defs>
  <g
     id="Calque.__202"
     transform="matrix(1,0,0,0.96430243,-16.271186,15.196286)">
    <g
       id="shape">
      <path
         id="path"
         d="M 919.15,109.8 Q 918.7,89.9 904.5,75.7 C 894.75,65.95 882.95,61.05 869.15,61.05 l -674.2,0 c -13.8,0 -25.6,4.9 -35.35,14.65 -9.45,9.45 -14.35,20.85 -14.65,34.1 l 0,843.25 c 0,13.8 4.9,25.6 14.65,35.35 9.75,9.75 21.55,14.65 35.35,14.65 l 674.2,0 c 13.8,0 25.6,-4.9 35.35,-14.65 9.75,-9.75 14.65,-21.55 14.65,-35.35 l 0,-843.25 z"
         inkscape:connector-curvature="0"
         style="fill:#000000;fill-opacity:0.09803922" />
    </g>
  </g>
  <g
     id="Calque.__203"
     transform="translate(4.3389661,8.4745807e-8)">
    <g
       id="shape2">
      <path
         id="path1"
         d="M 884.5,55.7 Q 869.85,41.05 849.15,41.05 l -674.2,0 c -13.8,0 -25.6,4.9 -35.35,14.65 -9.45,9.45 -14.35,20.85 -14.65,34.1 l 0,-0.025 0,724.575 c 0.3,13.25 5.2,24.6 14.65,34.05 9.75,9.75 21.55,14.65 35.35,14.65 l 674.2,0 c 13.8,0 25.6,-4.9 35.35,-14.65 9.45,-9.45 14.35,-20.8 14.65,-34.05 l 0,-724.575 0,0.025 c -0.3,-13.25 -5.2,-24.65 -14.65,-34.1 z"
         inkscape:connector-curvature="0"
         style="fill:#f49c35;fill-opacity:1" />
      <path
         id="path2"
         d="m 139.6,848.4 c -9.45,-9.45 -14.35,-20.8 -14.65,-34.05 l 0,118.7 c 0,13.8 4.9,25.6 14.65,35.35 9.75,9.75 21.55,14.65 35.35,14.65 l 674.2,0 c 13.8,0 25.6,-4.9 35.35,-14.65 9.75,-9.75 14.65,-21.55 14.65,-35.35 l 0,-118.7 c -0.3,13.25 -5.2,24.6 -14.65,34.05 -9.75,9.75 -21.55,14.65 -35.35,14.65 l -674.2,0 c -13.8,0 -25.6,-4.9 -35.35,-14.65 z"
         inkscape:connector-curvature="0"
         style="fill:#86837c;fill-opacity:0.98823529" />
    </g>
  </g>
  <g
     id="Calque.__204">
    <g
       id="Symbole.__2026_1"
       overflow="visible">
      <g
         id="Calque.__208">
        <g
           id="shape17">
          <path
             id="path11"
             fill="#3B3A36"
             fill-opacity="1"
             d="M518,918 Q518,909.7 512.15,903.85 C508.25,899.95 503.55,898 498,898 L196,898 C190.45,898 185.75,899.95 181.85,903.85 177.95,907.75 176,912.45 176,918 L176,926.2 C176,931.75 177.95,936.45 181.85,940.35 185.75,944.25 190.45,946.2 196,946.2 L498,946.2 C503.55,946.2 508.25,944.25 512.15,940.35 516.05,936.45 518,931.75 518,926.2 L518,918z" />
        </g>
      </g>
    </g>
  </g>
  <g
     id="Calque.__205">
    <g
       id="shape6">
      <path
         id="path3"
         fill="#000000"
         fill-opacity="0.2"
         d="M849.65,912.15 Q843.1,905.6 833.8,905.6 C827.6,905.6 822.3,907.8 817.9,912.15 813.55,916.55 811.35,921.85 811.35,928.05 811.35,934.25 813.55,939.55 817.9,943.9 822.3,948.3 827.6,950.5 833.8,950.5 840,950.5 845.3,948.3 849.65,943.9 854.05,939.55 856.25,934.25 856.25,928.05 856.25,921.85 854.05,916.55 849.65,912.15z M784.8,928.05 C784.8,921.85 782.6,916.55 778.2,912.15 773.85,907.8 768.55,905.6 762.35,905.6 756.15,905.6 750.85,907.8 746.45,912.15 742.1,916.55 739.9,921.85 739.9,928.05 739.9,934.25 742.1,939.55 746.45,943.9 750.85,948.3 756.15,950.5 762.35,950.5 768.55,950.5 773.85,948.3 778.2,943.9 782.6,939.55 784.8,934.25 784.8,928.05z" />
    </g>
  </g>
  <g
     id="Calque.__206">
    <g
       id="shape10">
      <path
         id="path6"
         fill="#FFFFFF"
         fill-opacity="0.09803921568627451"
         d="M703.4,642 Q782.65,562.75 782.65,450.65 C782.65,375.9 756.25,312.15 703.4,259.3 650.55,206.45 586.8,180.05 512.05,180.05 437.3,180.05 373.55,206.45 320.7,259.3 267.85,312.15 241.45,375.9 241.45,450.65 241.45,525.4 267.85,589.15 320.7,642 373.55,694.85 437.3,721.25 512.05,721.25 586.8,721.25 650.55,694.85 703.4,642z" />
      <path
         id="path7"
         fill="#CCCC00"
         fill-opacity="1"
         d="M829.05,940.5 C835.25,940.5 840.55,938.3 844.9,933.9 849.3,929.55 851.5,924.25 851.5,918.05 851.5,911.85 849.3,906.55 844.9,902.15 840.55,897.8 835.25,895.6 829.05,895.6 822.85,895.6 817.55,897.8 813.15,902.15 808.8,906.55 806.6,911.85 806.6,918.05 806.6,924.25 808.8,929.55 813.15,933.9 817.55,938.3 822.85,940.5 829.05,940.5z M780.05,918.05 C780.05,911.85 777.85,906.55 773.45,902.15 769.1,897.8 763.8,895.6 757.6,895.6 751.4,895.6 746.1,897.8 741.7,902.15 737.35,906.55 735.15,911.85 735.15,918.05 735.15,924.25 737.35,929.55 741.7,933.9 746.1,938.3 751.4,940.5 757.6,940.5 763.8,940.5 769.1,938.3 773.45,933.9 777.85,929.55 780.05,924.25 780.05,918.05z" />
    </g>
  </g>
  <path
     style="fill:#fefefe"
     d="m 496.73776,640.95853 c -13.77734,-3.14838 -26.87438,-12.19776 -34.68573,-23.96605 -1.93951,-2.92199 -4.72806,-8.86384 -6.19679,-13.20411 -2.24564,-6.63613 -2.67354,-9.64112 -2.69006,-18.89139 -0.0108,-6.05 0.52164,-13.23583 1.18322,-15.96852 2.01805,-8.33565 6.9334,-17.28399 13.13682,-23.91547 l 5.90308,-6.31041 -5.72172,-1.23803 c -9.79715,-2.11984 -21.56268,-8.43697 -28.61868,-15.36588 -7.57676,-7.44031 -13.64463,-19.13548 -16.03693,-30.90953 -0.86136,-4.23931 -1.56611,-7.90072 -1.56611,-8.13646 0,-0.23574 -1.91559,-0.71587 -4.25686,-1.06697 -10.68454,-1.60224 -23.54222,-11.26417 -28.72937,-21.58873 -11.54721,-22.9837 -2.47529,-51.39627 19.73359,-61.80411 5.35734,-2.51064 6.6803,-2.69589 19.25264,-2.69589 13.10744,0 13.69601,0.0928 20.24075,3.19313 8.72443,4.13281 15.93331,11.34169 20.06612,20.06612 3.08141,6.50491 3.19313,7.19558 3.19313,19.74075 0,12.57421 -0.10572,13.22321 -3.2279,19.81505 -3.52798,7.44859 -11.7884,16.41353 -17.18234,18.64777 -2.88138,1.19351 -3.12241,1.61765 -2.51664,4.42855 4.09994,19.02449 16.13423,29.48268 36.92688,32.09068 2.75,0.34493 6.0125,0.83615 7.25,1.0916 l 2.25,0.46445 0,-86.01905 0,-86.01905 -17.5,0 -17.5,0 0,-2.37935 c 0,-1.51558 8.92091,-14.76618 24.57347,-36.5 20.15115,-27.98019 24.99145,-34.12065 26.89605,-34.12065 1.90634,0 6.58806,5.95895 26.12327,33.25 16.59461,23.183 23.92562,34.23399 24.21335,36.5 l 0.41267,3.25 -17.1094,0 -17.10941,0 0,65.56127 0,65.56128 4.75,-0.65573 c 22.84995,-3.15437 32.67643,-9.76695 38.14834,-25.67134 1.0231,-2.9737 2.17907,-7.29419 2.56882,-9.6011 l 0.70864,-4.19438 -12.0879,0 -12.0879,0 0,-37 0,-37 37.5,0 37.5,0 0,37 0,37 -12.31993,0 -12.31992,0 -1.17166,8.80009 c -4.6859,35.19509 -24.67069,52.93402 -63.93849,56.7532 l -7.25,0.70513 0.009,13.62079 0.009,13.62079 8.74079,3.98019 c 15.57873,7.09391 26.52869,20.4119 30.84851,37.51981 2.37687,9.41319 1.50019,27.13007 -1.78213,36.01508 -6.01606,16.28504 -17.54975,27.49608 -34.70602,33.7351 -8.42712,3.0646 -24.56175,3.92858 -33.82667,1.81137 z"
     id="path3056"
     inkscape:connector-curvature="0" />
</svg>
