<?xml version="1.0" encoding="UTF-8" standalone="no"?>
<!-- Created with Inkscape (http://www.inkscape.org/) -->

<svg
   xmlns:dc="http://purl.org/dc/elements/1.1/"
   xmlns:cc="http://creativecommons.org/ns#"
   xmlns:rdf="http://www.w3.org/1999/02/22-rdf-syntax-ns#"
   xmlns:svg="http://www.w3.org/2000/svg"
   xmlns="http://www.w3.org/2000/svg"
   xmlns:sodipodi="http://sodipodi.sourceforge.net/DTD/sodipodi-0.dtd"
   xmlns:inkscape="http://www.inkscape.org/namespaces/inkscape"
   id="svg2"
   version="1.1"
   inkscape:version="0.48.5 r10040"
   width="512"
   height="512"
   sodipodi:docname="acroread.svg">
  <metadata
     id="metadata8">
    <rdf:RDF>
      <cc:Work
         rdf:about="">
        <dc:format>image/svg+xml</dc:format>
        <dc:type
           rdf:resource="http://purl.org/dc/dcmitype/StillImage" />
        <dc:title />
      </cc:Work>
    </rdf:RDF>
  </metadata>
  <defs
     id="defs6" />
  <sodipodi:namedview
     pagecolor="#ffffff"
     bordercolor="#666666"
     borderopacity="1"
     objecttolerance="10"
     gridtolerance="10"
     guidetolerance="10"
     inkscape:pageopacity="0"
     inkscape:pageshadow="2"
     inkscape:window-width="640"
     inkscape:window-height="480"
     id="namedview4"
     showgrid="false"
     inkscape:zoom="0.4609375"
     inkscape:cx="277.78906"
     inkscape:cy="288.70324"
     inkscape:window-x="15"
     inkscape:window-y="39"
     inkscape:window-maximized="0"
     inkscape:current-layer="svg2" />
  <path
     style="fill:#eb8077"
     d="M 67.331863,481.90929 C 51.879087,476.62163 41.062521,467.31543 34.177398,453.38433 l -4.123077,-8.34248 0,-187.04004 0,-187.040044 4.168606,-8.434602 c 7.017169,-14.198276 19.527136,-24.565707 35.195939,-29.16806 5.269838,-1.547894 24.354552,-1.723821 187.001984,-1.723821 162.64743,0 181.73215,0.175927 187.00198,1.723821 15.6688,4.602353 28.17877,14.969784 35.19594,29.16806 l 4.16861,8.434602 0,187.040044 0,187.04004 -4.16861,8.4346 c -7.01717,14.19827 -19.52714,24.56571 -35.19594,29.16806 -5.27181,1.54848 -24.34099,1.72098 -187.46822,1.69592 l -181.599442,-0.0279 -7.023305,-2.40326 z"
     id="path3000" />
  <path
     style="fill:#eb8077"
     d="m 129.23955,427.29108 c 17.4067,-8.56929 37.83136,-32.9655 59.3314,-70.86827 l 7.91408,-13.95189 22.67447,-6.8638 c 41.02075,-12.41739 77.43121,-21.26199 101.21235,-24.58586 l 10.9303,-1.52773 7.13033,3.61717 c 11.6459,5.90787 33.47978,14.09428 57.91422,21.71437 11.52284,3.5935 14.28908,4.05313 24.85169,4.12924 11.1436,0.0803 12.28691,-0.11673 18.31394,-3.15589 12.49953,-6.30296 10.45362,-10.55204 -5.63045,-11.69373 -19.38007,-1.37564 -54.28306,-11.85049 -54.28306,-16.29108 0,-2.49714 5.9525,-3.13399 23.56338,-2.52099 17.74185,0.61754 24.80991,2.14395 36.41441,7.86399 8.79778,4.33656 10.81077,4.5718 12.47716,1.45811 2.03012,-3.7933 0.30278,-8.81441 -4.66132,-13.5497 -11.31046,-10.78914 -17.32838,-12.26826 -49.92213,-12.27021 -13.69214,-8.2e-4 -32.43918,0.56199 -41.66007,1.2507 l -16.76525,1.2522 -13.16993,-10.01255 c -28.3708,-21.56912 -46.28849,-44.93196 -58.2872,-76.00056 l -3.69018,-9.55511 2.15919,-9.96586 c 2.81292,-12.98321 5.49109,-33.58197 5.49109,-42.23393 0,-6.48875 -0.1495,-6.88835 -2.82877,-7.5608 -1.55583,-0.39049 -3.13607,-0.4115 -3.51166,-0.0467 -0.37558,0.36479 -2.14585,5.60959 -3.93394,11.65509 -3.71587,12.56332 -6.07317,14.74175 -8.04163,7.43147 -2.38163,-8.84468 -4.4345,-26.17834 -5.07786,-42.8756 -0.55527,-14.410616 -0.38151,-17.96255 1.0439,-21.340036 1.31956,-3.126689 2.31931,-4.051907 4.3783,-4.051907 3.63264,0 6.8416,5.435098 10.48381,17.756663 2.59918,8.79303 3.17878,9.8306 5.65938,10.13118 4.14282,0.50202 5.47227,-2.92194 4.7651,-12.27234 -1.21257,-16.032995 -10.36834,-26.420609 -23.2874,-26.420609 -10.65645,0 -19.99,5.358777 -24.14604,13.863248 -5.98968,12.256621 -1.34341,51.362651 12.2399,103.018871 l 3.31668,12.61306 -9.46412,21.94518 c -22.72266,52.68877 -45.45758,95.20663 -72.12997,134.89438 -22.69738,33.77303 -44.92283,58.34746 -52.77023,58.34746 -7.43707,0 0.0872,-10.96225 29.73506,-43.32174 16.04669,-17.51432 16.88635,-18.64669 15.44225,-20.82547 -0.83993,-1.26724 -2.2645,-2.45059 -3.16569,-2.62968 -3.4283,-0.68128 -40.45768,26.43803 -49.63698,36.35278 -15.986311,17.26712 -15.220484,33.32257 1.89281,39.68258 6.97493,2.59216 18.46968,1.48017 26.72868,-2.58572 z"
     id="path2998" />
  <path
     style="fill:#eb8077"
     d="m 207.79797,323.34484 c 0,-0.60953 9.27759,-19.93713 20.61687,-42.95021 11.33927,-23.01309 21.18541,-43.01856 21.88029,-44.45661 0.69489,-1.43806 1.80486,-2.79359 2.46661,-3.0123 0.66175,-0.2187 4.85945,5.09083 9.32821,11.79897 9.00217,13.51327 21.7158,27.60965 35.82667,39.72321 5.10847,4.38541 9.28813,8.82646 9.28813,9.86901 0,1.48882 -1.7968,2.28263 -8.37394,3.69952 -24.27413,5.22931 -44.75754,11.16229 -70.49088,20.41753 -16.85882,6.06344 -20.54196,6.94396 -20.54196,4.91088 z"
     id="path2986" />
  <path
     style="fill:#e73d30"
     d="M 73.139087,481.67647 C 63.480193,479.57565 55.123405,475.23116 47.928844,468.57026 40.299352,461.5067 35.8508,454.78604 32.839651,445.77424 c -2.237431,-6.69621 -2.245076,-7.33563 -2.245076,-187.77243 0,-180.436807 0.0076,-181.076221 2.245076,-187.772433 3.011149,-9.011805 7.459701,-15.732462 15.089193,-22.796027 7.353355,-6.807909 15.54715,-11.000158 25.709859,-13.154117 10.737905,-2.27587 354.826387,-2.27587 365.564287,0 10.16271,2.153959 18.35651,6.346208 25.70986,13.154117 7.62949,7.063565 12.07805,13.784222 15.08919,22.796027 2.23743,6.696212 2.24508,7.335626 2.24508,187.772433 0,180.4368 -0.008,181.07622 -2.24508,187.77243 -3.01114,9.0118 -7.4597,15.73246 -15.08919,22.79602 -7.35335,6.80792 -15.54715,11.00016 -25.70986,13.15412 -10.37468,2.19889 -355.94177,2.15366 -366.063903,-0.0479 z"
     id="path2994" />
  <path
     d="M 193.45887,70.757654 C 175.50821,70.4437 160.01662,88.297546 163.81172,106.1348 c 2.5545,27.25585 20.12897,49.37365 33.84333,71.88009 1.54211,8.38131 -2.87813,16.53995 -3.17411,24.8604 -8.94144,48.84947 -22.5825,97.43616 -43.56897,142.26095 -25.96822,11.95512 -55.377465,23.76087 -70.563405,49.52717 -9.639889,17.87735 3.93341,42.00473 23.857695,43.88983 18.48449,2.52823 32.20439,-13.31189 42.30898,-26.58368 10.54994,-14.27588 17.49287,-31.275 26.27112,-46.61722 53.12309,-21.39447 109.01231,-36.34666 166.06329,-42.0241 23.06796,16.50952 47.50793,35.98707 77.08869,37.16405 17.19413,-0.25587 31.10765,-16.94657 29.22393,-33.89866 -1.10783,-15.43488 -14.81942,-26.25867 -29.02477,-29.15478 -22.91029,-6.90144 -47.4526,-3.12155 -70.75707,-2.9542 -44.84691,-35.83494 -86.24725,-77.06516 -118.85829,-124.23976 2.42035,-28.68039 7.2804,-60.40489 -7.65382,-86.496209 -5.67051,-8.229172 -15.28273,-13.872033 -25.41084,-12.984112 m 0.85473,26.047059 c 5.04953,0.97367 5.38561,8.494722 6.79909,12.516642 1.3305,8.19737 1.18528,16.56208 1.08847,24.84104 -6.01352,-11.24008 -13.82501,-22.98221 -12.43366,-36.305182 1.58498,-0.06224 2.98878,-0.865788 4.5461,-1.049734 m 27.82704,111.847596 c 26.7289,33.23479 56.41892,63.84178 88.81973,91.58584 -42.72392,6.51557 -85.16847,17.43063 -125.81642,32.15601 15.58979,-40.74477 27.45916,-82.83941 35.28032,-125.8026 0.56981,0.68737 1.13963,1.37337 1.70945,2.06075 M 388.85952,320.3851 c 10.36322,0.99995 22.32249,0.3997 30.62082,7.54179 0.77866,6.44642 -7.10752,7.3869 -11.30647,5.05368 -8.76165,-2.92516 -17.42925,-6.6027 -24.86731,-12.20683 1.85329,-0.1148 3.69967,-0.35268 5.55988,-0.38864 m -258.97689,67.79731 c -4.92782,9.1655 -12.10172,17.80683 -19.58266,24.2975 -2.4895,4.03022 -9.32177,-3.42168 -6.17808,-6.56951 6.49065,-10.15991 17.82339,-15.54553 27.85468,-21.61437 -0.69982,1.29592 -1.39688,2.59184 -2.09809,3.88777"
     inkscape:connector-curvature="0"
     id="path70"
     style="fill:#ffffff" />
</svg>
