<?xml version="1.0" encoding="UTF-8" standalone="no"?>
<!-- Created with Inkscape (http://www.inkscape.org/) -->

<svg
   xmlns:dc="http://purl.org/dc/elements/1.1/"
   xmlns:cc="http://creativecommons.org/ns#"
   xmlns:rdf="http://www.w3.org/1999/02/22-rdf-syntax-ns#"
   xmlns:svg="http://www.w3.org/2000/svg"
   xmlns="http://www.w3.org/2000/svg"
   xmlns:sodipodi="http://sodipodi.sourceforge.net/DTD/sodipodi-0.dtd"
   xmlns:inkscape="http://www.inkscape.org/namespaces/inkscape"
   id="svg2"
   version="1.1"
   inkscape:version="0.48.5 r10040"
   width="512"
   height="512"
   sodipodi:docname="agave.svg">
  <metadata
     id="metadata8">
    <rdf:RDF>
      <cc:Work
         rdf:about="">
        <dc:format>image/svg+xml</dc:format>
        <dc:type
           rdf:resource="http://purl.org/dc/dcmitype/StillImage" />
        <dc:title />
      </cc:Work>
    </rdf:RDF>
  </metadata>
  <defs
     id="defs6" />
  <sodipodi:namedview
     pagecolor="#ffffff"
     bordercolor="#666666"
     borderopacity="1"
     objecttolerance="10"
     gridtolerance="10"
     guidetolerance="10"
     inkscape:pageopacity="0"
     inkscape:pageshadow="2"
     inkscape:window-width="640"
     inkscape:window-height="480"
     id="namedview4"
     showgrid="false"
     inkscape:zoom="5.2149125"
     inkscape:cx="239.57497"
     inkscape:cy="267.04193"
     inkscape:window-x="15"
     inkscape:window-y="39"
     inkscape:window-maximized="0"
     inkscape:current-layer="svg2" />
  <rect
     style="fill:#ffffff;fill-rule:evenodd;stroke:#000000;stroke-width:1px;stroke-linecap:butt;stroke-linejoin:miter;stroke-opacity:1"
     id="rect2997"
     width="394.84744"
     height="347.11865"
     x="62.915253"
     y="84.610168"
     ry="52.584" />
  <g
     id="g2982"
     style="fill:#4e9a06"
     transform="translate(1.8305112,-0.1694919)">
    <path
       style="fill:#4e9a06"
       d="m 70.071613,485.40903 c -2.985613,-0.80264 -8.385613,-2.90108 -12,-4.6632 C 49.102674,476.3732 36.63533,463.91495 32.272433,454.96548 25.560438,441.19737 26,455.10551 26,256.5 26,57.894488 25.560438,71.802633 32.272433,58.034524 36.626094,49.103992 49.103992,36.626094 58.034524,32.272433 71.801414,25.561032 57.947062,26 256,26 c 198.05294,0 184.19859,-0.438968 197.96548,6.272433 8.93053,4.353661 21.40843,16.831559 25.76209,25.762091 C 486.43956,71.802633 486,57.894488 486,256.5 c 0,198.60551 0.43956,184.69737 -6.27243,198.46548 -4.35366,8.93053 -16.83156,21.40843 -25.76209,25.76209 -13.77522,6.71546 0.17151,6.27921 -198.42558,6.20662 -154.51351,-0.0565 -180.809547,-0.27272 -185.468287,-1.52516 z M 309.70644,383.94394 c 23.43992,-2.94105 34.10107,-7.113 56.79356,-22.22459 18.07583,-12.03722 51.16661,-39.42604 65.5,-54.2135 4.48782,-4.63 4.49188,-4.64069 1.5,-3.95042 -10.58305,2.44166 -49.82128,14.29189 -64.5,19.47948 -20.14116,7.11805 -24,8.00205 -24,5.49801 0,-2.75151 8.61731,-23.95898 13.96539,-34.36924 11.01483,-21.44083 23.51631,-37.77244 50.9967,-66.62079 7.3124,-7.6764 12.85167,-14.10497 12.30948,-14.2857 -0.54219,-0.18073 -5.6626,0.77729 -11.37869,2.12893 -39.11462,9.24914 -57.68389,20.10359 -90.21735,52.73548 -16.50645,16.55638 -20.63926,19.87658 -20.69822,16.6284 -0.13183,-7.26239 -2.38801,-28.8074 -4.05787,-38.75 -2.93916,-17.50017 -9.93662,-44.80318 -16.89975,-65.94022 -7.16152,-21.73929 -21.14635,-57.35419 -22.1121,-56.31249 -0.78339,0.845 -10.26448,57.85534 -14.84315,89.25271 -5.93971,40.73046 -7.25346,53.42252 -7.91006,76.41876 -0.45851,16.05867 -1.00348,23.0345 -1.82067,23.30543 -0.64146,0.21267 -4.79244,-4.92577 -9.22441,-11.41876 C 218.67733,294.81244 210.0628,283.425 203.96589,276 c -14.88181,-18.12353 -61.32841,-71.97081 -61.73154,-71.56769 -0.44829,0.44829 6.04136,30.4965 11.26283,52.14891 5.3953,22.37324 11.11779,42.28721 17.05987,59.36752 4.29872,12.35651 4.70999,15.05126 2.29714,15.05126 -0.56528,0 -6.95122,-2.20184 -14.19099,-4.89297 C 139.00378,318.7993 81.603471,302.0632 80.383512,303.28315 79.814455,303.85221 96.518796,319.79491 109,330.59486 c 23.93708,20.71269 45.81949,36.10172 63,44.30542 18.88503,9.0176 30.29635,10.40727 89,10.83841 27.69206,0.20338 34.89753,-0.0621 48.70644,-1.79475 z"
       id="path3012"
       inkscape:connector-curvature="0" />
    <path
       style="fill:#4e9a06"
       d="M 75.346687,485.91462 C 54.007826,482.31071 35.43173,465.81533 28.708066,444.5 l -2.208066,-7 0,-181 0,-181 2.217917,-7 C 34.692638,49.643092 49.69082,34.641196 68.5,28.708066 l 7,-2.208066 180.5,0 180.5,0 7,2.217917 C 462.35691,34.692638 477.3588,49.69082 483.29193,68.5 l 2.20807,7 0,181 0,181 -2.20807,7 C 477.45039,463.01884 462.80676,477.84304 444,484.27648 L 437.5,486.5 259,486.64248 c -98.175,0.0784 -180.818991,-0.24917 -183.653313,-0.72786 z M 311.5,384.5205 c 6.6,-0.86379 15.1278,-2.49964 18.95067,-3.63524 22.72207,-6.74969 56.10424,-30.11532 95.32153,-66.71965 6.74971,-6.3 12.08122,-11.64552 11.84779,-11.87895 -1.07414,-1.07415 -55.21502,15.03046 -76.13364,22.64652 -7.57135,2.75658 -14.15315,4.77275 -14.62622,4.48037 -1.67334,-1.03418 -0.80062,-4.3471 4.5601,-17.31059 12.92453,-31.2546 24.15716,-47.30125 58.87195,-84.10296 8.04157,-8.525 14.21972,-15.64028 13.72922,-15.81174 -1.46922,-0.51357 -29.37853,6.6423 -38.77889,9.9428 -22.18761,7.79014 -39.53853,19.9442 -65.08949,45.59424 -9.54084,9.57784 -17.90739,17.1992 -18.59235,16.93636 -0.83792,-0.32154 -1.46047,-4.24405 -1.90282,-11.98914 C 298.30009,248.8997 291.2159,216.06755 279.98557,181.5 273.03759,160.11374 258.24174,122 256.88752,122 256.39939,122 256,122.1864 256,122.41423 c 0,0.22783 -2.46067,15.19033 -5.46816,33.25 -12.25954,73.61739 -16.66522,108.56846 -17.05573,135.30625 -0.18725,12.82069 -0.68187,20.59811 -1.32358,20.81201 -0.56352,0.18784 -4.15047,-4.31752 -7.97099,-10.01191 -7.15503,-10.6644 -17.43613,-23.64975 -36.63454,-46.27058 -20.69193,-24.38061 -44.81729,-51.99928 -45.7267,-52.34787 -0.49914,-0.19133 -0.67023,0.70867 -0.3802,2 0.29004,1.29133 2.55147,11.67572 5.02541,23.07642 7.94465,36.61152 16.09955,67.05162 23.58403,88.03302 2.17275,6.09092 3.95046,11.72488 3.95046,12.51991 0,1.98957 -3.07584,1.30611 -17,-3.77745 -22.26276,-8.12789 -77.317755,-24.01961 -78.638285,-22.69908 -0.710564,0.71057 23.724995,23.38723 38.291205,35.53497 21.84545,18.21839 44.71324,33.55204 58.84708,39.45901 15.41135,6.44088 25.08587,7.75881 64,8.71851 37.95204,0.93596 56.33013,0.55387 72,-1.49694 z"
       id="path3010"
       inkscape:connector-curvature="0" />
    <path
       style="fill:#4e9a06"
       d="m 69.922633,484.55823 c -19.53702,-5.39042 -36.313819,-22.32746 -41.533428,-41.93011 -2.030227,-7.62468 -2.030227,-364.631563 0,-372.256239 5.282673,-19.839494 22.143182,-36.700003 41.982676,-41.982676 7.624491,-2.030177 363.631749,-2.030177 371.256239,0 19.83949,5.282673 36.7,22.143182 41.98268,41.982676 2.03022,7.624676 2.03022,364.631559 0,372.256239 -5.28268,19.83949 -22.14319,36.7 -41.98268,41.98268 -7.28077,1.93865 -364.671701,1.88811 -371.705487,-0.0526 z M 315.51225,384.12373 c 7.15673,-1.07907 16.15673,-3.145 20,-4.59097 19.37637,-7.29005 46.38942,-25.8822 76.98775,-52.98802 C 428.71262,312.18264 438.96605,302 437.21537,302 c -4.09729,0 -53.23224,14.66187 -73.69927,21.99185 -14.65898,5.24992 -17.5161,5.85371 -17.5161,3.70163 0,-2.49926 8.06656,-21.98422 13.4775,-32.55523 11.60719,-22.67619 24.02911,-38.89716 52.01468,-67.92254 7.57491,-7.85636 13.49614,-14.56072 13.1583,-14.89857 -1.71535,-1.71534 -35.84605,7.63184 -49.47566,13.54962 -19.1537,8.31627 -45.00018,28.63458 -63.63518,50.02457 C 307.17512,280.9011 303.06636,285 302.40906,285 300.62305,285 300,282.53514 300,275.46943 c 0,-13.34069 -4.46495,-39.55916 -11.13825,-65.4045 -6.89104,-26.68866 -30.3291,-90.93092 -32.41433,-88.84569 -0.54013,0.54014 -8.48547,47.51833 -12.90123,76.28076 -7.40528,48.23493 -9.78419,69.73888 -10.17766,92 -0.27827,15.74435 -0.68367,21.06333 -1.61985,21.25304 -0.68677,0.13917 -3.82737,-3.69696 -6.97909,-8.52472 -5.72732,-8.77302 -17.2092,-23.46651 -32.25438,-41.2763 -21.55358,-25.51412 -50.8364,-58.96416 -51.25337,-58.54719 -0.70713,0.70712 6.24023,33.3052 12.27478,57.59517 6.02342,24.2452 11.75098,43.83617 17.05926,58.35075 4.38145,11.98036 3.96211,12.92563 -4.30161,9.69661 -22.6165,-8.83733 -86.19768,-27.47728 -87.90426,-25.7707 -0.638066,0.63806 14.720561,15.51791 28.10999,27.2337 28.99481,25.37056 54.69823,42.76069 73.86593,49.9754 11.73856,4.41838 22.68902,5.67854 56.63407,6.51738 41.69914,1.03044 62.51836,0.53208 78.51225,-1.87941 z"
       id="path3008"
       inkscape:connector-curvature="0" />
    <path
       style="fill:#4e9a06"
       d="M 70.123751,484.42237 C 55.44381,480.47404 40.747829,468.74551 33.76816,455.4078 26.492858,441.50516 27,456.40943 27,256.5 27,56.590573 26.492858,71.494845 33.76816,57.592201 38.635753,48.290537 48.290537,38.635753 57.592201,33.76816 71.493619,26.493499 56.645615,27 256,27 c 199.35438,0 184.50638,-0.506501 198.4078,6.76816 9.30166,4.867593 18.95645,14.522377 23.82404,23.824041 C 485.50714,71.494845 485,56.590573 485,256.5 c 0,199.90943 0.50714,185.00516 -6.76816,198.9078 -7.0892,13.54702 -21.78235,25.15634 -36.78414,29.06381 -8.61342,2.24351 -362.974198,2.19652 -371.323949,-0.0492 z M 314.5,384.62774 c 6.05,-0.95431 13.925,-2.67467 17.5,-3.82302 18.01902,-5.78802 41.06441,-20.57978 70.42604,-45.20319 13.39676,-11.23487 34.90982,-31.47497 35.38582,-33.29198 0.34111,-1.30212 -1.99297,-0.71766 -32.89554,8.23723 -10.22102,2.96183 -26.42102,8.14492 -36,11.51796 -19.91167,7.0115 -22.91852,7.77252 -22.91141,5.79876 0.009,-2.50856 10.53322,-27.31332 15.29447,-36.04796 11.71877,-21.49835 22.16166,-34.90894 49.88817,-64.06554 13.76564,-14.47565 14.74699,-15.75 12.12879,-15.75 -3.97773,0 -28.00329,6.19519 -38.81634,10.00913 -25.33861,8.93731 -47.9764,25.99675 -77.30506,58.25569 -4.00233,4.40221 -6.16311,5.78716 -6.21763,3.98518 -1.1212,-37.05998 -13.2699,-87.55311 -33.2631,-138.25 -8.23766,-20.8883 -10.6427,-26.40485 -11.24785,-25.7997 -0.82143,0.82144 -11.13357,63.60504 -15.89925,96.7997 -6.07199,42.29367 -7.6591,58.45595 -7.63492,77.75 0.0121,9.61662 -0.36763,16.25 -0.93012,16.25 -0.52276,0 -3.7149,-4.11128 -7.09364,-9.13618 -9.41121,-13.99649 -26.87457,-35.27918 -63.86364,-77.83096 -11.96481,-13.76418 -19.64785,-21.8555 -19.83414,-20.88817 -1.04324,5.41713 17.1273,79.10643 26.16168,106.09677 3.54549,10.5922 6.11418,19.609 5.7082,20.03735 -0.40598,0.42834 -6.77768,-1.44326 -14.15934,-4.15913 -16.08053,-5.91635 -40.55335,-13.39741 -62.42119,-19.08144 -8.8,-2.28735 -16.7875,-4.38701 -17.75,-4.66592 -3.79513,-1.09972 -1.198787,1.96514 12,14.16543 42.12007,38.93365 75.78481,61.759 98.75,66.95443 14.64748,3.31371 28.49998,4.02702 76.5,3.93924 30.44555,-0.0557 39.5693,-0.39498 48.5,-1.80368 z"
       id="path3006"
       inkscape:connector-curvature="0" />
    <path
       style="fill:#4e9a06"
       d="m 71.601124,484.40606 c -3.244382,-0.78503 -8.869382,-2.86574 -12.5,-4.62381 C 50.07196,475.41002 37.60079,462.95066 33.241497,453.94711 26.643414,440.31964 27.029562,452.59341 27.029562,256.5 27.029562,60.406594 26.643414,72.680359 33.241497,59.052888 37.588964,50.073767 50.073767,37.588964 59.052888,33.241497 72.678926,26.644108 60.45824,27.029562 256,27.029562 c 195.54176,0 183.32107,-0.385454 196.94711,6.211935 8.97912,4.347467 21.46393,16.83227 25.81139,25.811391 6.59809,13.627471 6.21194,1.353706 6.21194,197.447112 0,196.09341 0.38615,183.81964 -6.21194,197.44711 -4.34746,8.97912 -16.83227,21.46393 -25.81139,25.81139 -13.63618,6.6023 -1.3143,6.21892 -197.44711,6.14341 -150.60171,-0.058 -178.907973,-0.28823 -183.898876,-1.49585 z M 293,386.99142 c 19.29522,-1.48681 33.59184,-3.88156 42.5722,-7.13103 22.83208,-8.26162 56.50194,-32.82209 95.4278,-69.60979 4.675,-4.41821 8.22307,-8.32147 7.8846,-8.67392 -1.44498,-1.50465 -58.02471,15.26924 -81.31716,24.10768 -4.91291,1.86423 -9.52139,3.16355 -10.24106,2.88739 -1.82477,-0.70023 2.05707,-11.32427 10.6223,-29.07175 12.91285,-26.75591 24.33805,-41.54957 63.89034,-82.72696 2.49722,-2.59982 4.29028,-4.97708 3.98457,-5.28278 -0.80934,-0.80934 -18.58179,3.1851 -31.32359,7.04012 -29.79457,9.01433 -49.68969,22.22152 -78.27473,51.96196 C 309.08468,277.92155 302.82202,284 302.30826,284 c -0.51376,0 -1.46907,-6.24622 -2.12292,-13.88048 -2.07767,-24.25859 -7.50639,-50.2267 -16.85381,-80.61952 -7.17423,-23.32677 -24.77818,-69.46431 -26.51414,-69.48993 -1.08197,-0.016 -1.40503,1.6366 -7.23111,36.98993 -12.15413,73.75278 -16.83902,111.23197 -16.96872,135.75 -0.0579,10.93888 -0.46192,17.24176 -1.1044,17.22748 -0.55724,-0.0124 -3.36472,-3.59221 -6.23884,-7.95515 -8.74969,-13.28209 -28.13448,-36.80184 -72.73124,-88.24548 -6.0263,-6.95152 -11.26511,-12.44864 -11.64179,-12.21584 -1.38466,0.85576 11.71619,59.26562 19.11773,85.23601 1.67769,5.88664 5.36565,17.55957 8.19547,25.93984 2.82982,8.38027 4.83096,15.55103 4.44697,15.93501 -0.72123,0.72123 -2.27433,0.25206 -21.66146,-6.54373 -21.92998,-7.68712 -71.735382,-21.71635 -74.190407,-20.898 -1.173418,0.39114 20.145359,20.84288 34.690407,33.27954 11.90476,10.1791 33.01511,25.98481 43.09222,32.26394 26.67079,16.61878 38.20365,19.21033 88.32913,19.84846 16.73174,0.21301 30.64424,0.61018 30.91667,0.8826 0.70033,0.70034 4.85747,0.58899 19.16198,-0.51326 z"
       id="path3004"
       inkscape:connector-curvature="0" />
    <path
       style="fill:#4e9a06"
       d="M 75.346687,484.91462 C 53.36721,481.20252 34.667652,463.75565 28.814893,441.5 27.751693,437.45708 27.5,401.94925 27.5,256 27.5,83.620052 27.582717,75.230081 29.338705,69.5 32.343954,59.693374 37.033837,51.955819 44.494828,44.494828 51.955819,37.033837 59.693374,32.343954 69.5,29.338705 75.230081,27.582717 83.620052,27.5 256,27.5 c 172.37995,0 180.76992,0.08272 186.5,1.838705 9.80663,3.005249 17.54418,7.695132 25.00517,15.156123 7.46099,7.460991 12.15088,15.198546 15.15612,25.005172 1.75599,5.730081 1.83871,14.120052 1.83871,186.5 0,145.94925 -0.25169,181.45708 -1.31489,185.5 -5.1775,19.68791 -20.20346,35.45031 -40.18511,42.15462 -5.2581,1.76422 -13.3507,1.85165 -184,1.98786 -98.175,0.0784 -180.818991,-0.24917 -183.653313,-0.72786 z M 311,385.50613 c 6.875,-0.87465 15.6236,-2.51045 19.44134,-3.63511 23.29709,-6.86301 60.05474,-32.742 97.9782,-68.98093 9.08609,-8.68249 11.46283,-11.45832 9.99826,-11.67711 -3.79102,-0.56633 -62.13752,16.96442 -83.71025,25.15153 -5.57125,2.11436 -6.89032,2.32279 -7.33679,1.1593 -0.79522,-2.07233 8.82846,-25.47515 15.06668,-36.63906 12.30908,-22.0283 23.12552,-35.7741 50.64526,-64.36126 10.02054,-10.40921 13.91599,-15.07604 12.77347,-15.30287 -5.48174,-1.08837 -43.21882,9.91539 -55.89312,16.29787 -18.45614,9.29408 -42.35731,28.94011 -61.23159,50.33048 -3.08119,3.49194 -6.01264,6.09529 -6.51433,5.78522 -0.50169,-0.31006 -1.21485,-5.54735 -1.5848,-11.63842 C 298.70849,240.32011 286.31718,191.91273 268.50795,146.5 259.29113,122.99755 257.03751,118.20856 256.03746,120 c -1.05421,1.88845 -11.85939,67.4555 -16.47959,100 -5.71668,40.26802 -6.76302,50.59109 -7.13388,70.38158 -0.1946,10.38487 -0.55429,19.08205 -0.7993,19.32707 -0.24502,0.24502 -2.36323,-2.40169 -4.70714,-5.88158 C 220.75349,294.67557 215.09841,287.30331 202.12023,271.5 184.47242,250.01056 141.91362,201 140.90087,201 c -1.33677,0 -1.27886,0.36777 3.67033,23.30999 8.28048,38.38458 16.76807,70.24507 24.56971,92.22916 2.255,6.3543 3.80469,11.84858 3.44377,12.20951 -0.36093,0.36092 -2.77763,-0.1591 -5.37045,-1.1556 -24.49987,-9.41604 -85.450044,-27.30007 -89.946858,-26.39225 -2.190561,0.44223 18.575299,20.50499 38.232628,36.93813 25.53132,21.34368 47.85626,35.84619 64.57214,41.94673 12.58486,4.59291 25.61907,6.10303 59.92786,6.94314 37.42389,0.91639 54.74884,0.54483 71,-1.52268 z"
       id="path3002"
       inkscape:connector-curvature="0" />
    <path
       style="fill:#4e9a06"
       d="M 70.123751,483.42237 C 51.183112,478.32807 34.483777,461.4727 29.528393,442.4477 28.184584,437.28847 28,414.83159 28,256.5 28,56.68699 27.500304,71.4524 34.727912,57.698238 39.481052,48.652996 48.652996,39.481052 57.698238,34.727912 71.451178,27.500946 56.741819,28 256,28 c 199.25818,0 184.54882,-0.499054 198.30176,6.727912 9.04524,4.75314 18.21719,13.925084 22.97033,22.970326 C 484.4997,71.4524 484,56.68699 484,256.5 c 0,158.33159 -0.18458,180.78847 -1.52839,185.9477 -5.01425,19.25101 -21.7729,36.00966 -41.02391,41.02391 -8.61342,2.24351 -362.974198,2.19652 -371.323949,-0.0492 z M 315.6095,385.12617 c 15.04237,-2.28676 24.43869,-5.57527 38.17978,-13.3621 11.72844,-6.64629 30.48744,-19.99279 44.71072,-31.8104 15.49493,-12.87419 41.5,-37.11129 41.5,-38.67861 0,-1.60291 0.78646,-1.78239 -28,6.39006 -19.51524,5.54036 -43.32308,13.20205 -59.1945,19.0496 -2.58198,0.95128 -5.01017,1.41395 -5.39597,1.02814 -1.03537,-1.03537 6.92432,-20.58641 13.6031,-33.4127 11.59406,-22.26585 20.54757,-33.98577 49.23729,-64.45034 C 419.46247,220.09735 427,211.84748 427,211.54676 c 0,-2.41411 -31.10881,5.0888 -47.18402,11.37996 -20.13507,7.88002 -37.12561,20.20259 -60.97334,44.22155 -12.09678,12.18364 -16.81961,16.35412 -17.25,15.23256 C 301.26669,281.53141 301,278.19628 301,274.96943 c 0,-13.39929 -5.55396,-44.86858 -12.08061,-68.44992 -6.41604,-23.1817 -17.40372,-54.64254 -26.89902,-77.01951 -4.80826,-11.33133 -4.72724,-11.19668 -5.977,-9.93333 -2.09199,2.11473 -19.1758,112.3621 -22.49886,145.19246 -0.84948,8.39252 -1.54451,21.78002 -1.54451,29.75 0,7.96998 -0.3375,14.49007 -0.75,14.48908 -0.4125,-9.8e-4 -2.09341,-2.13848 -3.73536,-4.75 -4.88335,-7.76694 -14.64241,-20.3639 -30.28109,-39.08671 -19.47767,-23.31888 -55.24982,-64.574 -56.35676,-64.99483 -1.48907,-0.56611 -1.00639,3.1649 2.72451,21.05992 7.27835,34.91018 18.32259,76.41376 25.91614,97.39126 1.85739,5.13112 2.99861,9.56321 2.53605,9.84909 -0.46256,0.28588 -2.45555,-0.15481 -4.42886,-0.97931 -20.1062,-8.40091 -89.913535,-28.59873 -91.917238,-26.59502 -0.949789,0.94979 22.536741,23.13271 39.652868,37.45196 27.0874,22.66115 51.64363,38.1835 68.76791,43.4692 11.21142,3.4606 21.18872,4.43438 53.37183,5.20907 42.01142,1.01126 62.20683,0.52088 78.1095,-1.89667 z"
       id="path3000"
       inkscape:connector-curvature="0" />
    <path
       style="fill:#4e9a06"
       d="M 71.071613,483.40903 C 50.89651,477.98524 34.819939,461.76332 29.543416,441.50538 28.18,436.27087 28,414.69476 28,256.5 28,59.05689 27.56352,72.839848 34.253357,59.034524 38.555165,50.157201 50.157201,38.555165 59.034524,34.253357 72.838617,27.564116 59.109349,28 256,28 c 196.89065,0 183.16138,-0.435884 196.96548,6.253357 8.87732,4.301808 20.47936,15.903844 24.78116,24.781167 C 484.43648,72.839848 484,59.05689 484,256.5 c 0,197.44311 0.43648,183.66015 -6.25336,197.46548 -4.3018,8.87732 -15.90384,20.47936 -24.78116,24.78116 -13.81249,6.69331 0.009,6.26012 -197.42558,6.18755 -153.63697,-0.0565 -179.810102,-0.27287 -184.468287,-1.52516 z M 307.5,386.41237 c 16.16621,-1.91901 23.00825,-3.46718 32.25919,-7.29939 15.17003,-6.2842 38.11174,-21.63359 61.17646,-40.93075 C 415.37114,326.10474 441,302.20642 441,300.82316 c 0,-0.65919 -1.33155,-0.79594 -3.6022,-0.36996 -7.68948,1.44255 -48.89088,13.75535 -68.39058,20.43812 -11.27103,3.86272 -20.80445,6.70487 -21.18539,6.3159 -0.85,-0.86793 6.44368,-19.17716 12.21955,-30.67456 11.01636,-21.92911 22.61677,-37.20949 51.26877,-67.53266 9.09455,-9.625 16.19973,-17.84803 15.7893,-18.2734 -1.48614,-1.54021 -32.9254,6.23873 -45.66066,11.29771 -22.85867,9.08044 -36.83708,19.10618 -62.29108,44.67706 -8.99377,9.03506 -16.52371,16.25596 -16.73322,16.04646 -0.2095,-0.20951 -0.85697,-5.97597 -1.43882,-12.81437 -2.90418,-34.1325 -13.44038,-75.42779 -30.72773,-120.43346 -8.63735,-22.48638 -13.05706,-32.09088 -14.22829,-30.91965 -0.51332,0.51332 -3.19389,14.43023 -5.95684,30.92647 -13.70877,81.84862 -19.84792,132.50021 -18.37482,151.603 0.75202,9.75204 0.3504,9.72809 -6.36261,-0.37943 -8.49419,-12.78938 -26.65681,-34.88233 -65.78147,-80.01633 C 149.66806,209.32132 140.99699,200 140.27486,200 c -0.84835,0 -1.12973,0.7962 -0.79515,2.25 0.28479,1.2375 2.13833,10.125 4.11896,19.75 6.96197,33.83208 17.293,72.79968 25.27365,95.32968 3.44258,9.71866 3.62612,10.67032 2.05796,10.67032 -0.58835,0 -6.74221,-2.0562 -13.67526,-4.56934 -25.03455,-9.07469 -80.440814,-24.59811 -82.021454,-22.98032 -1.460693,1.49503 31.777254,32.04279 52.262884,48.03289 29.07532,22.69478 50.11656,33.66786 70.00355,36.50709 21.64157,3.08972 88.65308,3.95603 110,1.42205 z"
       id="path2998"
       inkscape:connector-curvature="0" />
    <path
       style="fill:#4e9a06"
       d="M 72.275746,483.48856 C 56.565261,480.07489 41.347447,467.85233 34.156575,452.87222 31.94618,448.2675 29.656699,441.82985 29.068838,438.56634 c -0.732455,-4.06623 -1.063373,-61.50238 -1.051474,-182.5 0.01469,-149.35666 0.23803,-177.607666 1.449292,-183.32361 4.35183,-20.536278 22.739796,-38.924244 43.276074,-43.276074 10.112535,-2.142941 356.40201,-2.142941 366.51454,0 20.53628,4.35183 38.92424,22.739796 43.27607,43.276074 1.21127,5.715944 1.43461,33.96695 1.4493,183.32361 0.0119,120.99762 -0.31902,178.43377 -1.05148,182.5 -3.80691,21.1341 -22.62156,40.50582 -43.67389,44.967 -9.77832,2.07212 -357.434307,2.02969 -366.981524,-0.0448 z m 239.916314,-97.4571 c 7.86937,-1.0139 17.23294,-2.84233 20.80794,-4.06318 24.07206,-8.22047 60.41699,-34.32784 97.2391,-69.84899 5.91849,-5.7094 10.7609,-10.82941 10.7609,-11.37781 0,-0.59334 -1.52888,-0.75262 -3.77565,-0.39335 -6.86197,1.09728 -42.35314,11.58651 -65.47248,19.35006 -12.51147,4.20139 -23.05987,7.32715 -23.44088,6.94613 C 347.32647,325.6598 355.21626,306.41009 361.69076,294 373.13315,272.06764 385.3832,256.2649 413.35163,227.35672 421.40823,219.02941 428,211.66642 428,210.99453 c 0,-3.82244 -43.55821,8.1789 -60.12301,16.56535 -15.60045,7.89821 -39.06132,27.05204 -55.65804,45.44012 -4.71599,5.225 -8.85918,9.62155 -9.20709,9.77012 -0.34792,0.14857 -1.15065,-5.70143 -1.78386,-13 C 299.03255,244.46428 293.37374,217.92237 283.47458,186.5 274.32503,157.45706 258.72449,118 256.39104,118 255.62597,118 255,118.12152 255,118.27004 c 0,0.14852 -2.67946,16.23602 -5.95436,35.75 -11.86513,70.70016 -17.30201,113.61827 -17.44755,137.729 -0.054,8.93697 -0.36804,16.24947 -0.69798,16.25 -0.32994,5.3e-4 -3.11041,-3.77148 -6.17881,-8.38225 -7.04569,-10.58727 -20.37745,-27.13968 -44.84394,-55.6772 C 150.72053,209.9313 140.98497,199 139.85357,199 c -1.32313,0 -0.74553,3.50554 4.77823,29 6.84674,31.60054 13.92736,58.61565 20.94857,79.9263 3.5202,10.68446 6.20797,19.6187 5.97281,19.85386 -0.23516,0.23516 -6.77764,-1.8821 -14.53885,-4.70501 C 134.64708,314.93971 82.196163,300 76.00118,300 c -3.148336,0 -1.964897,1.42559 12.49882,15.05627 37.20814,35.06514 71.08739,59.05659 94.56445,66.96544 11.02474,3.71397 25.42258,5.10438 57.88593,5.59011 16.74771,0.25059 30.69771,0.71615 31,1.03458 0.88582,0.93313 24.72846,-0.61619 40.24168,-2.61494 z"
       id="path2996"
       inkscape:connector-curvature="0" />
    <path
       style="fill:#4e9a06"
       d="M 74.456084,483.53983 C 52.159033,479.48911 33.434618,460.56612 29.411097,438.01715 27.42278,426.87405 27.432668,86.071301 29.421632,74.922181 33.503643,52.040506 52.040506,33.503643 74.922181,29.421632 c 11.19894,-1.997851 350.956699,-1.997851 362.155639,0 22.88167,4.082011 41.41854,22.618874 45.50055,45.500549 1.98896,11.14912 1.99885,351.951869 0.0105,363.094969 -4.06618,22.78807 -22.76003,41.50251 -45.51108,45.56122 -10.83717,1.93331 -351.967314,1.89705 -362.621736,-0.0385 z M 311.5,386.48236 c 21.12029,-2.68424 33.56917,-7.63503 55.63499,-22.12546 12.34519,-8.10698 26.00834,-18.74593 42.36501,-32.98796 20.52525,-17.87168 33.06327,-30.20567 31.89399,-31.37495 -1.67054,-1.67054 -51.06962,12.443 -79.07427,22.59188 C 350.41202,326.90122 348,327.55417 348,326.4623 c 0,-1.65088 7.52385,-19.60384 11.80647,-28.1719 11.75199,-23.51173 21.98182,-37.22811 49.33258,-66.14624 9.54852,-10.09571 17.97834,-19.20821 18.73292,-20.25 1.2748,-1.76 1.12262,-1.89416 -2.14853,-1.89416 -4.52131,0 -29.48846,6.26753 -40.62982,10.19935 -24.13266,8.51648 -46.65953,24.56911 -71.24019,50.76568 -5.69439,6.06873 -10.62329,11.03426 -10.95311,11.03451 -0.32982,2.5e-4 -0.89668,-4.53147 -1.25967,-10.0705 -2.40202,-36.65305 -16.75433,-89.59982 -38.33727,-141.42904 -4.49258,-10.78848 -6.6669,-14.46981 -7.84849,-13.28823 -0.8658,0.86581 -10.7552,60.41158 -15.90857,95.78823 -5.84434,40.12008 -7.67288,56.94113 -8.42467,77.5 l -0.62165,17 -5.2225,-7.66409 c -2.87238,-4.21526 -8.92492,-12.31526 -13.45008,-18 -18.8557,-23.68753 -69.41773,-82.18308 -71.44848,-82.65923 -2.02188,-0.47408 -1.77951,1.84377 2.20108,21.04991 5.64574,27.24041 16.69193,69.77266 23.14251,89.10794 3.24839,9.73689 5.71818,17.89142 5.48843,18.12118 -0.22976,0.22976 -4.08372,-0.96402 -8.56435,-2.65284 -17.76662,-6.6965 -48.31155,-15.95837 -73.34574,-22.24 C 81.491349,300.60329 74.853849,299 74.55087,299 c -4.48453,0 23.393226,26.59564 50.45297,48.1326 20.73787,16.50536 41.84094,29.48933 55.93004,34.41177 12.22542,4.27131 24.11125,5.59133 58.06612,6.44872 38.76629,0.9789 55.68494,0.62635 72.5,-1.51073 z"
       id="path2994"
       inkscape:connector-curvature="0" />
    <path
       style="fill:#4e9a06"
       d="M 70.112326,482.41945 C 56.749168,478.82565 41.716828,466.75162 35.250794,454.41855 28.57834,441.69175 29,455.04274 29,256.5 29,57.95726 28.57834,71.308247 35.250794,58.581455 39.375022,50.715055 50.715055,39.375022 58.581455,35.250794 71.30706,28.578962 58.009443,29 256,29 c 197.99056,0 184.69294,-0.421038 197.41855,6.250794 7.86639,4.124228 19.20643,15.464261 23.33066,23.330661 C 483.42166,71.308247 483,57.95726 483,256.5 c 0,198.54274 0.42166,185.19175 -6.25079,197.91855 -4.12423,7.86639 -15.46427,19.20643 -23.33066,23.33066 -12.73364,6.67604 0.6552,6.25755 -197.87865,6.18498 -153.922,-0.0563 -180.821475,-0.276 -185.427574,-1.51474 z M 313,386.49922 c 15.00817,-1.99492 24.31887,-4.93209 37,-11.67209 21.8991,-11.63934 46.97458,-30.9851 79.25,-61.14148 C 440.94449,302.75896 443.91312,299 440.84795,299 c -4.02446,0 -52.85835,14.46464 -74.66786,22.11668 -9.52595,3.34226 -17.52224,5.8745 -17.76954,5.6272 -0.80116,-0.80116 8.54369,-22.95419 14.18735,-33.63273 11.10467,-21.01145 22.92906,-36.1363 52.8443,-67.59432 14.79304,-15.55593 15.42686,-16.98144 6.83699,-15.37668 -46.8329,8.74934 -73.39554,23.68881 -109.01095,61.31039 -6.35805,6.71619 -10.39658,10.2859 -10.66711,9.42878 -0.23945,-0.75863 -0.70889,-5.79734 -1.0432,-11.19713 C 300.20479,247.82605 292.82432,214.08563 282.26872,181.5 273.0526,153.04938 258.61195,117 256.43133,117 c -1.3982,0 -1.9614,2.4018 -5.86231,25 -11.44983,66.32959 -18.44173,119.2259 -19.41906,146.91246 L 230.5,307.32491 225.87088,300.35623 C 220.35825,292.0575 205.86686,273.80757 189.42845,254.46195 163.40436,223.83538 140.65623,198 139.71353,198 c -1.67001,0 -0.20278,9.1959 5.66564,35.50961 6.94812,31.15503 14.00353,57.59311 20.65445,77.39648 2.81996,8.39653 4.89908,15.49454 4.62026,15.77336 -0.27881,0.27881 -7.6275,-1.95837 -16.33041,-4.97152 C 131.53073,313.81654 79.940113,299 75.255364,299 c -2.952758,0 -0.661181,3.27285 8.494636,12.1321 29.1935,28.24791 62.51132,53.89425 84.31261,64.89951 18.45797,9.31755 27.87651,10.92886 69.93739,11.96477 39.90507,0.98282 59.2475,0.5967 75,-1.49716 z"
       id="path2992"
       inkscape:connector-curvature="0" />
    <path
       style="fill:#4e9a06"
       d="m 70.608062,482.47798 c -19.16865,-5.26314 -35.004481,-21.2531 -40.132718,-40.52332 -2.182093,-8.19959 -2.182093,-362.709734 0,-370.909317 5.190853,-19.505511 21.064488,-35.379146 40.569999,-40.569999 8.199383,-2.182039 361.709927,-2.182039 369.909317,0 19.50551,5.190853 35.37914,21.064488 40.57,40.569999 2.18209,8.199583 2.18209,362.709727 0,370.909317 -5.19086,19.50551 -21.06449,35.37914 -40.57,40.57 -7.83761,2.08576 -362.743054,2.04103 -370.346598,-0.0467 z M 314,386.63611 c 6.325,-0.94312 14.425,-2.66058 18,-3.81658 23.86471,-7.71678 57.82573,-31.75108 96.75,-68.47022 C 441.26757,302.54088 443.97737,299 440.49667,299 c -5.71252,0 -73.75917,20.84049 -89.74667,27.4865 -2.74928,1.14288 -2.21351,-1.47339 2.82538,-13.79674 11.90268,-29.1098 25.93083,-49.26548 56.82074,-81.64023 19.42517,-20.35892 19.08921,-19.9642 17.95654,-21.09687 -1.44387,-1.44387 -24.62469,3.70789 -40.36686,8.97122 -24.91447,8.33005 -41.90414,19.79841 -68.25255,46.07178 -13.96545,13.92568 -16.83702,16.36693 -17.18729,14.61167 -0.23129,-1.15903 -0.68248,-6.48985 -1.00265,-11.84626 -1.98308,-33.17703 -17.29211,-88.15337 -38.5918,-138.58721 -4.91731,-11.64331 -7.12353,-14.39307 -8.36338,-10.42386 -1.09352,3.50078 -11.71295,68.45411 -15.57272,95.25 -5.80788,40.32034 -8.0141,61.72251 -8.01479,77.75 -3.4e-4,7.8375 -0.33812,14.23444 -0.75062,14.21542 -0.4125,-0.019 -3.55072,-4.18153 -6.97382,-9.25 C 219.85308,291.64694 212.06539,281.425 205.97021,274 c -13.49316,-16.43703 -63.69416,-74.71136 -65.11994,-75.59254 -2.74078,-1.69389 -2.61579,2.17411 0.56966,17.6292 7.73837,37.54488 16.97453,73.19049 25.14563,97.04587 2.48168,7.24521 4.28505,13.40019 4.0075,13.67775 -0.27756,0.27755 -5.35754,-1.29215 -11.28885,-3.48821 -27.65283,-10.23846 -83.275438,-25.68084 -85.280143,-23.67614 -0.755977,0.75598 2.369579,4.39528 10.722997,12.48553 34.765516,33.67025 69.814026,59.46183 93.559366,68.84871 15.38505,6.08194 33.48605,7.61126 88.71357,7.49527 28.09411,-0.059 37.89909,-0.43228 47,-1.78933 z"
       id="path2990"
       inkscape:connector-curvature="0" />
    <path
       style="fill:#4e9a06"
       d="m 72.275746,482.48856 c -19.808923,-4.3042 -37.574747,-22.24943 -41.80909,-42.23129 -2.143007,-10.11285 -2.143007,-357.401695 0,-367.51454 4.311225,-20.344663 21.931411,-37.964849 42.276074,-42.276074 10.112535,-2.142941 356.40201,-2.142941 366.51454,0 20.34466,4.311225 37.96485,21.931411 42.27607,42.276074 2.14301,10.112845 2.14301,357.40169 0,367.51454 -4.28591,20.2252 -22.05087,37.99016 -42.27607,42.27607 -9.77832,2.07212 -357.434307,2.02969 -366.981524,-0.0448 z M 311.12382,386.95397 c 21.33176,-2.60224 31.40478,-6.32277 51.65442,-19.0789 11.86773,-7.47599 26.42561,-18.44898 42.19943,-31.80777 C 418.50111,324.61434 443,301.29569 443,299.8767 443,299.39451 441.8735,299 440.49667,299 c -5.172,0 -55.45045,14.71457 -77.17695,22.58672 C 356.62057,324.01403 350.62775,326 350.00234,326 c -1.39193,0 -0.88139,-1.79188 3.70393,-13 12.46118,-30.45945 26.68736,-50.37346 62.74307,-87.82868 9.85052,-10.23287 13.48553,-14.63645 12.71661,-15.40537 -2.34875,-2.34875 -35.42209,5.92766 -52.94387,13.2489 -18.7381,7.82946 -36.5326,21.01389 -58.89318,43.63556 l -14.17111,14.33657 -0.59705,-6.74349 C 300.5973,252.06701 297.73827,235.60051 292.01403,213.5 285.03,186.53558 275.17817,157.50712 263.86642,130.56292 258.81754,118.53666 257.44463,116 255.98454,116 c -1.3123,0 -1.74788,2.06322 -6.90621,32.71234 -13.23316,78.62728 -20.25795,135.46967 -18.66423,151.02526 0.35288,3.44432 0.42879,6.2624 0.16868,6.2624 -0.2601,0 -3.17206,-3.9375 -6.47103,-8.75 -7.66853,-11.18679 -25.33699,-32.68652 -55.75464,-67.84458 -29.44534,-34.03423 -28.32309,-32.83944 -29.6239,-31.53863 -2.81332,2.81332 17.90628,88.52321 28.6638,118.57229 1.95699,5.46649 3.40366,10.09359 3.21481,10.28243 -0.18884,0.18885 -5.69126,-1.64523 -12.22759,-4.07572 C 151.84791,320.2153 144.925,317.77701 143,317.22737 c -1.925,-0.54964 -10.25,-3.04219 -18.5,-5.539 C 104.51412,305.63977 78.954862,299 75.657131,299 74.034081,299 73,299.55013 73,300.4136 c 0,0.77748 6.622807,7.57353 14.71735,15.10232 39.46557,36.70722 70.99087,59.04594 94.74956,67.13924 11.83567,4.03177 27.1057,5.51964 60.93697,5.93754 16.99714,0.20995 31.14908,0.62693 31.44877,0.92661 0.83349,0.83349 18.86184,-0.44159 36.27117,-2.56534 z"
       id="path2988"
       inkscape:connector-curvature="0" />
    <path
       style="fill:#4e9a06"
       d="M 80,483.37336 C 55.594202,479.70504 38.793055,465.82995 31.717917,443.5 L 29.5,436.5 29.5,257 C 29.5,108.21594 29.734803,76.558843 30.87216,72 35.67491,52.749243 52.749243,35.67491 72,30.87216 c 8.18005,-2.040789 359.81995,-2.040789 368,0 C 459.25076,35.67491 476.32509,52.749243 481.12784,72 482.2652,76.558843 482.5,108.21594 482.5,257 l 0,179.5 -2.21792,7 c -4.62835,14.60761 -14.33934,26.52678 -27.18919,33.37174 -13.35093,7.11189 2.53006,6.56006 -193.59289,6.72686 C 162.15,483.6814 81.375,483.58 80,483.37336 z m 231,-95.86723 c 6.875,-0.87465 15.65,-2.5011 19.5,-3.61433 20.16272,-5.83006 48.59826,-24.43633 81.47621,-53.31245 C 437.64635,308.03372 446.78367,298 441.64497,298 c -4.34621,0 -56.37489,15.41167 -79.17844,23.45383 -7.08986,2.5004 -13.00006,4.54617 -13.13378,4.54617 -0.75365,0 5.63803,-15.29217 11.07623,-26.5 11.56324,-23.83122 22.68908,-38.58972 53.90096,-71.5 8.60667,-9.075 15.65784,-17.0625 15.66927,-17.75 0.0355,-2.13612 -6.84624,-1.43261 -21.53172,2.20114 -24.8774,6.15562 -38.19575,11.49856 -52.94749,21.24105 -12.32603,8.14048 -24.70855,18.74779 -39.33836,33.69867 C 309.37553,274.32589 303.69969,280 303.54864,280 c -0.15104,0 -0.5916,-4.3875 -0.97901,-9.75 -2.0523,-28.40735 -11.76813,-68.72858 -26.08401,-108.25 -6.60411,-18.23179 -16.9774,-43.63326 -18.65881,-45.69056 -1.55221,-1.89921 -3.53773,-0.45935 -4.13843,3.00111 -14.36816,82.77066 -22.29942,139.85324 -23.5456,169.4615 l -0.64278,15.27206 -6,-8.42985 c -13.30166,-18.68848 -80.68954,-97.8345 -83.81194,-98.43582 -2.45354,-0.47251 -2.20441,3.24196 1.37681,20.52794 7.26372,35.06077 16.52679,70.83629 24.39585,94.22076 2.48509,7.38492 4.33778,13.6077 4.11709,13.82838 -0.22069,0.22069 -5.30278,-1.40237 -11.29354,-3.60679 C 143.4331,316.68394 114.28099,307.94281 92.205796,302.3354 67.940348,296.17163 67.698235,296.43582 83.5,311.8352 c 31.00342,30.21391 64.61911,55.71727 88,66.76332 16.54425,7.81615 26.55536,9.33715 68.5,10.4073 37.2147,0.94947 54.64249,0.58135 71,-1.49969 z"
       id="path2986"
       inkscape:connector-curvature="0" />
    <path
       style="fill:#4e9a06"
       d="M 74.5,481.98818 C 55.843791,478.21599 40.7967,465.16257 33.157531,446.12339 L 30.5,439.5 l 0,-183 0,-183 2.716504,-6.780068 C 39.793274,50.305101 50.333968,39.795003 66.876609,33.157531 L 73.5,30.5 l 182.5,0 182.5,0 6.78007,2.716504 c 16.41483,6.57677 26.92493,17.117464 33.5624,33.660105 L 481.5,73.5 l 0,183 0,183 -2.65753,6.62339 c -6.63747,16.54264 -17.14757,27.08334 -33.5624,33.66011 L 438.5,482.5 l -180,0.14848 c -99,0.0817 -181.8,-0.21547 -184,-0.6603 z M 311,387.95936 c 23.08855,-2.82036 35.06717,-7.60343 58.3476,-23.29822 20.08494,-13.5405 36.65711,-27.14325 61.45366,-50.44228 10.04523,-9.43857 13.22752,-13.01459 13,-14.60842 -0.24269,-1.70012 -0.88452,-2.04771 -3.30126,-1.78777 -7.08042,0.76155 -53.23486,14.31041 -75.85607,22.26792 -7.68448,2.70319 -14.08908,4.79759 -14.23245,4.65422 -0.57373,-0.57373 9.40319,-23.74824 13.4513,-31.24481 11.1937,-20.72931 19.96157,-32.04011 47.97316,-61.88676 10.26523,-10.93771 18.81659,-20.79188 19.00302,-21.89813 0.31787,-1.88619 -0.0245,-1.9691 -5.5,-1.33203 -8.30002,0.96569 -28.64198,6.09668 -40.62637,10.24745 -22.50104,7.79321 -40.17064,19.85544 -64.9387,44.33068 l -15.72611,15.54019 -0.4689,-4.0007 C 303.32099,272.30032 302.61061,265.775 302.00026,260 298.82584,229.9641 286.97681,186.47987 270.52764,144.5 260.98849,120.15519 258.47249,115 256.1301,115 c -1.09743,0 -2.23332,0.7875 -2.5242,1.75 -1.03877,3.43723 -12.55604,74.19767 -16.00569,98.33667 -5.3491,37.43052 -7.75188,60.05681 -7.9345,74.71682 C 229.51372,302.00534 229.37579,302.9184 228,300.82966 215.41152,281.71765 142.57387,196 138.92212,196 c -2.63115,0 -2.51101,2.07079 1.1433,19.70638 7.61268,36.73853 17.04654,73.37926 24.90228,96.71946 2.20767,6.55922 3.82831,12.11148 3.60142,12.33837 -0.22688,0.22689 -5.30555,-1.38063 -11.28592,-3.57226 -5.98036,-2.19164 -12.4281,-4.4301 -14.3283,-4.97436 -1.90019,-0.54426 -10.2049,-3.04009 -18.4549,-5.5463 -8.25,-2.5062 -23.06595,-6.62548 -32.924337,-9.15396 -16.31408,-4.18423 -18.065867,-4.4557 -19.499749,-3.02181 -1.433883,1.43388 -0.495986,2.6278 10.440066,13.28994 37.44496,36.50711 75.00114,63.52663 100.17423,72.06963 11.14748,3.78312 27.45184,5.3074 61.20811,5.72229 17.26907,0.21226 31.61563,0.60324 31.88125,0.86886 0.79594,0.79593 18.68861,-0.46745 35.22043,-2.48688 z"
       id="path2984"
       inkscape:connector-curvature="0" />
  </g>
</svg>
