<?xml version="1.0" encoding="UTF-8" standalone="no"?>
<!-- Created with Inkscape (http://www.inkscape.org/) -->

<svg
   xmlns:dc="http://purl.org/dc/elements/1.1/"
   xmlns:cc="http://creativecommons.org/ns#"
   xmlns:rdf="http://www.w3.org/1999/02/22-rdf-syntax-ns#"
   xmlns:svg="http://www.w3.org/2000/svg"
   xmlns="http://www.w3.org/2000/svg"
   xmlns:sodipodi="http://sodipodi.sourceforge.net/DTD/sodipodi-0.dtd"
   xmlns:inkscape="http://www.inkscape.org/namespaces/inkscape"
   id="svg2"
   version="1.1"
   inkscape:version="0.48.5 r10040"
   width="520"
   height="520"
   sodipodi:docname="anki.svg">
  <metadata
     id="metadata8">
    <rdf:RDF>
      <cc:Work
         rdf:about="">
        <dc:format>image/svg+xml</dc:format>
        <dc:type
           rdf:resource="http://purl.org/dc/dcmitype/StillImage" />
        <dc:title />
      </cc:Work>
    </rdf:RDF>
  </metadata>
  <defs
     id="defs6" />
  <sodipodi:namedview
     pagecolor="#ffffff"
     bordercolor="#666666"
     borderopacity="1"
     objecttolerance="10"
     gridtolerance="10"
     guidetolerance="10"
     inkscape:pageopacity="0"
     inkscape:pageshadow="2"
     inkscape:window-width="1072"
     inkscape:window-height="684"
     id="namedview4"
     showgrid="false"
     inkscape:zoom="2.5673415"
     inkscape:cx="-0.54981125"
     inkscape:cy="192.39015"
     inkscape:window-x="15"
     inkscape:window-y="39"
     inkscape:window-maximized="0"
     inkscape:current-layer="svg2"
     inkscape:snap-global="false" />
  <rect
     style="fill:#ffffff;fill-rule:evenodd;stroke:#000000;stroke-width:0;stroke-linecap:butt;stroke-linejoin:miter;stroke-miterlimit:4;stroke-opacity:1;stroke-dasharray:none"
     id="rect2991"
     width="452.29196"
     height="450.09006"
     x="33.934452"
     y="34.393002"
     ry="61.0308"
     transform="matrix(1,0,0.00488359,0.99998808,0,0)" />
  <g
     id="g2982"
     transform="matrix(1.0039502,0,0,0.97693713,-1.310851,5.1499063)">
    <path
       style="fill:#a3a3a3"
       d="m 144.25495,492.68335 c -0.23461,-0.2235 -14.71025,-0.59502 -32.16809,-0.82562 -18.854709,-0.24903 -31.546267,-0.77791 -31.26059,-1.30269 0.264513,-0.48588 4.015416,-0.73286 8.335339,-0.54883 l 7.854407,0.33462 0.534391,-5.14394 c 2.639363,-25.40591 3.560683,-67.14907 1.658787,-75.15616 -3.474112,-14.62623 -11.388653,-22.80952 -45.26111,-46.79804 -8.758629,-6.20287 -16.682248,-11.55293 -17.608042,-11.88903 -1.540836,-0.55937 -1.683263,-2.61016 -1.683263,-24.23714 0,-18.07228 0.282631,-23.70861 1.202331,-23.97726 0.661281,-0.19317 11.590466,-3.02937 24.287076,-6.30266 38.576269,-9.94531 49.497664,-14.02575 57.999644,-21.66977 8.36009,-7.51644 12.28095,-16.81702 25.31947,-60.05988 11.607,-38.49511 18.28519,-53.93252 23.66171,-54.69685 5.27634,-0.75008 16.9796,13.90157 38.2674,47.90802 26.52239,42.36853 32.13541,48.36398 49.26834,52.62495 5.61887,1.39742 12.78596,1.63155 52.20166,1.70538 40.58893,0.076 46.32657,0.27399 51.40463,1.77369 9.7337,2.87462 9.97819,3.68784 4.42858,14.73025 -4.03552,8.02975 -14.75465,22.66051 -35.34545,48.24377 -6.93639,8.6182 -15.04833,19.29404 -18.02654,23.72408 -14.695,21.85869 -14.35634,29.87384 3.4532,81.72919 9.7994,28.53252 12.78604,38.62855 14.58818,49.31382 l 1.26632,7.50836 9.94028,0.27571 9.94028,0.27572 -0.59423,-8.45157 c -0.79277,-11.27543 -3.79028,-22.49151 -14.59755,-54.62105 -9.67731,-28.77023 -12.97407,-40.80572 -12.98486,-47.40379 -0.012,-7.36054 5.84384,-16.37595 28.87486,-44.45426 28.98829,-35.34111 37.77581,-49.72872 39.11195,-64.0371 1.04186,-11.1571 -4.91439,-20.82115 -15.86029,-25.73338 -11.30935,-5.07533 -19.42705,-5.76947 -68.48496,-5.85607 -39.07105,-0.069 -45.15993,-0.27604 -48.15282,-1.63757 -6.14537,-2.79564 -12.50422,-11.41538 -34.32904,-46.53461 -28.59073,-46.00654 -42.41508,-58.53369 -59.95217,-54.3266 -14.31187,3.43337 -24.06156,19.70498 -36.00964,60.09779 -12.67757,42.85898 -17.2011,55.58399 -21.49331,60.46216 -2.64297,3.00379 -11.859414,7.10829 -23.838987,10.6166 -12.964199,3.79666 -41.451017,11.31345 -43.622335,11.51058 -1.274426,0.11571 -1.442797,-12.04783 -1.442797,-104.23129 l 0,-104.362287 2.223553,-6.435299 C 41.866958,51.785131 53.302031,38.695856 65.636686,32.459537 77.912461,26.252987 67.323941,26.56897 263.64432,26.5506 c 122.52607,-0.01147 180.27915,0.305641 184.19703,1.011375 9.53843,1.71817 20.87826,7.81965 28.18943,15.167543 7.87832,7.917891 13.81871,18.937838 15.43346,28.630431 0.81223,4.875448 1.03277,55.582201 0.8321,191.311661 l -0.27304,184.67796 -2.6224,7.18876 c -5.0684,13.89389 -14.3175,24.69254 -26.71446,31.19011 -14.15375,7.41833 0.91797,6.78033 -167.41878,7.08696 -82.82238,0.15086 -150.7781,0.0915 -151.01271,-0.13205 z m 58.8962,-5.65687 c 7.47306,-3.91481 11.43071,-3.88986 23.978,0.15112 l 9.23718,2.97494 27.7465,0 c 16.84774,0 27.38756,-0.34648 26.83272,-0.88209 -1.9867,-1.91781 -54.89527,-22.46767 -63.68917,-24.73707 -12.43442,-3.20891 -21.12489,-2.8402 -30.04452,1.27464 -9.04474,4.17258 -33.66525,21.3142 -33.66525,23.43888 0,0.53175 6.94344,0.90564 16.81856,0.90564 l 16.81858,0 5.9674,-3.12606 z M 414.63442,193.65784 c 4.60145,-3.10108 7.26787,-9.04872 11.13366,-24.83438 1.8696,-7.63436 4.07495,-14.62954 4.90079,-15.54484 0.82584,-0.9153 5.01313,-2.98197 9.30509,-4.59258 4.29197,-1.61062 10.7259,-4.03834 14.29763,-5.39491 3.86277,-1.46713 8.28448,-4.0882 10.91288,-6.46886 3.73383,-3.3819 4.49576,-4.68592 4.91499,-8.41182 0.90174,-8.01407 -3.0719,-12.6277 -19.43633,-22.56674 -15.819,-9.607771 -14.90535,-8.26094 -14.92824,-22.00608 -0.0348,-20.903293 -2.28579,-29.114725 -8.9258,-32.560583 -6.94558,-3.604432 -14.93035,0.08023 -30.4913,14.070535 -4.49671,4.042842 -9.23639,7.636883 -10.53261,7.986755 -1.30739,0.352884 -4.94781,-0.0922 -8.17585,-0.99961 -27.8229,-7.821017 -31.98715,-8.059974 -37.86988,-2.173098 -3.43188,3.434305 -3.53729,3.749617 -3.50854,10.495666 0.0265,6.216916 0.61359,8.384041 5.53211,20.421095 3.02635,7.40636 5.50184,14.21021 5.50108,15.11967 -7.6e-4,0.90946 -3.28739,6.47165 -7.3036,12.36041 -9.51989,13.9585 -12.09807,19.20214 -12.27417,24.96393 -0.16582,5.42511 1.95069,8.90764 7.08809,11.66287 3.94712,2.11686 13.20321,2.34795 27.75719,0.69299 5.26165,-0.59831 10.60735,-0.82663 11.87931,-0.50739 1.45135,0.36426 4.78919,3.90397 8.96214,9.50415 8.12386,10.90236 13.46377,16.82793 17.27312,19.16755 3.9968,2.45475 10.0208,2.28907 13.98824,-0.38473 z m -15.91005,-25.04018 c -7.36264,-10.08652 -12.63041,-15.84569 -16.16606,-17.67404 -3.18251,-1.64574 -14.71666,-1.82277 -27.03245,-0.41493 -7.39359,0.84519 -10.18688,0.61995 -10.18688,-0.82142 0,-0.38573 3.10059,-5.20886 6.89019,-10.71806 9.41159,-13.68226 11.78152,-19.03278 11.0745,-25.00248 -0.30392,-2.56622 -2.73896,-9.96319 -5.41118,-16.437706 -2.67223,-6.474519 -4.85859,-12.332839 -4.85859,-13.018489 0,-1.876394 2.6186,-1.539909 13.58148,1.745199 5.49131,1.645509 12.65285,3.216769 15.91454,3.491688 7.72649,0.651245 11.63428,-1.245229 22.44465,-10.892529 9.56189,-8.53313 12.10409,-10.379805 13.28473,-9.650129 0.47578,0.294057 1.09963,7.14858 1.38629,15.232273 0.28668,8.083693 1.02507,15.996143 1.64089,17.583213 1.85557,4.78225 6.67216,8.94219 18.60305,16.06689 7.65422,4.57082 11.25557,7.2609 11.06144,8.2625 -0.18014,0.92942 -4.42673,2.98758 -11.34928,5.50055 -22.4447,8.1477 -23.50148,9.26324 -28.31715,29.89196 -3.44016,14.73651 -3.4718,14.82616 -5.21982,14.79089 -0.86409,-0.0174 -4.16725,-3.58836 -7.34035,-7.93538 z M 69.80766,488.96871 c -4.376171,-1.58862 -13.065684,-6.93405 -17.551358,-10.79688 -5.781071,-4.97836 -13.00232,-16.27732 -15.733869,-24.61849 -2.304789,-7.038 -2.346586,-7.76014 -2.346586,-40.54264 0,-23.82368 0.315827,-33.69275 1.103423,-34.48012 0.82987,-0.82964 4.168284,1.09834 13.466101,7.7768 21.400319,15.3715 27.842218,21.45701 29.284184,27.6641 1.206134,5.19192 1.079217,33.24438 -0.254366,56.22237 -1.287428,22.18276 -0.925979,21.33103 -7.967529,18.77486 z"
       id="path2986"
       inkscape:connector-curvature="0" />
    <path
       style="fill:#166fa8"
       d="m 99.6525,490.2656 c -0.326803,-0.52878 0.06483,-10.9597 0.8703,-23.17983 1.68852,-25.61725 1.89131,-48.48361 0.49526,-55.84492 C 97.989955,395.2737 87.34034,384.44712 47.161016,356.48891 41.606249,352.6237 36.743439,348.9785 36.354771,348.38846 35.966103,347.79844 35.641473,337.89071 35.633373,326.37132 l -0.01473,-20.94436 2.416036,-0.91858 c 1.328819,-0.50521 12.423842,-3.54963 24.655608,-6.76538 37.614963,-9.88902 47.637743,-13.72062 56.327363,-21.53334 8.47323,-7.61816 13.53521,-19.48102 25.33499,-59.37308 4.27571,-14.45508 9.51087,-30.72425 11.63368,-36.15371 3.84673,-9.83869 8.89233,-18.55051 11.15792,-19.26553 1.80782,-0.57054 11.75391,9.39844 17.91704,17.95829 3.01238,4.18382 11.67418,17.49514 19.24844,29.5807 21.98909,35.08597 28.71709,43.70098 38.1297,48.82397 10.50826,5.71931 10.86851,5.75522 59.61566,5.94232 53.42221,0.20505 62.52119,1.17316 62.52119,6.65207 0,6.65658 -9.61066,20.69926 -38.50437,56.2609 -12.74809,15.69004 -21.35991,28.05413 -25.22639,36.21788 -2.9313,6.18917 -3.11837,7.22123 -3.11149,17.1656 0.009,13.06631 0.87637,16.45427 14.8973,58.19279 10.82088,32.21237 14.75389,47.7937 12.82237,50.79799 -0.90537,1.40817 -2.67698,1.58949 -13.35118,1.36636 l -12.3073,-0.25726 -30.1946,-12.02925 c -38.60915,-15.38154 -44.06602,-17.03949 -56.51798,-17.17182 -8.89548,-0.0946 -10.09733,0.1246 -15.9854,2.91443 -7.59541,3.5988 -20.61855,12.23246 -31.17978,20.67058 l -7.6611,6.12097 -29.00483,0.30158 c -18.61994,0.1936 -29.21758,-0.0426 -29.59902,-0.65984 z M 399.86563,168.09772 c -14.87374,-20.65781 -17.40939,-21.83964 -41.30417,-19.25127 -5.68875,0.61622 -10.63635,0.82724 -10.99466,0.46894 -0.35831,-0.35831 2.39752,-5.08205 6.12407,-10.4972 13.14121,-19.09589 13.51264,-21.54692 6.06409,-40.017225 -4.18478,-10.377095 -5.48806,-14.555203 -4.5402,-14.555203 0.14142,0 5.4437,1.553472 11.78284,3.452159 20.12069,6.026514 23.96423,5.183919 39.87891,-8.742413 4.83645,-4.232203 9.30874,-7.694915 9.93839,-7.694915 0.81057,0 1.30095,4.212743 1.6795,14.427966 0.76227,20.570801 1.68461,22.058311 20.67954,33.351261 5.52552,3.28507 10.0464,6.46425 10.0464,7.06486 0,0.60061 -3.57092,2.31925 -7.93538,3.8192 -24.08864,8.27859 -26.22226,10.47627 -31.41587,32.35922 -1.51131,6.36782 -3.15416,11.98417 -3.65076,12.48077 -0.56266,0.56266 -2.95669,-1.94951 -6.3527,-6.66615 z"
       id="path2984"
       inkscape:connector-curvature="0" />
  </g>
</svg>
