<?xml version="1.0" encoding="UTF-8" standalone="no"?>
<!-- Created with Inkscape (http://www.inkscape.org/) -->

<svg
   xmlns:dc="http://purl.org/dc/elements/1.1/"
   xmlns:cc="http://creativecommons.org/ns#"
   xmlns:rdf="http://www.w3.org/1999/02/22-rdf-syntax-ns#"
   xmlns:svg="http://www.w3.org/2000/svg"
   xmlns="http://www.w3.org/2000/svg"
   xmlns:sodipodi="http://sodipodi.sourceforge.net/DTD/sodipodi-0.dtd"
   xmlns:inkscape="http://www.inkscape.org/namespaces/inkscape"
   id="svg2"
   version="1.1"
   inkscape:version="0.48.5 r10040"
   width="512"
   height="512"
   sodipodi:docname="brutalchess.svg">
  <metadata
     id="metadata8">
    <rdf:RDF>
      <cc:Work
         rdf:about="">
        <dc:format>image/svg+xml</dc:format>
        <dc:type
           rdf:resource="http://purl.org/dc/dcmitype/StillImage" />
        <dc:title />
      </cc:Work>
    </rdf:RDF>
  </metadata>
  <defs
     id="defs6" />
  <sodipodi:namedview
     pagecolor="#ffffff"
     bordercolor="#666666"
     borderopacity="1"
     objecttolerance="10"
     gridtolerance="10"
     guidetolerance="10"
     inkscape:pageopacity="0"
     inkscape:pageshadow="2"
     inkscape:window-width="1045"
     inkscape:window-height="686"
     id="namedview4"
     showgrid="false"
     inkscape:zoom="0.921875"
     inkscape:cx="67.012075"
     inkscape:cy="273.21399"
     inkscape:window-x="15"
     inkscape:window-y="39"
     inkscape:window-maximized="0"
     inkscape:current-layer="svg2" />
  <g
     id="g2982"
     transform="translate(-3.2542354,-0.91525369)">
    <path
       style="fill:#f6c6b2"
       d="M 69,483.11767 C 51.971518,477.58901 39.704664,467.26285 31.974827,451.95013 25.532149,439.18726 25.952667,453.85067 26.239426,251.95772 L 26.5,68.5 29.145387,62.22121 C 36.811141,44.026649 47.100267,33.669368 64.697765,26.433332 L 70.5,24.047471 l 186.5,0 186.5,0 5.80224,2.385861 c 17.59749,7.236036 27.88662,17.593317 35.55237,35.787878 L 487.5,68.5 l 0,185.5 0,185.5 -2.64539,6.27879 c -7.72796,18.34222 -17.7336,28.34786 -36.07582,36.07582 L 442.5,484.5 l -184,0.20168 C 84.265513,484.89266 74.208096,484.80859 69,483.11767 z m 228.2613,-83.03306 c 21.42127,-4.67498 40.50265,-12.70915 58.24176,-24.52257 10.82903,-7.21163 27.35654,-21.80916 33.55844,-29.63969 l 3.11376,-3.93145 -0.72429,-19.98226 -0.7243,-19.98227 -6.37696,5.96534 C 374.25062,317.43891 358.87727,328 355.22445,328 c -2.06383,0 -27.2281,-33.04533 -27.21762,-35.74176 0.004,-0.96703 1.59307,-2.83855 3.5318,-4.15893 5.90346,-4.02057 14.62131,-14.21655 17.60232,-20.58681 1.55133,-3.31512 3.20486,-8.83723 3.6745,-12.27134 0.46965,-3.43411 1.0408,-6.42325 1.26923,-6.64253 0.22842,-0.21928 10.99032,-7.00487 23.91532,-15.07908 12.925,-8.07422 24.12937,-15.28965 24.8986,-16.03429 1.19134,-1.15326 -0.58171,-4.99438 -11.96445,-25.91958 C 383.58447,178.05456 377.25528,167 376.86928,167 c -0.38599,0 -8.46786,12.375 -17.9597,27.5 -10.73338,17.10337 -17.85486,27.5 -18.83693,27.5 -0.86848,0 -3.82761,-1.61358 -6.57585,-3.58573 C 316.45788,206.18704 293.9832,199.83583 267,199.62266 c -8.73754,-0.069 -19.32612,0.46914 -24.26971,1.23353 -10.10277,1.5621 -10.79414,1.28346 -12.64023,-5.09431 -2.69801,-9.32098 -7.59754,-21.75687 -12.31664,-31.26188 -7.89524,-15.90225 -15.89516,-25.94399 -25.29632,-31.75272 -3.58636,-2.21592 -4.15778,-3.12381 -5.26581,-8.36647 C 185.51638,116.36137 182.50195,110 180.39672,110 c -1.69179,0 -9.62389,7.6069 -14.39672,13.80647 -1.93041,2.50747 -3.86701,3.58885 -8.5,4.7463 -12.54614,3.13437 -26.77322,11.47655 -39.54244,23.18604 -13.93327,12.77696 -15.34321,26.72217 -4.18941,41.43607 6.37001,8.40319 12.79047,11.82512 22.18711,11.82512 3.69978,0 8.9359,-0.69321 11.63581,-1.54047 13.27472,-4.16575 22.42668,-3.60401 26.84575,1.64775 4.96872,5.90499 4.3952,10.14272 -3.87332,28.62007 -5.03316,11.24743 -6.66575,24.47461 -4.1449,33.58176 2.90081,10.47983 9.97703,19.40328 21.8314,27.53045 2.6125,1.79109 4.7413,4.0224 4.73067,4.95848 -0.0319,2.80921 -11.71315,30.62956 -13.27456,31.61503 -2.89349,1.8262 -23.79601,-11.23413 -36.04785,-22.52343 L 136,301.83302 l 0,11.42987 c 0,6.28642 -0.28862,15.49599 -0.64138,20.46571 l -0.64139,9.03585 11.89139,11.87203 c 25.90284,25.86069 55.52281,41.10529 91.01899,46.84504 13.49871,2.18274 46.80641,1.40252 59.63369,-1.39691 z m -59.6187,-52.1438 c -12.64085,-1.46796 -20.5232,-3.09202 -21.661,-4.46298 -0.84255,-1.01522 -0.69936,-5.49531 0.56475,-17.66895 0.93143,-8.96988 2.0387,-16.68554 2.46061,-17.14591 0.4219,-0.46036 5.25913,-0.12286 10.7494,0.75 11.18107,1.77762 33.05513,2.06254 43.74364,0.5698 3.85,-0.53768 12.06032,-2.19595 18.24516,-3.68503 7.04938,-1.69722 11.56851,-2.35115 12.11176,-1.75258 0.47662,0.52516 3.68034,8.81032 7.11938,18.41147 4.47145,12.48344 5.98038,17.88849 5.29658,18.97254 -1.10513,1.752 -13.29369,4.40578 -27.52236,5.99237 -10.89883,1.21529 -40.71199,1.22653 -51.10792,0.0193 z M 146.45455,164.54545 c -6.55536,-6.55535 1.25661,-17.33177 9.48098,-13.07879 5.04965,2.61128 5.79061,9.3815 1.45378,13.28334 -3.3326,2.99833 -7.81575,2.91447 -10.93476,-0.20455 z"
       id="path2988"
       inkscape:connector-curvature="0" />
    <path
       style="fill:#ee916c"
       d="M 70.899488,482.55774 C 49.656107,476.67375 32.499693,458.82897 28.060559,438 27.182295,433.87908 26.965061,386.99051 27.194191,251 L 27.5,69.5 29.738336,63.567845 C 36.269082,46.259721 49.699024,32.820601 66.292862,26.988336 71.860605,25.031432 74.875334,25 257,25 c 182.12467,0 185.13939,0.03143 190.70714,1.988336 16.59384,5.832265 30.02378,19.271385 36.55452,36.579509 L 486.5,69.5 l 0,184.5 0,184.5 -2.23834,5.93216 c -6.54244,17.33911 -19.49039,30.28706 -36.8295,36.8295 L 441.5,483.5 l -183,0.166 C 112.90701,483.79806 74.55961,483.57152 70.899488,482.55774 z M 292.61062,401.95936 c 36.51797,-6.17163 73.59283,-26.86387 95.67485,-53.39811 l 5.01515,-6.02632 -0.67345,-20.95727 c -0.37039,-11.5265 -0.88021,-21.16404 -1.13293,-21.41675 -0.25271,-0.25272 -4.10562,3.02402 -8.56202,7.28163 C 375.35844,314.67849 358.00651,327 355.39017,327 354.17271,327 329,293.9824 329,292.38553 c 0,-0.50153 2.50225,-2.86615 5.56055,-5.25472 10.5686,-8.25418 17.95405,-19.96439 19.11204,-30.30363 0.32815,-2.92995 0.8846,-5.87744 1.23655,-6.54997 0.35195,-0.67254 11.65388,-8.14595 25.11539,-16.60759 13.46151,-8.46163 24.61821,-16.10956 24.79267,-16.9954 0.43878,-2.22796 -26.77549,-51.85398 -28.18138,-51.38957 -0.6247,0.20636 -8.85264,12.69901 -18.28431,27.76144 -9.43167,15.06243 -17.64444,27.55155 -18.25062,27.75361 -0.60617,0.20206 -2.78935,-0.96006 -4.85151,-2.58248 -19.62868,-15.44306 -56.21434,-23.15958 -89.13766,-18.80062 -6.81355,0.9021 -12.5379,1.49055 -12.72078,1.30767 -0.18288,-0.18288 -2.18162,-5.70816 -4.44165,-12.27839 -9.54914,-27.76077 -21.54446,-47.33636 -34.12196,-55.68483 -5.00755,-3.32382 -5.45991,-3.96137 -6.67893,-9.41317 -1.46134,-6.53554 -5.06103,-14.56657 -6.76108,-15.08421 -1.9223,-0.58531 -10.88445,7.27758 -14.22035,12.47614 -3.00982,4.69039 -3.58693,5.07644 -9.92813,6.64129 -13.28569,3.27857 -28.14446,12.06437 -40.42901,23.90516 -13.84362,13.34353 -15.30956,26.62984 -4.61966,41.86934 9.16612,13.06721 20.17545,16.19862 37.94896,10.79394 7.13574,-2.16989 16.4796,-2.53601 20.29979,-0.79541 6.84149,3.11719 7.66884,11.71035 2.17736,22.61497 -6.2725,12.45551 -7.85325,18.53419 -7.99155,30.7309 -0.1175,10.36264 0.0547,11.37662 2.97265,17.5 3.78946,7.95236 10.24968,15.19405 18.28778,20.5 3.33282,2.2 6.07209,4.46601 6.08726,5.03557 0.0385,1.44738 -10.9427,28.69344 -12.16479,30.18261 -2.17799,2.65398 -23.68912,-10.76243 -35.78561,-22.31936 -4.43123,-4.23357 -8.23196,-7.51772 -8.44607,-7.29811 -0.21411,0.21961 -0.71422,9.85794 -1.11135,21.41851 l -0.72206,21.01922 5.75253,6.73864 c 3.16389,3.70625 9.37508,9.88953 13.80265,13.74061 38.78399,33.73422 88.27258,47.5676 139.3129,38.94167 z M 238.6426,346.94081 c -12.22724,-1.41993 -20.51,-3.07611 -21.5299,-4.30502 -1.04536,-1.25958 1.49247,-31.46421 2.75995,-32.84838 0.35889,-0.39192 4.69686,-0.0561 9.63994,0.7462 10.51506,1.70674 33.97949,1.9202 45.16505,0.41088 4.3023,-0.58053 12.24792,-2.20747 17.65693,-3.61543 5.47128,-1.42416 10.19452,-2.17596 10.64588,-1.69449 0.44622,0.47599 3.55928,8.49824 6.91791,17.82723 4.84157,13.44801 5.84714,17.2026 4.85412,18.12415 -1.46274,1.35748 -15.38892,4.03073 -28.25248,5.42332 -10.43444,1.12961 -37.87869,1.09035 -47.8574,-0.0685 z M 147.45455,163.54545 C 144.48154,160.57245 144.29727,156.70273 147,154 c 2.55355,-2.55355 8.10588,-2.64547 10.34501,-0.17126 2.36884,2.61754 2.10243,7.67649 -0.53357,10.1323 -2.92552,2.72554 -6.3687,2.57261 -9.35689,-0.41559 z"
       id="path2986"
       inkscape:connector-curvature="0" />
    <path
       style="fill:#800000;stroke:#800000;stroke-width:9.5;stroke-miterlimit:4;stroke-opacity:1;stroke-dasharray:none"
       d="M 71.547322,481.46249 C 51.20721,475.88255 34.917111,459.43729 29.485477,439 c -2.199855,-8.27726 -2.199855,-361.722736 0,-370 C 33.934631,52.25943 45.347262,38.310374 60.761442,30.773041 L 69.5,26.5 l 187.5,0 187.5,0 8.73856,4.273041 C 468.65274,38.310374 480.06537,52.25943 484.51452,69 c 2.19986,8.277264 2.19986,361.72274 0,370 -5.49355,20.67027 -21.84425,37.02097 -42.51452,42.51452 -7.93258,2.10825 -362.759642,2.05841 -370.452678,-0.052 z"
       id="path3759"
       inkscape:connector-curvature="0" />
    <path
       style="fill:#ffffff;stroke:#e85b23;stroke-opacity:1"
       d="m 293.34108,403.02717 c 35.95276,-6.14643 70.60434,-25.41716 94.93728,-52.79732 l 5.98086,-6.72985 -0.61535,-21.93574 c -0.35007,-12.47935 -1.04844,-22.36883 -1.61999,-22.94038 -0.67285,-0.67285 -3.89752,1.80948 -9.76426,7.51649 -8.30067,8.07468 -16.80743,14.53959 -23.98539,18.22825 l -3.22577,1.65768 -12.55745,-16.71607 -12.55746,-16.71608 4.77368,-4.04707 c 12.08212,-10.24309 19.0986,-21.31417 20.032,-31.60785 0.32888,-3.627 1.15041,-6.40182 2.14676,-7.25099 0.88771,-0.75658 12.34687,-8.05233 25.4648,-16.21279 13.11794,-8.16045 24.04547,-15.34451 24.28341,-15.96457 C 407.38958,215.54239 378.76616,164 376.91759,164 c -1.06697,0 -6.36911,7.52843 -14.96601,21.25 -7.3225,11.6875 -15.27187,24.31504 -17.66527,28.06119 l -4.35164,6.81119 -4.71734,-3.44161 C 314.15295,201.31288 279.09657,193.99244 246.5,198.1549 c -4.95,0.6321 -9.79652,1.19333 -10.77004,1.24718 -1.37494,0.0761 -2.52473,-2.13424 -5.15101,-9.90208 -9.6116,-28.42857 -22.34543,-49.11201 -35.87988,-58.27934 -3.5083,-2.37629 -4.25179,-3.58404 -5.87381,-9.54169 C 186.32467,112.49437 183.42853,107 181.08783,107 c -2.3797,0 -11.27557,7.95907 -15.086,13.49733 -2.60617,3.78795 -3.63239,4.41791 -9.66557,5.9334 -18.80121,4.72271 -43.5876,23.13943 -50.0034,37.15339 -5.19463,11.34657 -1.74267,23.93449 9.76081,35.59371 9.12454,9.24807 18.49503,10.80739 34.76167,5.78457 7.59494,-2.34517 15.15877,-2.52358 19.16468,-0.45205 6.48251,3.35224 6.6161,9.28806 0.51707,22.97463 -6.25467,14.03581 -7.84635,20.95916 -7.34991,31.96994 0.32019,7.10159 0.98205,10.29245 3.08031,14.85039 3.06195,6.65127 12.62951,17.13671 19.88468,21.79234 2.66631,1.71096 4.84783,3.28601 4.84783,3.50011 0,1.8863 -11.65892,28.71786 -12.64258,29.09532 -3.20221,1.22881 -22.43106,-11.67128 -33.61704,-22.55271 -6.28043,-6.10944 -9.06575,-8.215 -9.84124,-7.43951 -0.67393,0.67393 -1.2927,9.41586 -1.64163,23.1927 l -0.56001,22.11108 12.90125,12.80011 c 39.62694,39.31627 92.10424,55.73422 147.74233,46.22242 z"
       id="path3757"
       inkscape:connector-curvature="0" />
    <path
       style="fill:#800000;stroke:#e85b23;stroke-opacity:1"
       d="m 237,345.51153 c -16.50212,-2.20314 -19.5,-2.90098 -19.5,-4.53921 0,-2.72094 2.73537,-29.46583 3.07367,-30.05258 0.184,-0.31914 3.8427,-0.005 8.13044,0.69702 4.28774,0.70249 15.22089,1.2993 24.29589,1.32623 17.18761,0.051 28.84155,-1.31427 41.5,-4.8618 3.85,-1.07896 7.3065,-1.65112 7.68112,-1.27147 0.93461,0.94717 11.81888,31.10875 11.81888,32.75149 0,1.99046 -0.75343,2.23074 -14.12262,4.50389 -16.13953,2.7442 -47.71599,3.47058 -62.87738,1.44643 z"
       id="path3755"
       inkscape:connector-curvature="0" />
    <path
       style="fill:#800000;stroke:#e85b23;stroke-opacity:1"
       d="m 148.17431,162.68555 c -2.57796,-2.74412 -2.72007,-4.46135 -0.61761,-7.46304 1.84865,-2.63931 6.5394,-2.98355 8.87187,-0.65108 2.33247,2.33247 1.98823,7.02322 -0.65108,8.87187 -3.06898,2.1496 -5.0581,1.95136 -7.60318,-0.75775 z"
       id="path2984"
       inkscape:connector-curvature="0" />
  </g>
</svg>
