<?xml version="1.0" encoding="UTF-8" standalone="no"?>
<!-- Created with Inkscape (http://www.inkscape.org/) -->

<svg
   xmlns:dc="http://purl.org/dc/elements/1.1/"
   xmlns:cc="http://creativecommons.org/ns#"
   xmlns:rdf="http://www.w3.org/1999/02/22-rdf-syntax-ns#"
   xmlns:svg="http://www.w3.org/2000/svg"
   xmlns="http://www.w3.org/2000/svg"
   xmlns:sodipodi="http://sodipodi.sourceforge.net/DTD/sodipodi-0.dtd"
   xmlns:inkscape="http://www.inkscape.org/namespaces/inkscape"
   id="svg2"
   version="1.1"
   inkscape:version="0.48.5 r10040"
   width="513"
   height="512"
   sodipodi:docname="epiphany_alter.svg">
  <metadata
     id="metadata8">
    <rdf:RDF>
      <cc:Work
         rdf:about="">
        <dc:format>image/svg+xml</dc:format>
        <dc:type
           rdf:resource="http://purl.org/dc/dcmitype/StillImage" />
        <dc:title />
      </cc:Work>
    </rdf:RDF>
  </metadata>
  <defs
     id="defs6" />
  <sodipodi:namedview
     pagecolor="#ffffff"
     bordercolor="#666666"
     borderopacity="1"
     objecttolerance="10"
     gridtolerance="10"
     guidetolerance="10"
     inkscape:pageopacity="0"
     inkscape:pageshadow="2"
     inkscape:window-width="1041"
     inkscape:window-height="657"
     id="namedview4"
     showgrid="false"
     inkscape:zoom="0.4609375"
     inkscape:cx="45.030314"
     inkscape:cy="369.82089"
     inkscape:window-x="147"
     inkscape:window-y="39"
     inkscape:window-maximized="0"
     inkscape:current-layer="svg2" />
  <path
     sodipodi:type="arc"
     style="fill:#ffffff;fill-opacity:1;fill-rule:nonzero;stroke:none"
     id="path2984"
     sodipodi:cx="260.33899"
     sodipodi:cy="251.66101"
     sodipodi:rx="149.69492"
     sodipodi:ry="149.69492"
     d="m 410.03391,251.66101 a 149.69492,149.69492 0 1 1 -299.38984,0 149.69492,149.69492 0 1 1 299.38984,0 z"
     transform="matrix(1.2826087,0,0,1.2826087,-78.319824,-61.52837)" />
  <path
     inkscape:connector-curvature="0"
     id="path3001"
     d="M 232.5,489.23181 C 143.39914,479.86339 66.787581,418.23312 38.567271,333.22237 c -8.2054,-24.71794 -11.56727,-45.90047 -11.56727,-72.88338 0,-26.98291 3.36187,-48.16544 11.56727,-72.88339 C 59.943201,123.06282 109.14687,71.29337 173,46.01272 212.89778,30.21644 259.35901,26.24961 302.84736,34.92643 c 43.82585,8.74415 84.59912,30.71833 116.66072,62.87264 35.8267,35.93029 58.38861,81.63929 65.66837,133.03992 1.64415,11.60895 1.64415,47.39105 0,59 -9.5163,67.19227 -45.77694,125.33217 -101.17645,162.22517 -30.11191,20.05287 -64.17802,32.50676 -100.55938,36.76252 -13.7358,1.60676 -37.69956,1.79734 -50.94062,0.40513 z m 30.98098,-132.39282 c 3.04464,-13.2 5.95407,-24.97246 6.46539,-26.16102 0.64058,-1.48903 2.72073,-2.6817 6.68937,-3.83542 21.99948,-6.39542 40.53762,-24.9135 46.86243,-46.81172 1.20285,-4.16456 2.2894,-6.02577 3.8397,-6.57717 1.18917,-0.42296 13.75203,-3.4094 27.91746,-6.63652 14.16543,-3.22712 25.41543,-6.17476 25,-6.55032 -0.41543,-0.37556 -12.00533,-3.27408 -25.75533,-6.44117 -13.75,-3.16708 -25.90748,-6.09614 -27.01662,-6.50901 -1.40526,-0.52311 -2.7312,-2.983 -4.37372,-8.11417 -2.51324,-7.8512 -5.49449,-14.36525 -7.00045,-15.29598 -0.50565,-0.31252 -3.26433,2.59497 -6.13039,6.46107 l -5.21102,7.02928 2.2661,7.04758 c 8.43521,26.23355 -5.7605,55.00346 -32.07317,65.00149 -10.55316,4.00989 -26.53292,4.1878 -35.60691,0.39645 -3.10723,-1.29828 -3.32364,-1.20728 -9.76573,4.10646 -3.62345,2.98878 -6.58809,5.89025 -6.58809,6.4477 0,1.15498 6.08687,3.92199 14.37441,6.5344 5.21271,1.64317 5.72952,2.08031 6.69402,5.66218 1.15034,4.27204 11.89076,50.40322 11.99925,51.53799 0.22528,2.35633 2.54197,-6.17257 7.4133,-27.2921 z m -61.42362,-60.78142 c 0.85654,-1.22022 2.98352,-4.24358 4.72661,-6.71858 l 3.16926,-4.5 -2.44431,-6.70648 c -14.44854,-39.6427 21.96581,-79.54695 62.86252,-68.88718 l 6.87145,1.79105 6.37855,-5.41132 C 287.12965,202.64884 290,199.84734 290,199.39951 c 0,-0.91839 -6.91194,-3.97516 -14.70318,-6.50241 -2.9836,-0.96779 -5.41017,-2.40662 -5.6884,-3.37294 -0.26686,-0.92685 -3.05465,-12.93518 -6.19508,-26.68518 -3.14044,-13.75 -6.00794,-25.34227 -6.37222,-25.7606 -0.36428,-0.41834 -3.45744,11.24747 -6.87369,25.92401 -3.41626,14.67653 -6.68258,27.25238 -7.2585,27.94632 -0.57592,0.69394 -2.47853,1.55299 -4.22803,1.90901 -1.74949,0.35601 -7.4559,2.69471 -12.6809,5.1971 -8.06515,3.86261 -10.79128,5.85131 -18.04944,13.16699 -9.14568,9.21815 -13.83535,16.89997 -17.8842,29.29489 l -2.18131,6.67771 -14.69252,3.47643 c -8.08089,1.91203 -20.21019,4.72941 -26.95399,6.26083 -6.7438,1.53142 -11.9188,3.09684 -11.5,3.4787 0.4188,0.38186 11.78646,3.25498 25.26146,6.3847 13.475,3.12972 25.25776,5.90333 26.18391,6.16357 1.03532,0.29092 2.52707,3.05521 3.87293,7.17676 2.67519,8.19243 7.82231,18.21489 9.33249,18.17217 0.61087,-0.0173 1.81148,-1.02979 2.66803,-2.25 z"
     style="fill:#e5e5e5" />
  <path
     inkscape:connector-curvature="0"
     id="path2991"
     d="m 227.9668,451.81453 c -33.88909,-5.28501 -67.21602,-19.99591 -93.08146,-41.08724 -10.27916,-8.38189 -28.68384,-27.9498 -36.128529,-38.41197 -9.10578,-12.79652 -20.58377,-35.69465 -25.55645,-50.98408 -16.3883,-50.38894 -12.42219,-102.04871 11.4381,-148.98451 4.05633,-7.97926 10.40959,-18.7721 14.11835,-23.98408 7.444689,-10.46217 25.849369,-30.03008 36.128529,-38.41197 26.22665,-21.38587 59.46956,-35.94555 93.93252,-41.14044 13.10758,-1.97581 42.38591,-1.92259 56.01971,0.10184 77.65545,11.53072 140.73338,68.56186 159.58226,144.28436 4.45501,17.89731 5.08017,23.69862 5.08017,47.14255 0,23.47354 -0.62305,29.23838 -5.10618,47.24517 -18.82226,75.60095 -81.96654,132.66077 -159.55625,144.18174 -13.03273,1.93517 -44.60058,1.96216 -56.87077,0.0486 z m -65.76218,-80.67708 c 15.56246,-12.76085 34.97775,-28.68728 43.1451,-35.39207 l 14.84972,-12.19053 6.15028,2.78737 c 3.38265,1.53305 7.97161,3.27728 10.19768,3.87606 l 4.04739,1.08869 5.76311,25.26601 c 7.42706,32.56088 8.34125,35.76601 10.20142,35.76601 2.01924,0 1.78774,0.78254 9.40932,-31.80555 l 6.70927,-28.68727 6.91104,-2.55605 c 12.28786,-4.54465 19.50409,-9.04008 28.00628,-17.4468 8.94943,-8.84894 13.97823,-16.67126 17.99928,-27.99791 1.46566,-4.12853 2.79843,-7.50642 2.96172,-7.50642 0.57638,0 56.96821,-13.06092 58.69377,-13.59407 2.46221,-0.76076 2.17675,-3.26951 -0.5,-4.39414 -1.2375,-0.51993 -14.175,-3.69094 -28.75,-7.0467 -14.575,-3.35575 -27.27746,-6.32285 -28.2277,-6.59354 -1.01534,-0.28924 -2.17618,-2.21964 -2.81543,-4.68186 -0.59826,-2.30433 -2.89725,-7.88512 -5.10886,-12.40176 l -4.02113,-8.21206 31.47263,-43.89081 c 17.30995,-24.13994 31.97512,-44.8297 32.58926,-45.97724 1.20227,-2.24645 0.0415,-3.79093 -2.18666,-2.90955 -0.66116,0.26153 -20.2565,16.22777 -43.5452,35.48054 l -42.34308,35.00504 -7.15692,-3.28034 c -3.9363,-1.80419 -8.61121,-3.58951 -10.38868,-3.96738 -3.78774,-0.80524 -2.91972,1.8257 -10.73452,-32.53614 -6.07538,-26.71356 -6.78062,-29 -8.94488,-29 -1.79757,0 -1.21857,-2.0138 -9.03998,31.44176 -3.5928,15.36797 -6.87358,28.23265 -7.29061,28.58819 -0.41703,0.35554 -3.68324,1.66182 -7.25824,2.90284 -13.04761,4.52934 -26.65958,14.38643 -34.36822,24.8877 -4.52342,6.16214 -10.19315,17.55192 -11.68354,23.47081 -0.86695,3.44296 -1.77112,4.87527 -3.31984,5.259 -1.17062,0.29004 -14.41296,3.36694 -29.42743,6.83755 -15.01446,3.47062 -27.81696,6.82815 -28.45,7.46119 -0.76854,0.76854 -0.81817,1.48377 -0.14936,2.15258 0.55088,0.55088 13.57838,3.94121 28.95,7.53405 15.37161,3.59284 28.6552,6.74683 29.51907,7.00886 0.86672,0.2629 2.37054,3.0488 3.35535,6.21595 0.98157,3.15674 3.35459,8.75151 5.27339,12.43282 1.99068,3.81924 3.16481,7.21738 2.73437,7.91383 -0.41488,0.6713 -11.83821,16.55932 -25.38517,35.30671 -42.43318,58.7225 -41.01387,56.58617 -37.594,56.58617 0.80004,0 14.18754,-10.44069 29.75,-23.20154 z M 248.5,308.84751 c -0.55,-0.18347 -2.2375,-0.60651 -3.75,-0.9401 -1.5125,-0.33359 -2.75,-0.99217 -2.75,-1.46352 0,-0.47135 7.6089,-7.0496 16.90866,-14.61833 l 16.90866,-13.76133 13.31987,-18.56607 13.31986,-18.56608 1.71038,5.45345 c 2.15669,6.87647 2.2916,18.77092 0.29966,26.4185 -2.23238,8.57069 -6.15108,15.23717 -12.95798,22.04407 -9.91113,9.91113 -21.20642,14.56628 -34.96921,14.41194 -3.87194,-0.0434 -7.4899,-0.22906 -8.0399,-0.41253 z m -39.14509,-35.25852 c -2.44607,-8.26881 -2.2028,-20.19208 0.58275,-28.56267 7.62107,-22.90133 30.5976,-37.35597 53.55096,-33.68915 3.77074,0.60238 7.51355,1.46328 8.31735,1.91311 1.08842,0.60911 -3.00467,4.52724 -16.03503,15.3496 l -17.49651,14.53172 -12.88721,18.05228 c -7.08797,9.92875 -13.21215,18.07542 -13.60929,18.10369 -0.39713,0.0283 -1.48749,-2.53608 -2.42302,-5.69858 z m 47.14875,-13.27768 -15.91497,-16.02768 3.45565,-3.33467 c 2.59411,-2.50328 124.73946,-103.48631 131.72983,-108.90694 0.70079,-0.54342 1.50604,-0.75616 1.78944,-0.47276 0.43823,0.43822 -17.58686,25.85815 -91.84151,129.51973 -6.00811,8.3875 -11.45926,15.25 -12.11366,15.25 -0.6544,0 -8.35155,-7.21245 -17.10478,-16.02768 z"
     style="fill:#30aebb" />
  <path
     inkscape:connector-curvature="0"
     id="path2989"
     d="m 256.50366,260.31131 -15.91497,-16.02768 3.45565,-3.33467 c 2.59411,-2.50328 124.73946,-103.48631 131.72983,-108.90694 0.70079,-0.54342 1.50604,-0.75616 1.78944,-0.47276 0.43823,0.43822 -17.58686,25.85815 -91.84151,129.51973 -6.00811,8.3875 -11.45926,15.25 -12.11366,15.25 -0.6544,0 -8.35155,-7.21245 -17.10478,-16.02768 z"
     style="fill:#c94a45" />
</svg>
