<?xml version="1.0" encoding="UTF-8" standalone="no"?>
<svg
   xmlns:dc="http://purl.org/dc/elements/1.1/"
   xmlns:cc="http://creativecommons.org/ns#"
   xmlns:rdf="http://www.w3.org/1999/02/22-rdf-syntax-ns#"
   xmlns:svg="http://www.w3.org/2000/svg"
   xmlns="http://www.w3.org/2000/svg"
   xmlns:sodipodi="http://sodipodi.sourceforge.net/DTD/sodipodi-0.dtd"
   xmlns:inkscape="http://www.inkscape.org/namespaces/inkscape"
   viewBox="0 0 128 128"
   id="svg2"
   version="1.1"
   inkscape:version="0.48.5 r10040"
   width="100%"
   height="100%"
   sodipodi:docname="freedroid.svg">
  <metadata
     id="metadata89">
    <rdf:RDF>
      <cc:Work
         rdf:about="">
        <dc:format>image/svg+xml</dc:format>
        <dc:type
           rdf:resource="http://purl.org/dc/dcmitype/StillImage" />
        <dc:title></dc:title>
      </cc:Work>
    </rdf:RDF>
  </metadata>
  <sodipodi:namedview
     pagecolor="#ffffff"
     bordercolor="#666666"
     borderopacity="1"
     objecttolerance="10"
     gridtolerance="10"
     guidetolerance="10"
     inkscape:pageopacity="0"
     inkscape:pageshadow="2"
     inkscape:window-width="1150"
     inkscape:window-height="644"
     id="namedview87"
     showgrid="false"
     inkscape:zoom="3.4766083"
     inkscape:cx="86.192678"
     inkscape:cy="73.622262"
     inkscape:window-x="0"
     inkscape:window-y="24"
     inkscape:window-maximized="0"
     inkscape:current-layer="svg2" />
  <defs
     id="defs4">
    <linearGradient
       id="linearGradient3764"
       x1="1"
       x2="47"
       gradientUnits="userSpaceOnUse"
       gradientTransform="matrix(0,-1,1,0,-1.5e-6,47.999998)">
      <stop
         stop-color="#e4e4e4"
         stop-opacity="1"
         id="stop7" />
      <stop
         offset="1"
         stop-color="#eee"
         stop-opacity="1"
         id="stop9" />
    </linearGradient>
    <clipPath
       id="clipPath-775345417">
      <g
         transform="translate(0,-1004.3622)"
         id="g12">
        <path
           d="m -24,13 c 0,1.105 -0.672,2 -1.5,2 -0.828,0 -1.5,-0.895 -1.5,-2 0,-1.105 0.672,-2 1.5,-2 0.828,0 1.5,0.895 1.5,2 z"
           transform="matrix(15.333333,0,0,11.5,414.99999,878.8622)"
           id="path14"
           inkscape:connector-curvature="0"
           style="fill:#1890d0" />
      </g>
    </clipPath>
    <clipPath
       id="clipPath-782897998">
      <g
         transform="translate(0,-1004.3622)"
         id="g17">
        <path
           d="m -24,13 c 0,1.105 -0.672,2 -1.5,2 -0.828,0 -1.5,-0.895 -1.5,-2 0,-1.105 0.672,-2 1.5,-2 0.828,0 1.5,0.895 1.5,2 z"
           transform="matrix(15.333333,0,0,11.5,414.99999,878.8622)"
           id="path19"
           inkscape:connector-curvature="0"
           style="fill:#1890d0" />
      </g>
    </clipPath>
  </defs>
  <g
     id="g33"
     transform="translate(0,80)" />
  <g
     id="g61"
     transform="matrix(4.87111,0,0,4.87111,-53.068963,-53.306133)">
    <g
       clip-path="url(#clipPath-782897998)"
       id="g63">
      <!-- color: #eeeeee -->
      <g
         id="g65">
        <path
           d="m 12,12 0,11 6,0 0,2 -6,0 0,11 11,0 0,-6 2,0 0,6 11,0 0,-11 -6,0 0,-2 6,0 0,-11 -11,0 0,6 -2,0 0,-6 m -11,0"
           id="path67"
           inkscape:connector-curvature="0"
           style="fill:#f4de67;fill-opacity:1;fill-rule:nonzero;stroke:none" />
        <path
           d="m 13,35 0,-9 6,0 0,-4 -6,0 0,-9 9,0 0,6 4,0 0,-6 9,0 0,9 -6,0 0,4 6,0 0,9 -9,0 0,-6 -4,0 0,6 m -9,0"
           id="path69"
           inkscape:connector-curvature="0"
           style="fill:#ff4c4c;fill-opacity:1;fill-rule:nonzero;stroke:none" />
        <path
           d="m 14,14 0,7 6,0 0,6 -6,0 0,7 7,0 0,-6 6,0 0,6 7,0 0,-7 -6,0 0,-6 6,0 0,-7 -7,0 0,6 -6,0 0,-6 m -7,0"
           id="path71"
           inkscape:connector-curvature="0"
           style="fill:#f4de67;fill-opacity:1;fill-rule:nonzero;stroke:none" />
        <path
           d="m 15,28 5,0 0,5 -5,0 m 0,-5"
           id="path73"
           inkscape:connector-curvature="0"
           style="fill:#ff4c4c;fill-opacity:1;fill-rule:nonzero;stroke:none" />
        <path
           d="m 28,28 5,0 0,5 -5,0 m 0,-5"
           id="path75"
           inkscape:connector-curvature="0"
           style="fill:#ff4c4c;fill-opacity:1;fill-rule:nonzero;stroke:none" />
        <path
           d="m 28,15 5,0 0,5 -5,0 m 0,-5"
           id="path77"
           inkscape:connector-curvature="0"
           style="fill:#ff4c4c;fill-opacity:1;fill-rule:nonzero;stroke:none" />
        <path
           d="m 15,15 5,0 0,5 -5,0 m 0,-5"
           id="path79"
           inkscape:connector-curvature="0"
           style="fill:#ff4c4c;fill-opacity:1;fill-rule:nonzero;stroke:none" />
        <path
           d="m 21,21 6,0 0,6 -6,0 m 0,-6"
           id="path81"
           inkscape:connector-curvature="0"
           style="fill:#ff4c4c;fill-opacity:1;fill-rule:nonzero;stroke:none" />
      </g>
    </g>
  </g>
</svg>
