<?xml version="1.0" encoding="UTF-8" standalone="no"?>
<!-- Created with Inkscape (http://www.inkscape.org/) -->

<svg
   xmlns:dc="http://purl.org/dc/elements/1.1/"
   xmlns:cc="http://creativecommons.org/ns#"
   xmlns:rdf="http://www.w3.org/1999/02/22-rdf-syntax-ns#"
   xmlns:svg="http://www.w3.org/2000/svg"
   xmlns="http://www.w3.org/2000/svg"
   xmlns:sodipodi="http://sodipodi.sourceforge.net/DTD/sodipodi-0.dtd"
   xmlns:inkscape="http://www.inkscape.org/namespaces/inkscape"
   id="svg2"
   version="1.1"
   inkscape:version="0.48.5 r10040"
   width="1024"
   height="1024"
   sodipodi:docname="gnome-xchat.svg">
  <metadata
     id="metadata8">
    <rdf:RDF>
      <cc:Work
         rdf:about="">
        <dc:format>image/svg+xml</dc:format>
        <dc:type
           rdf:resource="http://purl.org/dc/dcmitype/StillImage" />
        <dc:title />
      </cc:Work>
    </rdf:RDF>
  </metadata>
  <defs
     id="defs6" />
  <sodipodi:namedview
     pagecolor="#ffffff"
     bordercolor="#666666"
     borderopacity="1"
     objecttolerance="10"
     gridtolerance="10"
     guidetolerance="10"
     inkscape:pageopacity="0"
     inkscape:pageshadow="2"
     inkscape:window-width="1126"
     inkscape:window-height="670"
     id="namedview4"
     showgrid="false"
     inkscape:zoom="0.4609375"
     inkscape:cx="95.245223"
     inkscape:cy="494.12133"
     inkscape:window-x="15"
     inkscape:window-y="39"
     inkscape:window-maximized="0"
     inkscape:current-layer="svg2" />
  <path
     style="fill:#ff0000"
     d="M 134.74747,889.24748 C 86.389294,840.886 61.000004,814.80835 61.000004,813.50058 c 0,-1.30352 20.69654,-22.69307 59.746866,-61.74748 L 180.49375,692 l 36.50312,-0.004 c 42.03087,-0.005 44.66119,-0.38261 54.99114,-7.90507 8.02597,-5.84466 13.55235,-14.08384 16.03326,-23.90368 1.51945,-6.01421 4.05634,-5.37881 5.56003,1.39259 2.90416,13.07797 14.6676,25.08343 28.1536,28.73285 9.30821,2.51887 31.90649,2.35592 40.40976,-0.29138 11.88562,-3.70032 22.6283,-14.78305 26.29379,-27.12612 C 389.7462,658.49152 390,650.77222 390,615.40019 390,592.17 390.27314,572.45167 390.60699,571.58169 391.14314,570.1846 394.98186,570 423.5,570 c 28.51814,0 32.35686,0.1846 32.89301,1.58179 0.33385,0.86998 0.60699,20.35044 0.60699,43.2899 0,46.32872 0.28846,48.98557 6.34681,58.45629 3.48911,5.45436 11.17487,12.84773 15.90319,15.29819 1.5125,0.78385 2.75,2.20176 2.75,3.1509 C 482,694.29351 213.01513,963 210.49608,963 c -1.31682,0 -27.22032,-25.2209 -75.74861,-73.75252 z"
     id="path3017" />
  <path
     style="fill:#ff0000"
     d="M 671.99129,826.5792 C 596.95012,751.54776 535.40471,689.71412 535.2237,689.1711 c -0.181,-0.54301 2.52211,-3.84115 6.00692,-7.3292 7.07496,-7.08153 11.25275,-13.57108 12.28749,-19.08675 0.9591,-5.11243 2.84954,-6.49605 4.89179,-3.58032 0.87456,1.2486 1.5901,2.98403 1.5901,3.8565 0,2.23647 6.51403,12.8302 10.31461,16.77459 4.68617,4.86348 11.39232,8.79029 18.18539,10.6485 5.273,1.4424 12.24006,1.60518 57.5,1.34342 58.1207,-0.33613 57.20009,-0.22286 67.61913,-8.31967 4.86046,-3.77714 11.27333,-12.41325 12.80786,-17.24814 1.22754,-3.86764 4.25922,-2.72784 6.55622,2.46492 2.89658,6.5482 6.25153,10.66248 12.60812,15.46175 8.90163,6.7208 14.77743,7.8433 41.05626,7.8433 24.05662,0 30.52887,-0.92982 38.6019,-5.54564 2.33778,-1.33665 4.63882,-2.43569 5.11343,-2.44231 C 832.06647,683.98825 959,811.82916 959,813.56866 c 0,2.15392 -146.85289,149.37385 -149.03511,149.4076 -0.84431,0.0131 -62.93243,-61.36562 -137.9736,-136.39706 z"
     id="path3015" />
  <path
     style="fill:#b3b3b3"
     d="m 74.354544,668.40296 c -4.09603,-2.02038 -6.80397,-5.0863 -8.21602,-9.30218 -1.70287,-5.08416 -1.45826,-170.29454 0.25917,-175.04849 0.68504,-1.89624 2.94245,-4.82124 5.01647,-6.5 l 3.77093,-3.05229 92.157446,-0.24217 92.15746,-0.24216 3.90598,2.24216 c 7.26844,4.17233 8.049,6.14842 8.44363,21.3761 0.19229,7.4198 0.0576,15.04716 -0.29932,16.94969 -0.673,3.58738 -5.26121,9.59617 -8.93743,11.70459 C 261.03595,527.19262 242.49001,527.62683 189.5,528 l -71,0.5 0,43.5 0,43.5 70.5,0.5 70.5,0.5 3.73211,2.3205 c 7.31239,4.54661 7.76789,5.96798 7.76789,24.23948 0,15.98584 -0.0427,16.30725 -2.61583,19.68077 -1.43871,1.88624 -4.02621,4.28953 -5.75,5.34065 -3.02559,1.84492 -6.28667,1.91046 -94.13417,1.89209 -80.187626,-0.0168 -91.373736,-0.20338 -94.145456,-1.57053 z"
     id="path3013" />
  <path
     style="fill:#b3b3b3"
     d="m 323.36583,668.0814 c -1.72379,-1.05112 -4.42379,-3.60171 -6,-5.66798 L 314.5,658.65656 314.22791,573.58871 c -0.20348,-63.62062 0.0258,-85.82684 0.90948,-88.07828 0.64986,-1.65574 2.3473,-4.2881 3.77209,-5.84971 4.66096,-5.10853 6.8149,-5.66072 22.0807,-5.66072 12.06228,0 14.64717,0.2845 17.96544,1.97736 5.03076,2.5665 8.05165,6.91405 8.89314,12.79866 l 0.67552,4.72398 75.98786,0.5 c 84.84398,0.55827 79.38572,0.0668 85.18617,7.67068 l 2.80169,3.67279 0.26847,75.93035 c 0.26081,73.76536 0.21291,76.02011 -1.67996,79.07827 -1.07163,1.73135 -3.35948,4.49791 -5.08412,6.14791 l -3.13572,3 -16.87879,0 -16.8788,0 -3.63762,-3.5 c -2.00069,-1.925 -4.16318,-4.4 -4.80554,-5.5 -0.83486,-1.42965 -1.31051,-17.68472 -1.66792,-57 l -0.5,-55 -55,0 -55,0 -0.5,55.5 -0.5,55.5 -2.91365,3.80895 c -4.69926,6.14323 -6.60855,6.69152 -23.28669,6.68731 -12.80609,-0.003 -15.22184,-0.26117 -17.93383,-1.91486 z"
     id="path3011" />
  <path
     style="fill:#b3b3b3"
     d="m 591,669.31168 c -2.32198,-0.86256 -8.01222,-6.50928 -9.58532,-9.51202 C 580.23194,657.54204 580,644.88755 580,582.61476 c 0,-50.19533 0.34684,-75.40256 1.06362,-77.29966 1.44741,-3.8309 5.76278,-8.27321 9.65426,-9.93826 2.66077,-1.13847 20.2336,-1.37304 101.5,-1.35488 93.41411,0.0209 98.48024,0.1134 102.28212,1.86808 2.2,1.01537 5.125,3.0661 6.5,4.55719 l 2.5,2.71107 0.5,36.17085 0.5,36.17085 5.34548,0.6524 c 6.39736,0.78078 11.89052,4.73385 13.75683,9.89989 0.89615,2.4806 1.26071,12.84471 1.29965,36.94771 0.0606,37.51646 -0.21329,39.23325 -7.03543,44.09893 -3.30176,2.35488 -3.83747,2.40686 -27.84473,2.7022 -13.46301,0.16563 -25.49226,0.0466 -26.73166,-0.26445 -2.64188,-0.66306 -8.83879,-5.89074 -10.57835,-8.92382 C 751.82058,659.05896 751.36772,643.94961 751,603.5 l -0.5,-55 -58,0 -58,0 0,33.5 0,33.5 30,0.5 c 33.44242,0.55737 33.82884,0.63298 39.19831,7.66935 2.69672,3.5339 2.8149,4.17785 3.15429,17.18694 0.41683,15.97795 -0.37207,19.29191 -5.87097,24.66224 l -4.07679,3.98147 -52.20242,0.18445 C 615.99109,669.78589 591.825,669.61815 591,669.31168 z"
     id="path3009" />
  <path
     style="fill:#b3b3b3"
     d="m 858.32442,668.38837 c -1.74657,-0.86135 -4.44657,-3.39973 -6,-5.64085 L 849.5,658.67275 849,603.58638 848.5,548.5 l -8,-0.5 c -9.42,-0.58875 -14.36215,-3.08239 -16.96029,-8.55757 -1.39946,-2.94914 -1.62139,-6.20607 -1.35646,-19.90654 0.30718,-15.88557 0.39229,-16.46126 2.81675,-19.05321 3.94619,-4.2188 7.932,-5.81858 16,-6.42186 l 7.5,-0.56082 0.54051,-4.04892 c 0.7087,-5.30876 3.76116,-10.40081 7.91144,-13.19768 C 860.03616,474.17495 861.41252,474 874.68,474 c 9.81892,0 15.4105,0.4288 17.61774,1.35104 4.53637,1.89542 9.48279,7.87975 10.23085,12.37758 0.34498,2.07426 0.78243,4.28015 0.97212,4.90197 0.21514,0.70527 4.08591,1.28085 10.28927,1.53001 9.06597,0.36414 10.27282,0.64992 13.66235,3.23524 6.87313,5.2424 7.53972,7.30952 7.54393,23.394 0.004,16.12787 -1.15714,20.04788 -7.22175,24.37595 -2.77823,1.98271 -4.85221,2.4095 -13.77264,2.83421 l -10.50187,0.5 0,31.5 0,31.5 10.58437,0.5 c 9.54778,0.45103 10.92959,0.7638 14.10928,3.19355 C 934.2366,619.81128 935,622.70573 935,641 c 0,18.58993 -0.78217,21.38086 -7.31913,26.11622 L 923.69992,670 892.59996,669.9772 c -26.17685,-0.0192 -31.60265,-0.27068 -34.27554,-1.58886 z"
     id="path3007" />
  <path
     style="fill:#ffdd55"
     d="m 554.99023,502.82332 c -0.0182,-2.46559 -5.07377,-12.21928 -8.50214,-16.40316 -4.11431,-5.02097 -11.67324,-10.02525 -19.33457,-12.80017 -5.44852,-1.97344 -8.10046,-2.06018 -73.13468,-2.39207 l -67.48115,-0.34439 -5.54907,-5.81355 c -9.87588,-10.34658 -20.35067,-14.07865 -39.44872,-14.0552 -13.5441,0.0166 -22.78327,1.76572 -29.20444,5.52878 C 310.03008,457.8946 307.44727,459 306.59588,459 304.61368,459 60.779604,215.19465 61.220694,213.65372 61.402334,213.01917 94.618604,179.5375 135.03464,139.25 183.08216,91.355269 209.20789,65.999999 210.51043,65.999999 211.82429,65.999999 263.06024,116.55858 361,214.5 442.67361,296.175 509.94861,363 510.5,363 511.05139,363 578.32639,296.175 660,214.5 741.67361,132.825 809.04432,65.999999 809.71269,65.999999 c 0.66837,0 32.65255,31.3875 71.07597,69.750001 38.42341,38.3625 71.51463,71.1741 73.53604,72.91467 2.02142,1.74056 3.6753,3.99122 3.6753,5.00146 0,1.1064 -50.79974,52.6175 -127.75,129.53893 L 702.5,470.90718 647,471.22732 c -54.6492,0.31524 -55.58506,0.35422 -61.04883,2.54299 -12.36714,4.95425 -21.83568,14.01241 -25.8501,24.72969 -1.72001,4.5919 -5.08783,7.44078 -5.11084,4.32332 z"
     id="path2996" />
</svg>
