<?xml version="1.0" encoding="UTF-8" standalone="no"?>
<!-- Created with Inkscape (http://www.inkscape.org/) -->

<svg
   xmlns:dc="http://purl.org/dc/elements/1.1/"
   xmlns:cc="http://creativecommons.org/ns#"
   xmlns:rdf="http://www.w3.org/1999/02/22-rdf-syntax-ns#"
   xmlns:svg="http://www.w3.org/2000/svg"
   xmlns="http://www.w3.org/2000/svg"
   xmlns:sodipodi="http://sodipodi.sourceforge.net/DTD/sodipodi-0.dtd"
   xmlns:inkscape="http://www.inkscape.org/namespaces/inkscape"
   id="svg2"
   version="1.1"
   inkscape:version="0.48.5 r10040"
   width="524"
   height="520"
   sodipodi:docname="jabber.svg">
  <metadata
     id="metadata8">
    <rdf:RDF>
      <cc:Work
         rdf:about="">
        <dc:format>image/svg+xml</dc:format>
        <dc:type
           rdf:resource="http://purl.org/dc/dcmitype/StillImage" />
        <dc:title />
      </cc:Work>
    </rdf:RDF>
  </metadata>
  <defs
     id="defs6" />
  <sodipodi:namedview
     pagecolor="#ffffff"
     bordercolor="#666666"
     borderopacity="1"
     objecttolerance="10"
     gridtolerance="10"
     guidetolerance="10"
     inkscape:pageopacity="0"
     inkscape:pageshadow="2"
     inkscape:window-width="932"
     inkscape:window-height="583"
     id="namedview4"
     showgrid="false"
     inkscape:zoom="0.22692308"
     inkscape:cx="725.76628"
     inkscape:cy="137.76781"
     inkscape:window-x="15"
     inkscape:window-y="39"
     inkscape:window-maximized="0"
     inkscape:current-layer="svg2" />
  <rect
     style="fill:#ffffff;fill-rule:evenodd;stroke:#000000;stroke-width:0;stroke-linecap:butt;stroke-linejoin:miter;stroke-miterlimit:4;stroke-opacity:1;stroke-dasharray:none"
     id="rect2990"
     width="467.70789"
     height="465.29709"
     x="28.49227"
     y="31.575621"
     rx="54.424042" />
  <rect
     style="fill:#ff8c00;fill-rule:evenodd;stroke:#000000;stroke-width:0;stroke-linecap:butt;stroke-linejoin:miter;stroke-miterlimit:4;stroke-opacity:1;stroke-dasharray:none"
     id="rect2989"
     width="219.6825"
     height="283.5618"
     x="151.12909"
     y="125.81793"
     rx="54.424042" />
  <path
     inkscape:connector-curvature="0"
     id="path2984"
     d="m 73.741408,500.14315 c -2.65432,-0.19126 -4.82604,-0.68744 -4.82604,-1.10261 0,-0.41516 -1.59861,-1.01086 -3.55246,-1.32376 -1.95385,-0.31291 -7.00927,-2.30169 -11.23426,-4.41954 -10.88933,-5.45846 -19.30889,-14.03794 -25.05226,-25.52809 -2.35665,-4.71473 -4.28482,-9.32413 -4.28482,-10.24316 0,-0.91902 -0.51708,-1.84356 -1.14906,-2.05454 -1.68981,-0.56411 -1.68981,-387.479455 0,-388.04357 0.63198,-0.210976 1.14906,-1.13552 1.14906,-2.054543 0,-0.919023 1.92817,-5.528438 4.28482,-10.243147 6.98957,-13.983296 19.88265,-25.14371 33.86388,-29.313011 2.02234,-0.603076 4.67032,-1.58549 5.88439,-2.183142 1.67708,-0.825575 48.276132,-1.061876 193.960902,-0.98356 105.46441,0.05669 192.68422,0.249038 193.82179,0.427433 1.13757,0.178395 2.06831,0.649861 2.06831,1.047701 0,0.397842 0.39813,0.72335 0.88476,0.72335 4.75646,0 19.6797,8.652922 26.22014,15.203178 6.54045,6.550255 15.18041,21.495904 15.18041,26.259495 0,0.487351 0.32502,0.88609 0.72225,0.88609 0.39726,0 0.87184,0.932133 1.05463,2.071407 0.1828,1.139274 0.37486,87.247169 0.4268,191.350869 0.0701,140.36503 -0.17739,189.85074 -0.95742,191.49007 -0.57851,1.21582 -1.89899,4.84377 -2.93439,8.06208 -2.67293,8.30823 -7.039,15.23871 -13.97823,22.18835 -6.95216,6.96262 -13.88049,11.33557 -22.15511,13.98367 -3.21349,1.0284 -6.67004,2.35086 -7.68121,2.9388 -1.37832,0.8014 -48.77665,1.08635 -189.36466,1.13844 -103.1394,0.0383 -189.697902,-0.087 -192.352222,-0.27826 z M 286.31704,479.30759 c 9.10053,-5.23052 28.54259,-16.46778 43.20456,-24.97166 44.35139,-25.72368 84.39269,-48.89375 105.25366,-60.90545 21.05105,-12.12118 25.84914,-15.99858 27.52904,-22.24659 0.69706,-2.59262 0.92375,-36.12467 0.75271,-111.34161 l -0.24475,-107.63171 -2.75774,-4.44531 c -2.94335,-4.74451 -3.08399,-4.83466 -45.9623,-29.46513 -8.08936,-4.64675 -21.3265,-12.31407 -29.41587,-17.03847 -8.08936,-4.724402 -21.3265,-12.391692 -29.41587,-17.038417 -8.08936,-4.646725 -21.3265,-12.301694 -29.41586,-17.011047 -8.08937,-4.709351 -21.53334,-12.485155 -29.8755,-17.279563 -8.34215,-4.794409 -16.53835,-9.507383 -18.21376,-10.473276 -1.6754,-0.965891 -4.11132,-2.455114 -5.41315,-3.309383 -1.61954,-1.062756 -4.29191,-1.553217 -8.46301,-1.553217 -5.69663,0 -6.6068,0.307168 -13.89101,4.687963 -4.28722,2.578381 -13.58621,7.983055 -20.6644,12.010388 -7.0782,4.027335 -19.48801,11.182778 -27.57738,15.900986 -8.08937,4.718208 -21.32651,12.383079 -29.41587,17.033048 -12.87762,7.402378 -33.52407,19.350498 -87.543322,50.661398 -14.58325,8.45282 -17.64179,11.26588 -19.57004,17.99939 -1.31475,4.59114 -1.20172,213.74269 0.11812,218.57446 1.45915,5.34174 7.8089,10.8997 21.03556,18.4125 25.712282,14.6047 22.901352,12.98245 108.481212,62.60718 67.68023,39.24539 62.19731,36.35505 68.94344,36.34366 5.89375,-0.01 6.20037,-0.13957 22.52153,-9.52014 z m -34.01211,-17.49016 c -5.56143,-3.21334 -23.34884,-13.5118 -39.52756,-22.88546 -16.17874,-9.37367 -42.85985,-24.82329 -59.29137,-34.33249 -16.43153,-9.50921 -35.25308,-20.40206 -41.82569,-24.20634 -6.57261,-3.8043 -15.157842,-8.76116 -19.078292,-11.01526 l -7.12809,-4.09836 0.23375,-103.64379 0.23374,-103.6438 26.198512,-15.14287 c 14.40918,-8.32857 38.4015,-22.17304 53.31627,-30.76547 14.91476,-8.59244 28.97923,-16.773099 31.25436,-18.179255 2.27513,-1.406156 5.99808,-3.593066 8.27321,-4.859802 6.2938,-3.504222 20.00102,-11.402231 36.31021,-20.921686 8.08937,-4.721654 16.44624,-9.578582 18.57083,-10.79317 l 3.86288,-2.208345 3.95071,2.240557 c 3.72104,2.110315 7.65947,4.393298 38.42243,22.272328 6.82539,3.966834 15.09861,8.731394 18.38491,10.587908 3.28631,1.856515 12.59367,7.239452 20.68303,11.962085 18.55135,10.8304 30.76284,17.85466 37.22947,21.41505 2.78071,1.531 5.46951,3.09989 5.9751,3.48641 0.73382,0.56103 38.83154,22.70062 50.55853,29.3809 l 2.75773,1.57094 0.25224,102.11031 c 0.13873,56.16067 0.0482,102.95956 -0.20117,103.99753 -0.24937,1.03797 -1.81069,2.58205 -3.46959,3.4313 -1.65892,0.84924 -4.74502,2.56656 -6.858,3.81625 -9.4259,5.57479 -73.57543,42.70789 -105.08884,60.83091 -9.85892,5.66975 -27.64632,15.96218 -39.52758,22.87206 -11.88125,6.90987 -22.22277,12.56356 -22.98115,12.56372 -0.75837,1.7e-4 -5.92914,-2.62881 -11.49058,-5.84216 z m 38.87005,-69.75341 c 0.25261,-8.55255 0.18873,-8.87994 -1.83849,-9.42383 -3.67728,-0.98659 -48.50494,-0.66261 -50.42106,0.3644 -1.55301,0.83241 -1.77805,1.98787 -1.77805,9.12954 0,5.6759 0.35142,8.32078 1.14906,8.6482 0.63197,0.25944 12.73155,0.39753 26.88794,0.30689 l 25.73889,-0.16482 0.26171,-8.86038 z m 18.12321,-36.71058 0,-8.74594 -45.04305,0 -45.04306,0 -0.26946,7.74837 c -0.1482,4.26159 -0.0563,8.30478 0.20433,8.98487 0.38932,1.01609 8.4663,1.19392 45.31251,0.99757 l 44.83873,-0.23893 0,-8.74594 z m 4.8492,-33.37267 c 2.50658,-3.16464 8.75976,-10.24571 13.89596,-15.73571 23.49105,-25.10913 31.6076,-40.58794 36.02215,-68.69662 2.49676,-15.89758 -2.49379,-39.97465 -11.94038,-57.60684 -4.35801,-8.13428 -8.6794,-13.90669 -16.39423,-21.89907 -14.47882,-14.99968 -32.61978,-24.84604 -52.86158,-28.69159 -9.40802,-1.78735 -27.82034,-1.78735 -37.22835,0 -37.89832,7.19997 -67.62389,35.01818 -78.19615,73.17871 -2.20397,7.95519 -2.42331,10.24418 -2.42589,25.31718 -0.003,15.4085 0.17953,17.21723 2.59645,25.77752 5.35857,18.9791 13.21561,31.2645 35.62114,55.69784 4.41105,4.81026 9.74184,10.92091 11.84621,13.57921 l 3.82613,4.83328 45.34057,0 45.34057,0 4.5574,-5.75391 z m -89.22585,-15.8766 c -1.41007,-1.76986 -5.95357,-6.78688 -10.09667,-11.1489 -10.92443,-11.5017 -19.16616,-22.21519 -23.41811,-30.44143 -25.65326,-49.63119 6.19864,-110.32506 61.81742,-117.79319 34.3254,-4.609 66.4594,11.78125 83.28085,42.47815 5.99904,10.94747 9.24643,24.24437 9.32623,38.18772 0.13923,24.32334 -7.81985,41.81676 -29.43789,64.70219 -4.40962,4.66814 -9.72359,10.45537 -11.80884,12.86051 l -3.79133,4.37297 -36.65395,-3e-5 -36.65395,-3e-5 -2.56376,-3.21796 z"
     style="fill:#cd4a49" />
</svg>
