<?xml version="1.0" encoding="UTF-8" standalone="no"?>
<!-- Created with Inkscape (http://www.inkscape.org/) -->

<svg
   xmlns:dc="http://purl.org/dc/elements/1.1/"
   xmlns:cc="http://creativecommons.org/ns#"
   xmlns:rdf="http://www.w3.org/1999/02/22-rdf-syntax-ns#"
   xmlns:svg="http://www.w3.org/2000/svg"
   xmlns="http://www.w3.org/2000/svg"
   xmlns:sodipodi="http://sodipodi.sourceforge.net/DTD/sodipodi-0.dtd"
   xmlns:inkscape="http://www.inkscape.org/namespaces/inkscape"
   id="svg2"
   version="1.1"
   inkscape:version="0.48.5 r10040"
   width="256"
   height="256"
   sodipodi:docname="java.svg">
  <metadata
     id="metadata8">
    <rdf:RDF>
      <cc:Work
         rdf:about="">
        <dc:format>image/svg+xml</dc:format>
        <dc:type
           rdf:resource="http://purl.org/dc/dcmitype/StillImage" />
        <dc:title></dc:title>
      </cc:Work>
    </rdf:RDF>
  </metadata>
  <defs
     id="defs6" />
  <sodipodi:namedview
     pagecolor="#ffffff"
     bordercolor="#666666"
     borderopacity="1"
     objecttolerance="10"
     gridtolerance="10"
     guidetolerance="10"
     inkscape:pageopacity="0"
     inkscape:pageshadow="2"
     inkscape:window-width="640"
     inkscape:window-height="480"
     id="namedview4"
     showgrid="false"
     inkscape:zoom="1.3037281"
     inkscape:cx="129.3399"
     inkscape:cy="131.46161"
     inkscape:window-x="15"
     inkscape:window-y="39"
     inkscape:window-maximized="0"
     inkscape:current-layer="svg2" />
  <g
     id="g2982"
     transform="translate(0.76703315,-0.30109318)">
    <path
       style="fill:#d0fefe"
       d="M 114,253.37667 C 83.177601,249.45322 56.945398,236.25972 35.7634,214.02753 20.659,198.17427 12.125396,183.45156 5.3172962,161.5 2.573425,152.65286 2.5263815,152.0754 2.5474077,127.5 2.5683209,103.0567 2.6304001,102.29959 5.335229,93.5 13.525024,66.856237 29.483249,43.791744 50.843282,27.727013 67.308802,15.343411 86.429921,7.0179978 106.38099,3.5456679 117.73377,1.5698046 138.2098,1.56367 149.61901,3.5327139 c 47.86116,8.2600541 86.51714,42.2965931 101.04817,88.9727841 2.7678,8.890642 2.80032,9.300512 2.81648,35.494502 l 0.0163,26.5 -3.36666,10 c -12.73187,37.81751 -37.97015,65.26546 -73.55641,79.99643 -13.93633,5.76896 -27.57746,8.50751 -44.57693,8.9491 -7.975,0.20716 -16.075,0.17618 -18,-0.0689 z m 25.66562,-19.44566 c 25.1228,-2.80136 46.98745,-13.34015 64.95635,-31.30904 14.16713,-14.16714 23.01635,-29.41774 28.1441,-48.50309 2.27301,-8.46005 2.58952,-11.60671 2.62723,-26.11888 0.0389,-14.96 -0.21275,-17.43333 -2.69592,-26.5 C 221.3019,59.89217 188.29376,29.831665 146.07378,22.611913 92.387076,13.431313 39.651475,46.36767 24.515441,98.531955 17.160843,123.87858 19.322167,149.27785 30.894769,173.5 46.694305,206.56938 78.88347,229.55235 115.5,233.90788 c 10.17226,1.20999 13.49327,1.21317 24.16562,0.0231 z M 70.775788,215.40725 c -1.023982,-2.24739 -0.903517,-2.81349 0.904399,-4.25 C 75.63663,208.0136 76,205.81705 76,185.0443 c 0,-19.93477 0.01729,-20.09505 2.278345,-21.12526 1.571518,-0.71603 3.122703,-0.71706 5,-0.003 L 86,164.9505 85.97614,184.22525 c -0.02821,22.79221 -0.61874,26.12501 -5.408601,30.52475 -4.40591,4.04706 -8.133258,4.29726 -9.791754,0.65725 z M 90.01477,205.16862 c -4.248989,-4.24899 -4.14756,-8.9619 0.297255,-13.81204 2.790896,-3.04539 4.131608,-3.69279 8.520854,-4.11454 5.643181,-0.54224 6.524961,-1.14595 5.515611,-3.77629 -0.55512,-1.4466 -1.63792,-1.63607 -6.924707,-1.2117 C 90.844946,182.78214 89,182.01447 89,178.74897 c 0,-2.54488 5.67731,-4.74986 12.21788,-4.74523 6.11381,0.004 11.41885,2.68622 12.29431,6.21524 0.31123,1.25456 0.4358,7.90602 0.27684,14.78102 L 113.5,207.5 110,207.27901 c -4.50001,-0.28413 -4.47229,-0.28501 -11.23523,0.35858 -5.38166,0.51215 -5.921086,0.35994 -8.75,-2.46897 z M 103.75,198.72232 C 105.98675,196.99159 105.24669,194 102.58179,194 98.677563,194 97,195.05901 97,197.52366 c 0,3.37335 3.20413,3.94234 6.75,1.19866 z m 21.53545,8.47526 c -0.668,-0.42449 -3.28794,-7.41991 -5.82208,-15.54538 C 114.4538,175.58951 114.51108,174 120.09939,174 c 3.55638,0 4.95785,2.12551 7.86345,11.92596 2.53083,8.53637 3.2967,8.20106 5.16655,-2.26199 1.28804,-7.20745 2.77768,-9.66397 5.86025,-9.66397 5.79892,0 6.12225,1.93632 2.44432,14.63813 -2.94689,10.17717 -5.97256,17.44925 -7.72284,18.56157 -1.56523,0.99471 -6.85908,0.99338 -8.42567,-0.002 z m 21.63763,-2.12066 C 139.93398,198.08782 146.25866,187 157.23446,187 c 4.23192,0 5.00095,-0.69162 3.62591,-3.2609 -0.93629,-1.74947 -1.79045,-1.93254 -6.86839,-1.47209 -6.11841,0.5548 -7.99198,-0.26994 -7.99198,-3.51804 0,-4.06193 14.34189,-6.42592 19.99706,-3.29613 1.68691,0.9336 2.8857,1.05942 3.69496,0.3878 1.79757,-1.49185 5.7412,-0.58385 6.12109,1.40936 0.25395,1.33244 -0.34012,1.74966 -2.48979,1.74858 l -2.82332,-0.001 0.32492,13.96356 0.32493,13.96357 -2.48179,0.62288 c -1.36498,0.34259 -3.33544,0.16603 -4.3788,-0.39236 -1.17006,-0.6262 -2.45119,-0.66465 -3.34314,-0.10035 -0.79537,0.5032 -3.61824,0.92181 -6.27304,0.93023 -4.01287,0.0127 -5.3199,-0.47766 -7.75,-2.90777 z m 13.82692,-6.3546 c 0.6875,-0.53196 1.25,-1.81211 1.25,-2.84476 C 162,194.40208 161.25801,194 158.53518,194 c -4.25901,0 -6.44751,2.94481 -4.00426,5.38806 1.49963,1.49963 3.72903,1.26098 6.21908,-0.66574 z m -58.9981,-41.74283 c -6.985854,-1.10242 -9.90791,-2.54857 -9.533744,-4.71833 0.226319,-1.31241 -1.214379,-1.86985 -7.313011,-2.82956 -9.811606,-1.54401 -12.117936,-2.76927 -11.715077,-6.22377 0.380546,-3.26315 5.504106,-6.37355 13.414966,-8.14392 4.285606,-0.95908 5.810017,-0.96434 6.943108,-0.024 2.37598,1.97189 1.700383,2.86867 -3.06514,4.06865 -2.484349,0.62556 -4.73745,1.49409 -5.006891,1.93005 -1.779951,2.88002 33.755229,4.94379 52.848229,3.06925 15.19652,-1.49198 21.42522,-2.85746 23.78115,-5.21339 2.6264,-2.6264 4.89451,-2.41764 4.89451,0.4505 0,6.59436 -13.58978,10.37875 -45.5,12.67052 l -12,0.86184 15.02327,-0.42199 c 16.37639,-0.46 29.52735,-2.36111 38.33158,-5.54124 C 171.42649,143.81802 173,143.55357 173,145.20911 c 0,3.69818 -8.06937,8.28093 -18.32457,10.40687 -8.56591,1.77574 -44.45239,2.70031 -52.92353,1.36351 z m 3.97727,-5.58366 c -0.3323,-0.33229 -1.1948,-0.36781 -1.91667,-0.0789 -0.79773,0.31922 -0.56078,0.55618 0.60417,0.60416 1.05416,0.0434 1.64479,-0.19293 1.3125,-0.52522 z m 2.11945,-13.72112 C 101.21856,135.79967 98,133.44041 98,130.45551 c 0,-3.85876 4.03765,-5.28871 8.36027,-2.96082 2.96487,1.59668 5.07822,1.74515 17.71836,1.24477 C 139.48906,128.1294 144,129.07012 144,132.8939 c 0,4.2675 -25.86959,7.6886 -36.15138,4.78081 z m -6.17863,-15.04208 c -6.061666,-1.71193 -8.128781,-3.66852 -7.31236,-6.92141 0.637865,-2.54145 6.7052,-5.97789 7.34276,-4.15881 1.20253,3.43102 2.39062,3.85913 11.85881,4.27324 5.33109,0.23316 13.70158,-0.12388 18.60109,-0.79343 7.9218,-1.08256 9.18801,-1.03403 11.43512,0.43834 3.81603,2.50035 2.68382,4.81617 -3.10705,6.35514 -7.40807,1.96876 -32.83313,2.49728 -38.81837,0.80693 z M 151,121.31961 c 0,-1.17764 1.99121,-3.22452 5.25,-5.39679 6.39423,-4.2623 9.51386,-9.60785 7.6604,-13.12625 -1.62025,-3.075708 -2.82033,-3.763113 -6.60138,-3.781257 -6.14351,-0.02948 -4.90435,-3.857519 1.52799,-4.720277 11.11849,-1.491302 18.00152,8.750434 11.91299,17.726144 -2.25418,3.32312 -11.83814,9.25441 -17,10.5209 -2.27076,0.55715 -2.75,0.34411 -2.75,-1.22247 z M 92.687304,109.02714 C 87.878237,108.14852 83,105.68344 83,104.13193 c 0,-3.76089 20.48971,-11.042221 23.26453,-8.267403 1.59091,1.590916 -0.74185,3.814837 -4.80016,4.576183 -5.457525,1.02383 -4.068002,2.29766 3.28563,3.01206 6.01927,0.58477 19.40227,-0.12098 39.5,-2.08301 7.05969,-0.6892 8.21501,-0.006 4.96346,2.93706 -3.4519,3.12393 -13.96237,4.76678 -33.21346,5.19147 -10.175,0.22447 -20.665713,0.0125 -23.312696,-0.47115 z M 128,99.820998 c 0,-0.648451 0.52172,-2.621802 1.15939,-4.385224 1.07831,-2.982025 0.86853,-3.641773 -3,-9.434951 C 122.60286,80.674877 122,79.013195 122,74.536086 122,65.963716 127.28605,60.003844 140.18628,54.031564 149.25498,49.833126 152,49.293098 152,51.707451 c 0,1.201149 -1.49164,2.762618 -3.96937,4.155179 -6.74087,3.788582 -13.63743,9.773883 -14.97064,12.992546 -1.15106,2.778901 -1.01107,3.526766 1.47092,7.858009 5.27438,9.204139 5.64498,10.209503 4.94251,13.407853 C 138.19691,95.932941 128,104.5537 128,99.820998 z m -13.6021,-9.238347 c -10.63125,-11.112446 -12.85071,-18.896572 -7.49567,-26.288989 1.59623,-2.203528 7.33373,-7.648574 12.75,-12.100101 C 132.0499,42.004166 134.29177,38.781634 134.82665,30.381415 135.10882,25.950116 135.63845,24 136.55979,24 138.99609,24 141,28.299245 141,33.526162 c 0,7.949006 -3.67078,14.108597 -14.14988,23.743577 -15.32199,14.087763 -15.97185,17.541032 -6.09921,32.410302 C 124.01679,94.598824 124.3313,97 121.70966,97 c -0.64477,0 -3.93506,-2.887807 -7.31176,-6.417349 z"
       id="path2996"
       inkscape:connector-curvature="0" />
    <path
       style="fill:#b0fdfd"
       d="M 106,251.32973 C 81.598339,247.06942 58.649712,235.37957 40.6372,218.03443 20.595592,198.73537 8.4632203,176.37526 3.4511175,149.5 0.89983749,135.81985 1.8382377,109.93162 5.361051,96.80947 20.296823,41.175119 69.592904,3.0295345 127,2.6845673 142.72155,2.5900943 152.7986,4.0166178 166,8.2054699 210.03439,22.177743 242.11305,57.135266 252.07024,102 c 2.45825,11.0763 2.66199,37.91908 0.37914,49.95327 -9.58163,50.51027 -51.8156,91.13152 -103.44938,99.49914 -11.77053,1.9075 -31.69743,1.85065 -43,-0.12268 z m 48.63522,-19.17854 c 37.22487,-9.45399 67.29182,-38.29811 77.84934,-74.68314 6.67828,-23.01578 5.53442,-45.94933 -3.45229,-69.215913 C 212.111,44.44296 164.84911,15.785756 117.91491,20.876214 91.031925,23.791927 68.419523,34.627797 50.342376,53.256991 30.111557,74.105628 19.931329,98.704207 19.823516,127 c -0.199142,52.26494 35.611808,95.70319 87.801954,106.5027 10.20393,2.11146 36.33212,1.36029 47.00975,-1.35151 z M 71.578719,215.34454 c -0.381743,-0.9948 0.183703,-2.5272 1.416893,-3.83987 C 76.356786,207.92686 77,203.46473 77,183.72522 c 0,-20.36194 0.08855,-20.67276 5.502236,-19.31401 L 85,165.0381 l 0,20.51307 c 0,22.37956 -0.566824,25.38973 -5.513679,29.28093 -3.276421,2.57723 -7.022121,2.81997 -7.907602,0.51244 z m 21.77828,-8.33612 c -1.178651,-0.47565 -2.866151,-1.89725 -3.75,-3.15912 -4.590779,-6.55425 0.68029,-15.01346 10.168252,-16.31839 C 104.41508,186.89277 105,186.54508 105,184.42521 c 0,-2.86574 -2.47201,-3.7019 -9.586209,-3.24251 -4.446773,0.28714 -4.944142,0.10361 -5.233131,-1.93109 -0.412345,-2.90321 3.258951,-4.40587 10.99973,-4.50218 7.04348,-0.0876 10.34313,1.87321 11.76442,6.99111 1.34854,4.85593 1.36223,20.81724 0.02,23.3252 -1.1203,2.09329 -3.94509,2.55399 -5.58777,0.91131 -0.69727,-0.69727 -2.18341,-0.53808 -4.66788,0.5 -4.051562,1.69285 -6.175038,1.8135 -9.352171,0.53137 z m 11.142631,-8.36752 c 2.93703,-4.48246 -1.27481,-7.43714 -6.565371,-4.60572 -1.859955,0.99542 -2.649147,4.9166 -1.267592,6.29815 1.606446,1.60645 6.341853,0.58329 7.832963,-1.69243 z M 151,207.29377 c -6.36849,-2.32803 -8.20126,-10.81978 -3.37656,-15.64449 2.62026,-2.62025 7.87678,-4.63317 12.12656,-4.6437 1.53244,-0.004 2.25,-0.60436 2.25,-1.88314 0,-3.18465 -2.50827,-4.32555 -8.71027,-3.96191 -5.36187,0.31438 -5.81333,0.17332 -6.10907,-1.90892 -0.36909,-2.59864 2.20655,-3.92821 8.41006,-4.34133 6.82242,-0.45435 9.04945,0.0269 11.76326,2.54197 2.60149,2.41099 2.64602,2.67235 2.64602,15.53139 0,14.11313 -0.52938,15.43851 -5.31377,13.30384 -1.52227,-0.67919 -3.09734,-0.58096 -5.18623,0.32344 -3.15852,1.3675 -6.00217,1.59595 -8.5,0.68285 z M 160.8,199.8 c 0.66,-0.66 1.2,-2.46 1.2,-4 0,-2.33913 -0.42231,-2.8 -2.56574,-2.8 -3.81648,0 -6.43426,1.77733 -6.43426,4.36852 0,1.26398 0.3,2.59815 0.66667,2.96481 1.10483,1.10484 5.84993,0.75007 7.13333,-0.53333 z m -35.57347,5.95 c -1.61274,-1.97959 -9.33954,-28.01313 -8.76146,-29.51957 0.32962,-0.85899 1.71822,-1.24281 3.77805,-1.0443 3.165,0.30502 3.35248,0.59133 6.64541,10.14873 2.26669,6.57882 3.66616,9.39293 4.2271,8.5 0.46122,-0.73417 1.58184,-4.70986 2.49027,-8.83486 1.94054,-8.81156 2.83691,-10.20411 6.3085,-9.80056 1.82649,0.21232 2.68171,0.97862 2.91295,2.6101 0.37401,2.63869 -3.67212,17.36871 -6.71345,24.44046 -1.93934,4.50939 -2.24105,4.75 -5.95592,4.75 -2.1522,0 -4.37135,-0.5625 -4.93145,-1.25 z M 171.5,177 c -0.33992,-0.55 0.057,-1 0.88197,-1 0.825,0 1.77811,0.45 2.11803,1 0.33992,0.55 -0.057,1 -0.88197,1 -0.825,0 -1.77811,-0.45 -2.11803,-1 z M 100.07171,155.91214 C 93.084294,154.54138 92.270731,152.19763 99,152.82471 c 0.825,0.0769 9.4077,0.16775 19.07267,0.20193 20.14552,0.0713 35.41674,-1.8033 46.10767,-5.65973 3.84792,-1.38802 7.25827,-2.26163 7.57855,-1.94135 0.32028,0.32028 -0.48102,1.71421 -1.78067,3.09763 -2.79034,2.97018 -11.71047,5.91587 -22.42875,7.40665 -9.00959,1.25312 -41.06074,1.24117 -47.47776,-0.0177 z m -6.519727,-6.01537 c -16.91254,-1.78146 -21.801159,-3.69415 -19.661286,-7.69254 1.901553,-3.55308 17.072134,-8.69142 18.558802,-6.28594 0.409852,0.66315 -1.154077,1.88345 -3.949499,3.08171 -2.545422,1.0911 -4.376464,2.39087 -4.068981,2.88839 1.770884,2.86535 29.290931,4.63099 49.568981,3.18027 17.29797,-1.23753 26.09471,-2.93941 29.05888,-5.62194 2.65368,-2.40155 4.49774,-0.68642 2.43237,2.2623 -4.86181,6.94122 -42.79069,11.25808 -71.939267,8.18775 z m 12.989537,-13.36261 c -5.22453,-1.40226 -8.82208,-4.63946 -7.881082,-7.09166 0.81426,-2.12193 5.066772,-2.91265 7.013782,-1.30417 1.23459,1.01994 5.56052,1.36223 17.23701,1.36392 16.60894,0.002 20.39565,0.63695 19.89089,3.33319 -0.77803,4.15586 -25.25503,6.65261 -36.2606,3.69872 z m 1.71133,-13.61941 c -12.148055,-1.44232 -16.747108,-5.57912 -10.646477,-9.57641 2.504467,-1.64098 2.670637,-1.62424 4.249997,0.4283 2.29339,2.98049 13.688,3.8984 27.97094,2.25325 8.24084,-0.9492 11.39069,-0.97358 13.02151,-0.1008 2.59708,1.38992 2.8095,3.75221 0.40118,4.46164 -8.15934,2.40355 -25.51291,3.66006 -34.99715,2.53402 z m 44.28851,-1.84782 c -0.30257,-0.48958 1.65051,-2.50557 4.34018,-4.47997 2.68967,-1.97441 5.61665,-4.69835 6.50439,-6.05321 1.68143,-2.56619 2.11545,-7.23699 0.84876,-9.13405 C 163.1445,99.766993 159.41844,98 157.06574,98 c -2.43773,0 -2.74613,-1.524934 -0.48395,-2.393011 2.76688,-1.061755 7.42187,-0.656456 10.45094,0.909938 2.76846,1.431627 5.96727,6.005433 5.96727,8.532283 0,2.65462 -3.42587,8.03824 -6.70835,10.54191 -4.24613,3.23868 -12.98266,6.71785 -13.75029,5.47581 z M 91.054483,107.9092 c -5.558049,-1.08981 -7.929842,-3.14953 -6.127476,-5.32125 1.426665,-1.71903 9.765625,-4.992541 15.245013,-5.984533 5.59688,-1.013262 5.68403,1.100711 0.1433,3.475743 -4.273783,1.83196 -4.599877,2.18209 -2.912022,3.12666 1.920726,1.07489 33.694212,0.5031 45.846702,-0.82506 5.9256,-0.64761 7.68067,0.51561 3.8617,2.55946 -6.45836,3.45641 -43.55182,5.42101 -56.057217,2.96898 z M 129.55777,97.25 c 1.29057,-4.581873 0.8223,-6.521479 -2.9082,-12.045969 -1.96691,-2.912783 -3.85414,-6.777538 -4.19384,-8.588345 -0.66508,-3.545156 1.36489,-9.624776 4.33241,-12.975285 4.34309,-4.903615 21.60987,-13.642389 23.40627,-11.84599 0.6048,0.604801 -1.63957,2.677536 -6.13599,5.666752 C 135.87305,62.902788 132,67.453074 132,71.628113 c 0,1.657797 1.52598,5.3079 3.5,8.371887 1.925,2.987906 3.5,6.482578 3.5,7.765938 0,3.228293 -2.45095,7.657018 -5.61488,10.145766 -3.63212,2.857026 -4.76337,2.661446 -3.82735,-0.661704 z m -14.32726,-6.869909 c -10.31038,-10.760515 -12.63057,-18.383817 -7.77155,-25.534514 1.35244,-1.99028 7.15563,-7.481593 12.896,-12.202918 C 132.09097,42.990048 136,37.137801 136,29.220322 c 0,-5.384595 1.92226,-5.301355 3.74249,0.162061 2.67313,8.023425 -1.78641,16.862774 -14.27286,28.290503 -13.75904,12.59242 -15.01636,17.529555 -7.44677,29.241195 2.18743,3.384371 3.97714,6.588218 3.97714,7.11966 0,2.120011 -2.56257,0.736933 -6.76949,-3.65365 z"
       id="path2994"
       inkscape:connector-curvature="0" />
    <path
       style="fill:#8ffdfd"
       d="M 117.5,252.42265 C 103.34692,250.45127 98.261443,249.4086 90,246.78435 70.070093,240.45362 53.047329,230.12064 38.5,215.52338 22.546291,199.51491 11.577165,180.32593 5.781876,158.2875 2.90939,147.36396 2.6759481,145.21735 2.5968876,129 2.5312433,115.53466 2.9310533,109.58732 4.3310294,103.20393 14.778065,55.569162 49.646613,19.173621 96.712502,6.7768102 107.76857,3.8647216 109.64794,3.6668457 127,3.587885 c 20.9526,-0.095345 28.81983,1.1472459 45,7.107534 17.16941,6.324691 29.93846,14.344378 43.40435,27.260396 19.87718,19.065493 32.5076,42.394715 37.0477,68.429555 1.95205,11.1939 1.99291,31.80105 0.0847,42.74326 -8.74667,50.1571 -48.26729,90.63151 -98.48468,100.86151 -9.86756,2.01016 -29.97667,3.34841 -36.55212,2.43251 z M 144,234.54773 c 44.05497,-6.68002 78.71084,-37.87571 90.14746,-81.14678 2.03508,-7.69981 2.34953,-11.19502 2.33025,-25.90095 -0.0202,-15.37832 -0.28107,-17.93328 -2.73519,-26.78349 C 223.04617,62.142506 194.09443,33.738486 154.33017,22.806519 147.68505,20.979648 143.7758,20.649611 128.5,20.625823 112.0218,20.600162 109.65654,20.826144 100.52348,23.298756 34.808614,41.089887 1.2391217,111.40337 29.105127,172.88915 45.812505,209.75364 85.408412,235.22862 127,235.87216 c 4.125,0.0638 11.775,-0.53216 17,-1.32443 z m -71.333333,-18.2144 c -1.282321,-1.28232 -0.648195,-3.72407 1.583333,-6.09674 2.150071,-2.28607 2.272206,-3.33264 2.75,-23.56446 L 77.5,165.5 l 3.215688,-0.3108 c 4.367319,-0.42211 4.58035,0.79464 4.1247,23.55865 -0.322292,16.10152 -0.639399,19.19238 -2.243409,21.86661 -2.604727,4.34264 -8.126535,7.52265 -9.930312,5.71887 z m 18.534,-11.36101 c -2.916959,-2.71756 -3.697978,-6.35749 -2.16054,-10.06919 1.689071,-4.07778 4.850087,-5.98614 11.199033,-6.76104 4.32039,-0.52731 5.31416,-1.01526 5.5591,-2.7296 0.47533,-3.32688 -2.46676,-4.91249 -9.115136,-4.91249 -7.273503,0 -8.605536,-1.79882 -3.050712,-4.11977 5.821929,-2.43256 14.044898,-1.4567 17.037028,2.02186 2.1684,2.52092 2.33056,3.56785 2.33056,15.04668 0,13.38771 -0.53854,14.62987 -5.38536,12.42151 -1.69617,-0.77283 -2.94235,-0.76526 -4.42241,0.0268 -3.394242,1.81654 -9.559427,1.34108 -11.991563,-0.9248 z m 13.543743,-5.17516 c 0.69057,-0.57313 1.25559,-2.36282 1.25559,-3.9771 0,-2.82316 -0.15766,-2.92333 -4.13543,-2.62756 -5.398425,0.40141 -7.637749,3.25862 -5.238537,6.68397 1.249278,1.7836 2.175885,2.13908 4.231177,1.62323 1.44738,-0.36327 3.19662,-1.12941 3.8872,-1.70254 z m 21.47348,6.35867 c -1.27605,-0.80971 -9.20687,-25.16727 -9.2141,-28.29884 -0.002,-0.90366 0.70381,-1.91454 1.56865,-2.24642 3.29876,-1.26585 5.34606,1.33184 8.00808,10.16092 3.97319,13.17784 4.43021,13.15415 7.38844,-0.38291 2.14189,-9.80144 3.96381,-11.98384 7.91524,-9.48131 1.16777,0.73957 1.10725,2.02711 -0.38707,8.23469 -2.44589,10.1605 -6.23101,20.11257 -8.2183,21.60804 -1.88827,1.42096 -5.1644,1.60925 -7.06094,0.40583 z m 21.80755,-1.13039 c -4.1293,-4.1293 -3.59606,-10.76365 1.14993,-14.30705 1.4021,-1.04682 4.96773,-2.1992 7.92363,-2.56085 6.11683,-0.74838 7.37234,-2.6862 3.95467,-6.10387 -1.77183,-1.77183 -2.83953,-1.97878 -7.42714,-1.4396 -5.98459,0.70338 -8.02029,-0.64873 -5.20935,-3.46003 1.24193,-1.24208 3.5054,-1.65404 9.08796,-1.65404 6.39872,0 7.75173,0.31685 9.71449,2.27496 2.08346,2.07853 2.30866,3.33604 2.60795,14.56317 0.36762,13.78989 -0.3634,15.74175 -5.08916,13.58855 -1.81991,-0.82921 -3.03724,-0.83712 -4.54619,-0.0296 -3.40401,1.82177 -9.94173,1.35338 -12.16679,-0.87168 z m 13.71897,-5.22828 c 1.62499,-1.34862 1.62908,-6.50523 0.006,-7.04972 -0.6875,-0.23057 -2.77833,-0.0756 -4.64629,0.34435 -5.05567,1.13665 -6.54442,4.32464 -3.45995,7.40911 1.70965,1.70965 5.5999,1.37169 8.10065,-0.70374 z M 111.5,156.57174 c -0.55,-0.23196 -4.0375,-0.71631 -7.75,-1.07634 -11.651528,-1.12992 -7.363861,-2.03874 7.772,-1.64736 21.88587,0.56592 38.36646,-1.55059 57.478,-7.38159 l 2.5,-0.76276 -2.39363,2.6155 c -2.59174,2.83196 -8.166,4.94655 -17.60637,6.67896 -6.01207,1.10329 -38.12014,2.3664 -40,1.57359 z m -10.80713,-6.63575 c -20.673354,-1.48168 -27.845592,-3.48966 -26.353468,-7.37808 0.773222,-2.01498 7.613039,-5.36676 12.568832,-6.15923 4.927039,-0.78786 5.56221,0.89028 0.848632,2.24212 -1.783723,0.51156 -3.384542,1.6644 -3.557376,2.56185 -0.595738,3.09342 9.242423,4.29994 34.80051,4.26782 24.90556,-0.0313 35.70942,-1.17076 42.44543,-4.47662 4.31006,-2.11526 5.5701,-1.92241 3.52668,0.53976 -3.28845,3.96233 -15.83153,6.97153 -35.22614,8.45106 -7.28528,0.55576 -14.37097,0.94644 -15.74597,0.86817 -1.375,-0.0783 -7.36321,-0.49085 -13.30713,-0.91685 z M 112,137.37413 c -10.89133,-2.11553 -16.170023,-6.60722 -11.01019,-9.36868 1.48508,-0.79479 2.56312,-0.70539 4.25,0.35243 3.4113,2.13919 13.76225,2.87411 22.88589,1.62491 6.22646,-0.85252 8.82667,-0.83095 11.05419,0.0917 7.18642,2.97672 -0.85433,6.64317 -16.17989,7.37778 -4.675,0.22409 -9.625,0.18892 -11,-0.0782 z m -7.87975,-15.38611 c -8.365367,-1.77255 -11.672479,-5.86802 -6.603458,-8.17762 2.132916,-0.97183 2.730418,-0.85416 3.917368,0.77143 1.22157,1.67302 2.95707,1.96111 13.57918,2.25411 6.69824,0.18477 15.10695,-0.174 18.68602,-0.79727 5.56717,-0.96948 6.85828,-0.90331 8.93588,0.45799 1.33567,0.87516 2.1851,1.98501 1.88763,2.46634 -1.68708,2.72974 -31.32394,4.94871 -40.40262,3.02502 z M 154,120.36565 c 0,-0.28213 2.44267,-2.74542 5.42816,-5.47399 6.22682,-5.69096 7.68011,-9.55127 5.08617,-13.51013 -0.91434,-1.395461 -3.03481,-3.015612 -4.71216,-3.60034 -2.62017,-0.913395 -2.80941,-1.197635 -1.34351,-2.017991 C 163.63113,92.868538 172,99.03947 172,105.74814 c 0,2.93972 -0.79716,4.3585 -4.375,7.78668 -3.67105,3.51749 -13.625,8.50785 -13.625,6.83083 z M 94.463907,108.01052 C 87.030621,106.91833 85,106.06978 85,104.05576 c 0,-2.10623 7.060687,-5.443243 13.876555,-6.558316 4.928795,-0.806348 5.003605,0.481127 0.144901,2.493669 -5.081786,2.104947 -3.725877,3.772817 3.728544,4.586397 6.07794,0.66335 33.4585,-0.81425 42.1274,-2.27342 4.97462,-0.83733 3.5914,1.82747 -1.75154,3.37439 -9.9948,2.89376 -36.2693,4.15293 -48.661953,2.33204 z M 130.61441,95.009884 c 0.52764,-3.299684 0.20926,-4.554192 -1.83997,-7.25 -5.86157,-7.71103 -7.23954,-14.026014 -4.30066,-19.709175 2.01057,-3.888014 8.90224,-9.61661 14.98895,-12.459341 10.58963,-4.945768 12.76455,-4.29363 4.48978,1.346229 C 137.18774,61.548275 131,68.400899 131,71.281876 c 0,1.27961 1.39265,4.522539 3.09477,7.20651 5.65747,8.920902 5.68396,11.9655 0.15452,17.761614 -3.56839,3.740493 -4.38667,3.461321 -3.63488,-1.240116 z M 113.94189,88.25 C 108.36674,82.1541 105.05573,76.119689 105.0257,72 c -0.0274,-3.760309 3.06226,-8.094052 10.04899,-14.09528 17.67907,-15.185368 20.05192,-18.223233 21.38958,-27.384121 0.66954,-4.585384 0.8382,-4.827431 2.1314,-3.05887 2.14376,2.931767 1.663,9.44061 -1.14248,15.467521 -1.80026,3.867439 -5.36741,8.182429 -12.40031,15 -5.43018,5.263912 -10.36351,10.553666 -10.96296,11.755009 -2.19855,4.406017 -1.28264,9.622471 2.91008,16.574103 2.2,3.647649 4,6.881738 4,7.186864 0,1.672713 -2.37712,-0.077 -7.05811,-5.195226 z"
       id="path2992"
       inkscape:connector-curvature="0" />
    <path
       style="fill:#6ffdfd"
       d="M 105.83431,250.43344 C 67.783469,243.54824 34.6936,219.39932 16.839603,185.48527 2.2298069,157.73366 -1.3175929,127.21902 6.48859,96.446137 13.763197,67.768785 32.387513,41.712242 58.102749,24.234812 70.339907,15.917794 91.100299,7.7048179 107,4.8906704 118.82746,2.7972844 141.49277,3.2912397 153.93362,5.9135158 219.22787,19.676203 262.33941,81.094265 252.50486,146.3412 c -1.66013,11.01412 -6.77168,27.2711 -11.58023,36.83029 -17.5794,34.94705 -52.23023,60.57521 -90.8772,67.21384 -11.47795,1.97164 -33.45068,1.99555 -44.21312,0.0481 z m 41.2847,-15.90121 c 27.31594,-4.78388 51.80672,-19.85631 69.10946,-42.53223 6.15651,-8.06835 15.02509,-26.05407 17.71952,-35.93569 C 245.38583,114.11704 229.61617,68.241277 194.69834,41.882494 184.92546,34.505142 169.77655,26.983486 157.84886,23.586187 95.326643,5.7783331 30.237934,47.141357 19.974779,111.20336 18.040686,123.27586 19.197436,144.29119 22.440528,156 31.87609,190.06602 57.68685,217.68908 91.5,229.90849 c 15.99864,5.78159 38.38241,7.6424 55.61901,4.62374 z M 72.987152,215.48452 c -1.062108,-1.27976 -0.939676,-1.92218 0.717308,-3.76384 3.594779,-3.99541 3.763058,-5.00622 4.281986,-25.72068 L 78.5,165.5 l 2.5,0 2.5,0 0.259264,20.5 c 0.28982,22.9161 -0.326015,25.7396 -6.375338,29.22982 -2.795913,1.61313 -3.247659,1.6393 -4.396774,0.2547 z m 20.32822,-9.4915 c -4.557338,-1.83619 -5.758769,-8.88832 -2.269886,-13.32372 2.09391,-2.66197 7.306301,-4.65379 12.204514,-4.66372 2.38038,-0.005 2.75,-0.40407 2.75,-2.9704 0,-4.06519 -2.86583,-5.44384 -9.657033,-4.64567 C 92.018848,180.89773 91,180.73648 91,179.54392 c 0,-3.56886 12.09838,-5.42316 17.2935,-2.65055 3.67384,1.96071 4.7065,5.86344 4.7065,17.78724 0,8.68052 -0.26756,10.48483 -1.63247,11.0086 -0.89785,0.34454 -2.47963,0.0974 -3.51507,-0.54928 -1.48357,-0.9265 -2.50476,-0.85397 -4.81787,0.34218 -3.24805,1.67963 -6.406437,1.84566 -9.719218,0.51091 z m 11.072208,-5.28716 c 1.24313,-0.909 1.67202,-2.32262 1.44113,-4.75 -0.31283,-3.28892 -0.50898,-3.45043 -4.06051,-3.34341 -2.052486,0.0618 -4.414986,0.67945 -5.249997,1.37244 -1.817487,1.50838 -1.987329,5.14598 -0.318203,6.81511 1.581014,1.58101 5.96562,1.5306 8.18758,-0.0941 z M 151,206.29056 c -3.46957,-1.27574 -5,-3.6544 -5,-7.77123 0,-5.58091 3.14556,-8.51232 10.75889,-10.02642 4.56131,-0.90713 5.80342,-1.56323 6.04433,-3.19269 0.57706,-3.90322 -2.53798,-5.61286 -8.99687,-4.93777 -5.26389,0.55019 -5.80635,0.42809 -5.80635,-1.30688 0,-1.50979 1.13715,-2.14984 5.38694,-3.0321 6.21298,-1.28981 10.17444,-0.61329 13.36306,2.28208 2.11018,1.91612 2.25,2.84007 2.25,14.86876 0,11.684 -0.16023,12.82569 -1.8,12.82569 -0.99,0 -2.26033,-0.46033 -2.82295,-1.02295 -0.69727,-0.69727 -2.18341,-0.53808 -4.66788,0.5 -3.74033,1.56281 -6.07759,1.78113 -8.70917,0.81351 z m 10.41997,-6.20213 c 1.0233,-1.13073 1.5972,-3.071 1.40499,-4.75 -0.26015,-2.27237 -0.88628,-2.90278 -3.1396,-3.16109 -5.61985,-0.64424 -9.96935,5.13867 -6.48536,8.62266 1.82123,1.82123 6.27687,1.43553 8.21997,-0.71157 z m -36.36601,3.5535 C 123.29138,199.00598 117,178.33361 117,177.17801 117,176.53011 118.29541,176 119.87868,176 c 3.17636,0 3.31975,0.25001 7.16917,12.5 3.5411,11.26881 3.91151,11.13101 7.29097,-2.71236 2.15555,-8.8298 2.40751,-9.30394 5.11122,-9.61824 2.81875,-0.32768 2.83859,-0.29184 2.24322,4.05184 -0.76243,5.56257 -5.42299,20.5702 -7.30675,23.52876 -2.07005,3.25112 -8.08185,3.18151 -9.33255,-0.10807 z M 106.65802,155.25 c -0.253,-0.4125 5.90794,-0.81806 13.69099,-0.90125 18.96485,-0.2027 36.09521,-2.71834 46.90099,-6.88753 0.9625,-0.37136 1.75,-0.22661 1.75,0.32166 0,1.90036 -8.98432,5.20616 -18.21968,6.70397 -9.67349,1.56887 -43.27168,2.14999 -44.1223,0.76315 z M 89.237632,148.48645 C 75.446059,146.73614 72.71653,145.56723 74.793045,142.30062 75.81189,140.69785 83.98781,137.03929 86.5,137.062 c 1.673328,0.0151 1.550826,0.26176 -0.75,1.50997 -3.639057,1.97423 -3.468293,3.22996 0.674627,4.96098 11.435089,4.77789 68.256353,3.14775 76.448493,-2.19322 1.37414,-0.89588 2.05649,-1.03486 1.62095,-0.33014 -1.19611,1.93535 -8.89893,4.96676 -16.75694,6.59463 -10.52477,2.18031 -44.26222,2.68911 -58.499498,0.88223 z m 16.534868,-13.0798 c -5.25863,-1.61741 -7.628315,-4.4515 -5.32228,-6.36533 1.08432,-0.89991 2.46746,-0.80907 6.01393,0.39499 4.90937,1.66677 16.73831,1.98775 24.7303,0.67104 3.30205,-0.54402 5.6749,-0.35811 8,0.62677 3.10607,1.3157 3.1933,1.48309 1.44545,2.77379 -4.77589,3.52675 -25.84413,4.67405 -34.8674,1.89874 z m 2.01232,-13.35217 c -10.486854,-1.43672 -14.816512,-4.51802 -10.548769,-7.50726 1.952557,-1.36763 2.315359,-1.33247 3.909679,0.37883 2.46538,2.64627 15.48524,3.61102 28.21569,2.09073 10.26083,-1.22537 15.06233,-0.80135 14.38257,1.2701 -0.90032,2.74355 -25.00187,5.26877 -35.95917,3.7676 z m 53.2628,-8.00686 C 165.15194,109.9433 166,108.47808 166,105.49125 c 0,-2.78424 -0.73306,-4.27354 -3.22286,-6.547621 L 159.55428,96 l 2.75804,0 c 5.65977,0 10.69006,6.13209 9.16815,11.17628 -0.87839,2.91133 -6.11334,8.54008 -9.68081,10.40904 -5.37237,2.81453 -5.67599,1.38625 -0.75204,-3.5377 z M 100.5,107.86976 C 90.249177,107.20004 85,105.87886 85,103.96852 c 0,-1.20593 6.877255,-4.474057 11.5,-5.464884 l 3,-0.643012 -2.25,1.97998 c -3.161401,2.782006 -2.812395,3.963266 1.404699,4.754396 3.744791,0.70253 33.869141,-0.10002 42.845301,-1.14145 4.50717,-0.52293 4.82141,-0.43534 3.18811,0.88867 -3.52879,2.86055 -26.42296,4.6882 -44.18811,3.52754 z M 131,94.135673 c 0,-2.831525 -0.97101,-5.377606 -3.46331,-9.081153 -4.71306,-7.003578 -5.30855,-10.828612 -2.56739,-16.491104 2.3052,-4.761914 8.94272,-10.37523 15.51581,-13.121642 5.94546,-2.484171 6.23406,-1.140033 0.63734,2.968337 C 134.55372,63.232002 131,67.87249 131,71.628113 c 0,1.657797 1.52598,5.3079 3.5,8.371887 1.925,2.987906 3.5,6.482578 3.5,7.765938 0,3.172676 -2.58646,7.942375 -5.01035,9.239601 C 131.16015,97.98466 131,97.753667 131,94.135673 z m -16.71948,-6.432578 c -8.63001,-9.124962 -10.49261,-15.447122 -6.46686,-21.950254 1.10752,-1.789063 6.66425,-7.107734 12.34829,-11.819269 11.12325,-9.220121 15.66282,-15.208252 16.55137,-21.832847 0.64345,-4.797298 1.86042,-5.317971 2.7683,-1.184404 1.59199,7.248276 -3.60548,16.421524 -15.2738,26.957413 -9.25345,8.355387 -12.76634,14.16459 -11.70868,19.36241 0.36527,1.795121 2.24807,5.880682 4.184,9.079024 1.93592,3.198343 3.31919,6.01584 3.07392,6.261106 -0.24527,0.245266 -2.70971,-1.947665 -5.47654,-4.873179 z"
       id="path2990"
       inkscape:connector-curvature="0" />
    <path
       style="fill:#4efdfd"
       d="M 111.5,250.85477 C 73.217851,245.97526 37.745442,222.04867 18.614267,188.20216 13.755533,179.60618 8.4899424,166.12781 5.8169441,155.44476 3.9131414,147.83591 3.5729934,143.737 3.5394421,128 3.5029733,110.89462 3.710863,108.69136 6.2971567,98.773181 13.823161,69.911703 28.00335,48.020305 50.5,30.532766 73.593894,12.580965 98.684632,4.0045559 128.11901,4.0013671 c 35.31932,-0.00383 66.25997,13.1078829 90.68513,38.4296129 13.24395,13.730085 22.6776,29.242348 28.6152,47.053491 9.82336,29.467339 7.28131,65.002809 -6.65393,93.015529 -11.62246,23.36355 -32.92932,44.6141 -56.59392,56.44435 C 163.2263,249.41513 135.65598,253.93374 111.5,250.85477 z M 150,234.3637 c 20.52228,-4.18654 38.77128,-13.63651 53.90736,-27.91512 9.28677,-8.76067 15.93015,-17.65471 21.99653,-29.44858 9.30631,-18.09273 12.76467,-34.03692 11.80194,-54.41074 C 236.80488,103.52295 231.50156,86.494755 221.43354,70.341287 215.37465,60.620185 201.08329,45.689974 191.48699,39.056055 136.86233,1.2940569 62.442093,18.950507 31.079001,77.113387 22.01573,93.921231 18.628677,107.97529 18.694735,128.5 c 0.04103,12.74706 0.427702,16.43794 2.574467,24.57377 3.544484,13.43291 7.86016,23.25341 14.944651,34.00717 21.164152,32.1257 58.310887,51.14498 96.286147,49.29888 5.5,-0.26737 13.375,-1.17462 17.5,-2.01612 z M 73,214.31445 c 0,-0.92705 1.0125,-2.76225 2.25,-4.07823 2.163076,-2.30024 2.261847,-3.2033 2.556644,-23.37541 l 0.306645,-20.98272 2.693355,0.31095 L 83.5,166.5 l 0.300401,17 c 0.375254,21.23595 -0.08728,24.61821 -3.971594,29.0422 C 76.598987,216.22076 73,217.15479 73,214.31445 z M 91.07258,203.36514 C 86.09313,197.0348 91.486366,189 100.71496,189 c 5.77963,0 8.12967,-4.02066 4.34956,-7.44161 -1.49244,-1.35064 -3.26644,-1.67224 -7.749996,-1.40498 C 92.73399,180.42644 91.5,180.19123 91.5,179.04508 c 0,-1.82396 3.470873,-2.81694 10.29545,-2.9454 4.36679,-0.0822 5.72592,0.33078 7.75,2.35487 2.33303,2.33302 2.45455,3.04797 2.45455,14.44098 0,6.59254 -0.4317,12.25324 -0.95932,12.57933 -0.52763,0.32609 -1.84429,0.0402 -2.92591,-0.63526 -1.53386,-0.95791 -2.54334,-0.96536 -4.58773,-0.0339 -4.709768,2.14591 -10.126125,1.51941 -12.45446,-1.44059 z m 14.22594,-3.18232 c 1.16433,-1.02327 1.69326,-2.6565 1.5,-4.63172 -0.26739,-2.73298 -0.6851,-3.0832 -4.00618,-3.35894 C 97.345805,191.73994 95,193.35811 95,197.56741 c 0,2.69469 0.516234,3.7024 2.25,4.39211 2.654709,1.05606 5.55331,0.4162 8.04852,-1.7767 z m 20.98078,4.61825 C 124.88466,203.07351 118,180.8209 118,178.04066 c 0,-1.68851 0.50708,-2.10774 2.25,-1.86021 1.90086,0.26996 2.78335,1.94888 5.68711,10.81955 1.89041,5.775 3.58541,10.695 3.76667,10.93333 1.00326,1.31919 2.80637,-2.85832 4.77645,-11.06624 2.22532,-9.27126 4.28606,-12.5008 6.53905,-10.24781 1.35525,1.35525 -0.99254,11.96381 -4.84243,21.88072 -2.47471,6.37459 -2.99133,7.0269 -5.78235,7.30107 -1.68567,0.16558 -3.53751,-0.28442 -4.1152,-1 z m 21.75966,-0.98963 c -2.2046,-2.36635 -2.65693,-6.78824 -1.00932,-9.86683 1.41144,-2.63729 6.1849,-4.94461 10.22957,-4.94461 1.84719,0 4.23204,-0.6496 5.29966,-1.44354 1.79423,-1.3343 1.82647,-1.65279 0.4261,-4.20847 -1.76105,-3.21389 -4.95689,-4.23779 -10.25651,-3.28601 -2.11724,0.38025 -4.0309,0.25767 -4.36286,-0.27945 -1.20191,-1.94472 1.85504,-3.22962 8.58896,-3.61012 6.35535,-0.35911 7.12634,-0.18242 9.48165,2.17289 2.46653,2.46653 2.56379,3.0185 2.56379,14.55023 0,6.59254 -0.4317,12.25324 -0.95932,12.57933 -0.52763,0.32609 -1.84429,0.0402 -2.92591,-0.63526 -1.53386,-0.95791 -2.54334,-0.96536 -4.58773,-0.0339 -4.31437,1.96575 -10.16431,1.49999 -12.48808,-0.99429 z m 14.26084,-4.02636 c 0.98989,-1.17131 1.66489,-3.28962 1.5,-4.70736 C 163.17151,189.67562 151,191.97901 151,197.5 c 0,0.825 0.939,2.439 2.08666,3.58666 2.50648,2.50648 6.46784,1.94684 9.21314,-1.30158 z m -20.53581,-45.95491 c 3.9952,-0.50147 11.3077,-1.9312 16.25,-3.17718 C 162.9563,149.407 167,148.5138 167,148.6681 c 0,0.1543 -1.38108,0.99472 -3.06907,1.86762 -4.20636,2.17519 -16.90674,4.49163 -23.7689,4.33524 l -5.66203,-0.12904 7.26399,-0.91175 z M 104,149.32827 c -10.21405,-0.73157 -24.39998,-2.52984 -26.622237,-3.37474 -3.237484,-1.23089 -2.98904,-3.58607 0.572577,-5.42785 3.961064,-2.04835 4.852887,-1.9282 5.230109,0.70462 0.521579,3.64035 8.302062,4.90765 31.319551,5.10137 11,0.0926 24.275,-0.13734 29.5,-0.51094 9.07005,-0.64852 9.30267,-0.61601 5.13994,0.71838 C 141.36507,149.0314 119.08,150.40838 104,149.32827 z m 4.28431,-13.76239 C 102.61245,134.19129 100,132.54526 100,130.34617 c 0,-2.05797 2.76849,-2.7832 4.65327,-1.21897 2.34076,1.94266 13.44714,2.73368 23.56556,1.67839 6.34301,-0.66154 9.32141,-0.58683 10.93022,0.27418 2.06692,1.10618 2.09727,1.26694 0.46457,2.46081 -4.35277,3.18282 -21.8783,4.31577 -31.32931,2.0253 z m -4.59404,-14.66311 C 98.633548,119.71305 96,118.2299 96,116.57181 c 0,-2.25274 3.136555,-2.75834 5.24774,-0.84592 1.66643,1.50954 3.9191,1.77411 15.10538,1.77411 7.23078,0 15.62188,-0.34111 18.64688,-0.75802 5.2378,-0.72189 9.33001,0.26135 7.73328,1.85807 -2.72785,2.72785 -30.31936,4.35517 -39.04301,2.30272 z M 159,117 c 0,-0.55 0.39659,-1 0.88131,-1 1.48283,0 6.11536,-6.73337 6.72308,-9.77197 0.43263,-2.16313 -0.0607,-3.61684 -2.01579,-5.94037 -3.17727,-3.775965 -3.25406,-4.62424 -0.3386,-3.740113 4.00864,1.215637 6.75,4.542843 6.75,8.192513 0,4.55373 -1.33148,6.76312 -6.20202,10.29132 C 160.49079,118.1515 159,118.65767 159,117 z M 93.35118,107.06533 C 87.829705,106.18359 86,105.4147 86,103.97617 c 0,-1.08522 3.202555,-2.88708 7.136817,-4.015409 2.564776,-0.735568 2.757852,-0.632466 1.881627,1.004779 -1.755882,3.28089 1.099871,4.22951 13.208086,4.38743 6.20041,0.0809 16.89847,-0.15784 23.77347,-0.53047 12.23667,-0.66322 12.38414,-0.64651 7,0.79343 -6.42341,1.71789 -37.74083,2.71225 -45.64882,1.4494 z M 132.0316,94.389547 c -0.0174,-1.710749 -1.15147,-4.760667 -2.52019,-6.777596 -7.65263,-11.276786 -7.44069,-18.076797 0.78861,-25.30222 3.56336,-3.12867 12.46852,-7.874529 13.27066,-7.072383 0.25646,0.256462 -1.57343,2.055427 -4.06642,3.9977 -10.0851,7.857228 -11.03337,11.866019 -5.0861,21.501351 4.2651,6.910008 4.28267,9.219278 0.1063,13.966137 L 132.0632,97.5 132.0316,94.389547 z M 112.69148,85.75 C 103.15688,73.978627 103.75305,68.38195 115.60507,58.398049 131.15352,45.300357 137,38.386973 137,33.098855 c 0,-1.089452 0.45,-2.258936 1,-2.598855 1.41705,-0.875787 1.2693,6.776625 -0.197,10.202947 C 135.56861,45.924055 130.19917,52.483728 124.05371,57.5 116.28627,63.840232 112,70.088038 112,75.069899 c 0,2.192087 1.21351,6.033936 2.94658,9.328555 3.50325,6.659786 2.5212,7.248355 -2.2551,1.351546 z"
       id="path2988"
       inkscape:connector-curvature="0" />
    <path
       style="fill:#2ffdfd"
       d="M 105.92173,249.44821 C 25.92685,234.96223 -18.997264,149.93547 14.503426,76.42304 25.532239,52.221903 47.226859,29.850946 71.5,17.64958 c 59.0484,-29.681825 131.21178,-8.6417665 164.63175,48.000268 5.91094,10.018193 11.3517,23.742177 14.10015,35.566752 3.21294,13.82296 3.13836,40.39569 -0.15095,53.7834 -5.96296,24.26963 -15.96696,42.07219 -33.48786,59.59309 -18.89637,18.89636 -40.79683,30.40123 -66.39507,34.87902 -10.74773,1.88005 -33.83105,1.86759 -44.27629,-0.0239 z m 40.36822,-13.93954 c 24.0292,-4.19034 43.77448,-14.47391 60.81019,-31.67065 35.78888,-36.12717 41.62711,-91.79835 14.09204,-134.376565 C 190.29676,21.687028 128.68169,4.9367562 78,30.53416 46.942242,46.22026 23.797372,78.086824 18.942009,111.84701 c -1.614687,11.2272 -0.683679,31.34405 1.933959,41.78821 10.387084,41.44363 45.469811,74.12381 87.779302,81.76798 10.47106,1.89183 27.1233,1.9385 37.63468,0.10547 z M 73.451982,214.92231 c -0.363836,-0.5887 0.398127,-2.19709 1.693249,-3.5742 2.282776,-2.42729 2.370056,-3.15115 2.854769,-23.67598 0.496469,-21.02261 0.515889,-21.17439 2.75,-21.49168 l 2.25,-0.31955 0,20.61921 c 0,16.47459 -0.304914,21.20885 -1.516927,23.55262 -1.7473,3.37891 -6.99147,6.57172 -8.031091,4.88958 z M 94,205.30602 c -2.513311,-0.89824 -4,-3.51578 -4,-7.0426 0,-4.74832 3.502943,-7.9359 9.624444,-8.75797 C 106.68278,188.55757 107,188.36613 107,185.05444 c 0,-4.45585 -3.61837,-6.49538 -10.017542,-5.6465 -6.177803,0.81951 -6.70366,-0.86738 -0.768582,-2.46553 5.721174,-1.54055 10.796604,-0.57332 13.536124,2.57959 2.03694,2.34431 2.25,3.6203 2.25,13.47475 0,5.98687 -0.4317,11.15202 -0.95932,11.47811 -0.52763,0.32609 -1.79294,0.0723 -2.81179,-0.56399 -1.4546,-0.90841 -2.52656,-0.8083 -4.99102,0.46612 -3.12878,1.61796 -6.391968,1.94613 -9.23787,0.92903 z m 10.83041,-3.89979 c 1.85536,-1.29954 2.2195,-2.36105 1.97251,-5.75 L 106.5,191.5 l -4.23953,0.0855 c -7.019054,0.14161 -10.534915,5.24374 -6.605482,9.58572 2.038873,2.25293 6.144282,2.35806 9.175422,0.23497 z m 44.18037,2.80359 c -1.56726,-1.2691 -2.21078,-2.87793 -2.21078,-5.52705 0,-5.97027 3.10432,-8.52326 11.62911,-9.56381 4.57631,-0.55859 5.10118,-0.88127 5.38147,-3.30838 0.20088,-1.73957 -0.4607,-3.4607 -1.8732,-4.8732 -1.90069,-1.90069 -2.8808,-2.10186 -7.56058,-1.55185 -6.48161,0.76179 -7.22956,-0.80954 -1.16292,-2.44312 5.29902,-1.42688 10.56081,-0.61217 13.21988,2.04691 1.78085,1.78084 2.10164,3.57525 2.4174,13.52209 0.3132,9.86643 0.13768,11.55564 -1.25628,12.09056 -0.89119,0.34198 -2.25729,0.0932 -3.03578,-0.55292 -1.09698,-0.91042 -2.09537,-0.82309 -4.43761,0.38812 -3.99933,2.06814 -8.38676,1.97836 -11.11071,-0.22735 z m 13.57845,-3.28387 C 163.36515,200.28199 164,198.01878 164,195.89661 c 0,-3.25116 -0.38215,-3.95442 -2.42783,-4.46785 C 156.90288,190.25684 151,193.54965 151,197.32625 c 0,3.54436 3.05955,5.92577 6.82762,5.3143 1.84296,-0.29907 3.98569,-1.07064 4.76161,-1.7146 z M 125.62967,203.25 c -0.27781,-0.9625 -2.10814,-6.95739 -4.06739,-13.32199 C 119.60303,183.56342 118,178.05092 118,177.67801 c 0,-1.13191 3.83301,-0.75723 4.57754,0.44746 0.38257,0.61901 1.98487,5.41975 3.56067,10.66832 1.57581,5.24857 3.12614,9.8039 3.4452,10.12296 1.27864,1.27864 3.44673,-3.67017 5.4992,-12.55227 C 136.9314,178.36382 137.53967,177 139.2592,177 c 1.7931,0 1.94871,0.4636 1.42647,4.25 -0.57652,4.17993 -5.05301,18.57321 -6.84229,22 -0.59731,1.14397 -2.09029,1.75 -4.31118,1.75 -2.37655,0 -3.5492,-0.52585 -3.90253,-1.75 z M 96.5,148.34364 c -20.126342,-2.39303 -22.788669,-3.2622 -19.870241,-6.48702 2.152516,-2.37851 4.998865,-2.38476 5.619263,-0.0124 0.874903,3.34563 7.9095,4.36466 34.250978,4.96159 16.42451,0.3722 23.2849,0.81563 20,1.29273 -5.02826,0.73031 -34.40513,0.91029 -40,0.24506 z m 9.35739,-13.85382 c -4.55389,-1.45928 -6.765334,-3.81065 -4.75336,-5.05411 0.55918,-0.34559 2.45202,-0.0225 4.20633,0.71797 3.48234,1.46986 20.39635,1.84927 27.26955,0.6117 2.90507,-0.52308 4.6328,-0.32863 6,0.6753 1.83759,1.34933 1.79118,1.46238 -1.07991,2.63098 -4.71521,1.9192 -26.07745,2.2015 -31.64261,0.41816 z m 0.18377,-13.5627 c -6.576532,-1.16954 -10.788265,-3.58001 -9.13825,-5.23003 0.822285,-0.82228 1.874382,-0.66915 3.99041,0.58082 3.46165,2.04485 17.85427,2.66196 31.85668,1.36593 6.19818,-0.57369 9.25,-0.51855 9.25,0.16713 0,2.63027 -26.01431,4.88464 -35.95884,3.11615 z M 162.70072,113.75 c 4.77685,-5.24455 5.51645,-9.9329 2.2267,-14.115141 -2.20354,-2.801354 -0.84,-3.655798 2.15924,-1.353056 4.96445,3.811587 4.67445,9.964737 -0.69171,14.676287 -4.01927,3.52896 -6.71318,4.10644 -3.69423,0.79191 z M 91,106.268 c -1.375,-0.2528 -3.121092,-0.97025 -3.880205,-1.59432 -1.113245,-0.91522 -0.629693,-1.46769 2.5,-2.85632 3.648292,-1.61873 3.900948,-1.6199 4.22727,-0.0195 0.190885,0.93618 0.775173,2.15214 1.298416,2.70214 0.523244,0.55 8.467069,1.25487 17.652939,1.56638 l 16.70158,0.56637 -18,0.0474 C 101.6,106.70629 92.375,106.5208 91,106.268 z m 40.75,-0.93028 c 0.6875,-0.27741 1.8125,-0.27741 2.5,0 0.6875,0.27741 0.125,0.50439 -1.25,0.50439 -1.375,0 -1.9375,-0.22698 -1.25,-0.50439 z m 0.2816,-11.871442 c -0.0179,-1.72096 -1.54324,-5.380025 -3.52491,-8.4559 -5.88946,-9.141365 -5.83047,-13.432468 0.27757,-20.193339 C 131.67389,61.618561 138.48249,57 140.30799,57 c 0.21321,0 -2.01886,2.406522 -4.96016,5.347826 C 128.66687,69.028779 128.35445,72.013297 133.5,80 c 4.13424,6.416991 4.39449,9.871734 1.0316,13.694236 L 132.0632,96.5 132.0316,93.466278 z M 112.43073,84.75 c -1.51088,-1.7875 -3.60978,-5.191533 -4.66423,-7.564518 -3.21913,-7.244544 -1.11636,-10.915885 12.89367,-22.511722 10.32586,-8.546518 13.71717,-12.309816 15.47586,-17.17341 1.49816,-4.143071 3.18376,-4.703196 2.25806,-0.75035 -1.4817,6.327062 -4.31952,10.29505 -14.48234,20.25 -13.50477,13.228548 -14.92722,17.364135 -9.54471,27.75 0.92638,1.7875 1.48777,3.25 1.24753,3.25 -0.24023,0 -1.67296,-1.4625 -3.18384,-3.25 z"
       id="path2986"
       inkscape:connector-curvature="0" />
    <path
       style="fill:#03fdfd"
       d="M 116,250.37512 C 86.53255,246.62987 62.263334,235.47659 42.012673,216.37314 24.641258,199.98583 13.117792,179.61422 6.7304977,154 4.1137173,143.50623 3.6489664,116.79628 5.8866017,105.5 10.949968,79.938538 23.315848,57.403846 42.155676,39.405842 60.795882,21.598541 82.799322,10.66543 108.50241,6.4393529 c 15.16528,-2.4934623 35.37046,-1.5303354 50.78509,2.4207895 47.21905,12.1033356 82.96093,50.4822026 91.24293,97.9747076 1.93859,11.11671 1.88862,31.73518 -0.10236,42.23076 -3.50125,18.4571 -10.77671,35.75008 -21.03469,49.99716 -6.60698,9.17628 -20.25619,22.71618 -29.39338,29.15796 -13.24155,9.33538 -31.72554,17.10879 -48.24782,20.29053 -8.30402,1.59913 -29.24538,2.69086 -35.75218,1.86386 z m 25.5,-13.48368 c 44.90901,-5.50345 82.07654,-37.53984 94.0721,-81.08502 3.19532,-11.59935 4.30971,-31.34923 2.47636,-43.88756 C 231.68988,68.432234 198.80886,32.480089 154.92698,21.033727 144.6045,18.341162 122.85882,17.228391 112.42343,18.858733 80.515527,23.843768 52.539172,41.620436 35.213853,67.919056 28.158532,78.62854 23.846993,88.418149 20.236417,101.92623 17.98133,110.36308 17.677442,113.45943 17.677442,128 c 0,14.62295 0.296986,17.61228 2.610617,26.27735 5.310424,19.88874 15.838628,37.78974 30.540904,51.92837 25.039604,24.07966 56.817797,34.83433 90.671037,30.68572 z M 74,214.31445 c 0,-0.37705 1.0125,-1.76225 2.25,-3.07823 2.162611,-2.29975 2.26189,-3.20527 2.556131,-23.31445 C 79.098025,167.97304 79.202668,167 81.056131,167 c 1.851716,0 1.941804,0.81777 1.900318,17.25 -0.05188,20.55035 -0.797751,25.35658 -4.418327,28.47087 C 75.920604,214.97236 74,215.64679 74,214.31445 z m 18.49113,-10.69728 c -2.808984,-2.05398 -2.563889,-8.33008 0.419654,-10.74601 3.46454,-2.80541 4.433279,-2.25554 1.948136,1.10579 -1.879564,2.54225 -2.029858,3.35247 -1.029249,5.54856 0.644438,1.41439 2.633896,3.20715 4.421017,3.98391 l 3.249312,1.4123 -3.55887,0.0391 c -1.957379,0.0215 -4.409879,-0.58313 -5.45,-1.34369 z m 34.23964,0.63283 c -1.49838,-2.90185 -7.93844,-26.37566 -7.38738,-26.92673 1.43326,-1.43326 3.25332,2.07005 6.21299,11.95899 3.86717,12.92108 5.4476,13.67623 8.43352,4.02964 1.15967,-3.74654 2.37421,-8.73669 2.69896,-11.0892 0.61786,-4.4757 1.84151,-6.09233 3.41807,-4.51577 1.01306,1.01306 -2.90534,15.77452 -6.11673,23.04307 -1.48634,3.36411 -2.39827,4.25 -4.37495,4.25 -1.37347,0 -2.67148,-0.3375 -2.88448,-0.75 z M 149,203 c -2.70273,-2.70273 -2.51846,-6.57245 0.45455,-9.54545 3.42626,-3.42627 5.06113,-3.07105 2.40437,0.5224 -1.87956,2.54225 -2.02986,3.35247 -1.02925,5.54856 0.64444,1.41439 2.6339,3.20715 4.42102,3.98391 l 3.24931,1.4123 -3.75,0.0391 C 152.29374,204.9865 150.31001,204.31001 149,203 z m -41.30984,-0.4358 c -1.14375,-0.86718 -1.41978,-1.61327 -0.75,-2.02722 1.68873,-1.04369 1.29623,-8.30531 -0.50335,-9.3124 -1.41758,-0.79332 -1.41758,-0.99565 0,-2.17214 2.12074,-1.76006 1.96744,-5.33245 -0.35154,-8.19166 -1.6437,-2.02662 -2.74068,-2.34294 -7.749995,-2.23471 -4.102143,0.0886 -5.092751,-0.10453 -3.335275,-0.65032 4.919589,-1.52781 10.62356,-1.0597 13.36514,1.09683 2.57185,2.02302 2.63486,2.34585 2.63486,13.5 0,6.28508 -0.3375,11.41311 -0.75,11.39562 -0.4125,-0.0175 -1.56443,-0.64929 -2.55984,-1.404 z m 57.05323,0.352 c -1.35479,-0.78897 -1.52635,-1.45323 -0.75,-2.90385 1.60461,-2.99824 1.20694,-7.79281 -0.74339,-8.96266 -1.66667,-0.9997 -1.66667,-1.09968 0,-2.09938 2.3022,-1.38091 2.22559,-5.14238 -0.16477,-8.08953 -1.64257,-2.02517 -2.74432,-2.34363 -7.75,-2.24016 -3.81459,0.0789 -5.14266,-0.15651 -3.83523,-0.67971 1.1,-0.44019 4.15795,-0.83197 6.79545,-0.87062 3.81503,-0.0559 5.29729,0.43154 7.25,2.38426 2.30977,2.30976 2.45455,3.10606 2.45455,13.5 0,6.075 -0.3375,11.03177 -0.75,11.01504 -0.4125,-0.0167 -1.54047,-0.49075 -2.50661,-1.05339 z M 82.800277,145.97247 C 76.69602,144.9434 75.559034,144.23626 77.073886,142.41097 78.442566,140.76181 81,140.52735 81,142.05103 c 0,0.57806 1.575,1.7091 3.5,2.51342 1.925,0.80431 3.5,1.68135 3.5,1.94897 0,0.26762 -0.1125,0.43365 -0.25,0.36896 -0.1375,-0.0647 -2.364875,-0.47415 -4.949723,-0.90991 z M 112,135.39466 c -4.54088,-0.84474 -11,-3.54231 -11,-4.594 0,-0.60185 0.94027,-0.75706 2.25,-0.37141 6.7505,1.98769 16.41208,2.64172 24.46793,1.65632 9.68246,-1.18435 14.43235,-0.064 7.7274,1.82272 -4.41092,1.24117 -19.59039,2.20351 -23.44533,1.48637 z m -7.85664,-15.47028 c -4.772597,-0.93827 -7.449779,-2.61957 -6.533072,-4.10283 0.328866,-0.53212 1.471888,-0.15143 2.592132,0.86331 1.74394,1.57969 3.90373,1.81514 16.65072,1.81514 8.05577,0 16.89686,-0.37452 19.64686,-0.83227 3.29683,-0.54877 4.65937,-0.49546 4,0.15648 -2.65792,2.628 -26.62846,4.01268 -36.35664,2.10017 z m 62.30348,-9.62472 c 1.80801,-3.72546 1.96989,-6.65247 0.51798,-9.3654 C 166.28725,99.668209 166.27509,99 166.92963,99 168.3514,99 170,102.42486 170,105.37849 c 0,1.38049 -1.14892,3.77258 -2.55316,5.31575 l -2.55316,2.80576 1.55316,-3.20034 z M 89.25,104.96884 c -2.914249,-1.17139 -2.836672,-1.56867 0.535879,-2.74435 2.434114,-0.84854 2.927303,-0.67149 3.905915,1.40217 0.942739,1.99765 0.857912,2.36331 -0.535879,2.30995 C 92.245162,105.90175 90.4875,105.46625 89.25,104.96884 z M 133,92.381104 c 0,-1.025082 -1.64288,-4.249176 -3.65085,-7.164654 -2.58951,-3.759853 -3.78641,-6.711694 -4.11716,-10.153896 -0.44085,-4.588041 -0.23456,-5.104457 3.77821,-9.45779 C 131.34468,63.072144 133.72585,61 134.30167,61 c 0.57583,0 0.12475,1.0125 -1.00239,2.25 -5.25712,5.771837 -5.33318,9.933481 -0.31484,17.227388 C 136.31191,85.313695 136.99186,90.931939 134.5,93 133.25792,94.030836 133,93.92442 133,92.381104 z M 109.27305,79.293979 C 106.65189,75.293572 106.97327,69.114453 110,65.317366 c 1.375,-1.724963 6.59822,-6.511579 11.60716,-10.636925 5.00894,-4.125346 10.29145,-9.003587 11.73891,-10.840535 1.44746,-1.836948 2.63674,-2.943021 2.64284,-2.45794 0.0291,2.310941 -4.85604,8.19325 -12.91217,15.547973 -10.26726,9.373349 -12.51055,13.20352 -11.83724,20.210806 0.2568,2.67259 0.31835,4.859255 0.13676,4.859255 -0.18158,0 -1.12803,-1.217709 -2.10321,-2.706021 z"
       id="path2984"
       inkscape:connector-curvature="0" />
  </g>
</svg>
