<?xml version="1.0" encoding="UTF-8" standalone="no"?>
<!-- Created with Inkscape (http://www.inkscape.org/) -->

<svg
   xmlns:dc="http://purl.org/dc/elements/1.1/"
   xmlns:cc="http://creativecommons.org/ns#"
   xmlns:rdf="http://www.w3.org/1999/02/22-rdf-syntax-ns#"
   xmlns:svg="http://www.w3.org/2000/svg"
   xmlns="http://www.w3.org/2000/svg"
   xmlns:xlink="http://www.w3.org/1999/xlink"
   xmlns:sodipodi="http://sodipodi.sourceforge.net/DTD/sodipodi-0.dtd"
   xmlns:inkscape="http://www.inkscape.org/namespaces/inkscape"
   width="512"
   height="512"
   id="svg2"
   version="1.1"
   inkscape:version="0.48.5 r10040"
   sodipodi:docname="orca.svg"
   inkscape:export-filename="/home/alecive/Scrivania/firefoxTest1.png"
   inkscape:export-xdpi="100"
   inkscape:export-ydpi="100">
  <sodipodi:namedview
     id="base"
     pagecolor="#ffffff"
     bordercolor="#666666"
     borderopacity="1.0"
     inkscape:pageopacity="0.0"
     inkscape:pageshadow="2"
     inkscape:zoom="0.9172469"
     inkscape:cx="295.66741"
     inkscape:cy="289.3114"
     inkscape:document-units="px"
     inkscape:current-layer="svg2"
     showgrid="false"
     inkscape:window-width="1366"
     inkscape:window-height="744"
     inkscape:window-x="0"
     inkscape:window-y="24"
     inkscape:window-maximized="1"
     inkscape:object-paths="false"
     inkscape:snap-intersection-paths="false"
     inkscape:object-nodes="true"
     inkscape:snap-smooth-nodes="true"
     inkscape:snap-nodes="true"
     inkscape:snap-global="false" />
  <defs
     id="defs4">
    <linearGradient
       x1="19.244999"
       y1="21.030804"
       x2="19.360001"
       gradientUnits="userSpaceOnUse"
       y2="44.984001"
       id="linearGradient2460">
      <stop
         offset="0"
         style="stop-color:#00bdf0;stop-opacity:1;"
         id="stop3602" />
      <stop
         offset="1"
         style="stop-color:#0093dc;stop-opacity:1;"
         id="stop3604" />
    </linearGradient>
    <linearGradient
       inkscape:collect="always"
       xlink:href="#ButtonShadow-0-1-1-5-9"
       id="linearGradient4114-2-6"
       gradientUnits="userSpaceOnUse"
       gradientTransform="matrix(1.0317796,0,0,1.0317796,-830.86406,592.67791)"
       x1="1012.5133"
       y1="484.41721"
       x2="1006.8082"
       y2="20.625916" />
    <linearGradient
       x1="45.447727"
       y1="92.539597"
       x2="45.447727"
       y2="7.0165396"
       id="ButtonShadow-0-1-1-5-9"
       gradientUnits="userSpaceOnUse"
       gradientTransform="matrix(1.0058652,0,0,0.994169,100,0)">
      <stop
         id="stop3750-8-9-3-6-4"
         style="stop-color:#000000;stop-opacity:1"
         offset="0" />
      <stop
         id="stop3752-5-6-4-2-9"
         style="stop-color:#000000;stop-opacity:0.58823532"
         offset="1" />
    </linearGradient>
    <linearGradient
       inkscape:collect="always"
       xlink:href="#ButtonShadow-0-1-1-5-9"
       id="linearGradient4112-2-6"
       gradientUnits="userSpaceOnUse"
       gradientTransform="matrix(1.0402541,0,0,1.0402541,-837.95116,592.51825)"
       x1="1012.5133"
       y1="484.41721"
       x2="1006.8082"
       y2="20.625916" />
    <linearGradient
       inkscape:collect="always"
       xlink:href="#ButtonShadow-0-1-1-5-9"
       id="linearGradient4110-6-7"
       gradientUnits="userSpaceOnUse"
       gradientTransform="matrix(1.023305,0,0,1.023305,-823.77704,592.83757)"
       x1="1012.5133"
       y1="484.41721"
       x2="1006.8082"
       y2="20.625916" />
    <linearGradient
       inkscape:collect="always"
       xlink:href="#ButtonShadow-0-1-1-5-9"
       id="linearGradient4116-6-3"
       gradientUnits="userSpaceOnUse"
       gradientTransform="matrix(1.0148305,0,0,1.0148305,-816.68996,592.99723)"
       x1="1012.5133"
       y1="484.41721"
       x2="1006.8082"
       y2="20.625916" />
    <linearGradient
       y2="20.625916"
       x2="1006.8082"
       y1="484.41721"
       x1="1012.5133"
       gradientTransform="matrix(1.0074153,0,0,1.0074153,-810.48879,593.1369)"
       gradientUnits="userSpaceOnUse"
       id="linearGradient5342-3"
       xlink:href="#ButtonShadow-0-1-1-5-9"
       inkscape:collect="always" />
    <linearGradient
       inkscape:collect="always"
       xlink:href="#linearGradient3737-9"
       id="linearGradient4084-8"
       gradientUnits="userSpaceOnUse"
       gradientTransform="translate(778.59979,-360.55963)"
       x1="993.43896"
       y1="51.511765"
       x2="988.78552"
       y2="363.73825" />
    <linearGradient
       id="linearGradient3737-9">
      <stop
         id="stop3739-7"
         style="stop-color:#ffffff;stop-opacity:1"
         offset="0" />
      <stop
         id="stop3741-4"
         style="stop-color:#ffffff;stop-opacity:0"
         offset="1" />
    </linearGradient>
    <linearGradient
       inkscape:collect="always"
       xlink:href="#linearGradient4046-3"
       id="linearGradient4086-12"
       gradientUnits="userSpaceOnUse"
       x1="1764.6487"
       y1="155.59685"
       x2="1763.6903"
       y2="-55.941216" />
    <linearGradient
       id="linearGradient4046-3">
      <stop
         id="stop4048-7"
         style="stop-color:#000000;stop-opacity:1;"
         offset="0" />
      <stop
         id="stop4050-73"
         style="stop-color:#ffffff;stop-opacity:0.2"
         offset="1" />
    </linearGradient>
    <linearGradient
       y2="32"
       x2="272"
       y1="288"
       x1="272"
       gradientTransform="translate(0,-4)"
       gradientUnits="userSpaceOnUse"
       id="linearGradient3876"
       xlink:href="#outerBackgroundGradient"
       inkscape:collect="always" />
    <linearGradient
       id="outerBackgroundGradient">
      <stop
         id="stop3864-8-6"
         offset="0"
         style="stop-color:#007dbb;stop-opacity:1;" />
      <stop
         id="stop3866-9-1"
         offset="1"
         style="stop-color:#00abd7;stop-opacity:1;" />
    </linearGradient>
    <linearGradient
       inkscape:collect="always"
       xlink:href="#outerBackgroundGradient"
       id="linearGradient5589"
       gradientUnits="userSpaceOnUse"
       gradientTransform="translate(571.12383,-178.05409)"
       x1="272"
       y1="288"
       x2="272"
       y2="32" />
    <linearGradient
       y2="32"
       x2="272"
       y1="288"
       x1="272"
       gradientTransform="translate(571.12383,-178.05409)"
       gradientUnits="userSpaceOnUse"
       id="linearGradient5614"
       xlink:href="#outerBackgroundGradient"
       inkscape:collect="always" />
    <radialGradient
       gradientUnits="userSpaceOnUse"
       r="236"
       fy="151.78598"
       fx="256"
       cy="151.78598"
       cx="256"
       id="radialGradient6124"
       xlink:href="#linearGradient2460"
       inkscape:collect="always" />
    <linearGradient
       inkscape:collect="always"
       xlink:href="#linearGradient3737-9"
       id="linearGradient7749"
       gradientUnits="userSpaceOnUse"
       gradientTransform="translate(778.59979,-360.55963)"
       x1="993.43896"
       y1="51.511765"
       x2="988.78552"
       y2="363.73825" />
    <linearGradient
       inkscape:collect="always"
       xlink:href="#linearGradient4046-3"
       id="linearGradient7751"
       gradientUnits="userSpaceOnUse"
       x1="1764.6487"
       y1="155.59685"
       x2="1763.6903"
       y2="-55.941216" />
    <linearGradient
       inkscape:collect="always"
       xlink:href="#linearGradient2460-9"
       id="linearGradient3157"
       gradientUnits="userSpaceOnUse"
       gradientTransform="matrix(12.102564,0,0,12.102564,-34.468255,-46.187105)"
       x1="18.930269"
       y1="6.2951212"
       x2="19.360001"
       y2="36.643665" />
    <linearGradient
       id="linearGradient2460-9"
       y2="44.984001"
       gradientUnits="userSpaceOnUse"
       x2="19.360001"
       y1="21.030804"
       x1="19.244999">
      <stop
         id="stop3602-6"
         style="stop-color:#fafafa;stop-opacity:1;"
         offset="0" />
      <stop
         id="stop3604-4"
         style="stop-color:#f0f0f0;stop-opacity:1;"
         offset="1" />
    </linearGradient>
    <radialGradient
       gradientUnits="userSpaceOnUse"
       r="236"
       fy="151.78598"
       fx="256"
       cy="151.78598"
       cx="256"
       id="radialGradient6124-5"
       xlink:href="#linearGradient2460-7"
       inkscape:collect="always" />
    <linearGradient
       x1="19.244999"
       y1="21.030804"
       x2="19.360001"
       gradientUnits="userSpaceOnUse"
       y2="44.984001"
       id="linearGradient2460-7">
      <stop
         offset="0"
         style="stop-color:#00bdf0;stop-opacity:1;"
         id="stop3602-2" />
      <stop
         offset="1"
         style="stop-color:#0093dc;stop-opacity:1;"
         id="stop3604-5" />
    </linearGradient>
    <radialGradient
       gradientTransform="translate(-20,-20)"
       r="236"
       fy="151.78598"
       fx="256"
       cy="151.78598"
       cx="256"
       gradientUnits="userSpaceOnUse"
       id="radialGradient8295"
       xlink:href="#linearGradient2460-7"
       inkscape:collect="always" />
    <linearGradient
       y2="363.73825"
       x2="988.78552"
       y1="51.511765"
       x1="993.43896"
       gradientTransform="translate(778.59979,-360.55963)"
       gradientUnits="userSpaceOnUse"
       id="linearGradient4084-8-0"
       xlink:href="#linearGradient3737-9-9"
       inkscape:collect="always" />
    <linearGradient
       id="linearGradient3737-9-9">
      <stop
         offset="0"
         style="stop-color:#ffffff;stop-opacity:1"
         id="stop3739-7-4" />
      <stop
         offset="1"
         style="stop-color:#ffffff;stop-opacity:0"
         id="stop3741-4-1" />
    </linearGradient>
    <linearGradient
       y2="-55.941216"
       x2="1763.6903"
       y1="155.59685"
       x1="1764.6487"
       gradientUnits="userSpaceOnUse"
       id="linearGradient4086-12-7"
       xlink:href="#linearGradient4046-3-0"
       inkscape:collect="always" />
    <linearGradient
       id="linearGradient4046-3-0">
      <stop
         offset="0"
         style="stop-color:#000000;stop-opacity:1;"
         id="stop4048-7-4" />
      <stop
         offset="1"
         style="stop-color:#ffffff;stop-opacity:0.2"
         id="stop4050-73-8" />
    </linearGradient>
  </defs>
  <metadata
     id="metadata7">
    <rdf:RDF>
      <cc:Work
         rdf:about="">
        <dc:format>image/svg+xml</dc:format>
        <dc:type
           rdf:resource="http://purl.org/dc/dcmitype/StillImage" />
        <dc:title />
      </cc:Work>
    </rdf:RDF>
  </metadata>
  <g
     id="layer1"
     inkscape:groupmode="layer"
     inkscape:label="Livello 1"
     transform="translate(0,-540.36218)" />
  <g
     id="g2036"
     transform="matrix(1.1,0,0,0.44444,95.081063,256.39254)">
    <g
       id="g3712"
       style="opacity:0.4"
       transform="matrix(1.0526,0,0,1.2857,-1.2632,-13.429)" />
  </g>
  <g
     transform="translate(97.481063,231.28154)"
     id="g3541" />
  <g
     transform="translate(97.481063,231.28154)"
     id="g3536" />
  <g
     id="g4103"
     transform="translate(-11.985071,-592.11719)" />
  <g
     id="g4076"
     transform="translate(-605.51932,-353.96833)">
    <g
       transform="translate(-926.66758,684.38448)"
       id="g4038" />
  </g>
  <path
     sodipodi:type="arc"
     style="fill:#3cb371;fill-opacity:1;fill-rule:nonzero;stroke:#ff0000;stroke-width:0;stroke-linecap:round;stroke-linejoin:miter;stroke-miterlimit:4;stroke-opacity:1;stroke-dasharray:none"
     id="path3069"
     sodipodi:cx="351.05051"
     sodipodi:cy="472.75211"
     sodipodi:rx="305.26132"
     sodipodi:ry="300.90045"
     d="m 656.31183,472.75211 a 305.26132,300.90045 0 1 1 -610.522645,0 305.26132,300.90045 0 1 1 610.522645,0 z"
     transform="matrix(0.78682758,0,0,0.79823086,-18.584707,-122.99686)" />
  <path
     style="fill:#020202"
     d="m 151.3165,417.2314 c 5.42645,-5.62887 12.23803,-15.18916 15.61811,-21.92061 1.85714,-3.69846 6.44689,-18.55805 10.19948,-33.0213 7.42213,-28.60654 13.34201,-48.50408 14.59966,-49.07154 0.4388,-0.19798 3.84561,0.20974 7.57068,0.90602 18.42691,3.44434 34.79326,1.6045 48.18649,-5.41692 10.40979,-5.45734 15.71172,-11.1378 16.79812,-17.99727 0.96634,-6.10149 -0.50678,-10.475 -5.47716,-16.26084 -4.78888,-5.57457 -7.1292,-6.78071 -19.41083,-10.00383 l -9.26862,-2.4324 3.6884,-3.17737 c 8.9396,-7.70102 25.92208,-19.54187 37.67748,-26.27022 38.97949,-22.31037 85.12303,-23.93054 105.25136,-3.69555 7.74118,7.7822 8.01206,8.58698 5.36179,15.92804 -3.23608,8.96373 -7.1262,29.06374 -7.80727,40.33985 -0.63957,10.58889 0.38624,21.43627 2.49184,26.34972 1.21281,2.8301 1.86787,3.14023 4.6955,2.22301 4.11875,-1.33599 19.45292,-14.14492 25.13141,-20.99271 2.34939,-2.83322 5.84604,-7.98398 7.77038,-11.44615 l 3.49875,-6.29487 9.34118,-1.34274 c 13.34193,-1.91783 31.60665,-9.22983 41.35455,-16.55568 9.20736,-6.91962 12.94186,-11.04137 12.18651,-13.4502 -0.94807,-3.0236 -20.15394,-12.65894 -31.43504,-15.77058 -10.71321,-2.95498 -24.8777,-5.01481 -31.76367,-4.61917 -3.73671,0.21469 -3.96316,-0.008 -8.39052,-8.26817 -15.42296,-28.77311 -41.04075,-57.58725 -65.63651,-73.82612 -29.15651,-19.25002 -66.48405,-25.63047 -101.57534,-17.36242 -13.69662,3.22715 -33.52603,10.64513 -43.43811,16.24981 -4.84039,2.73694 -9.19236,4.90115 -9.67102,4.80937 -1.34844,-0.25856 -3.67261,-8.64963 -5.89782,-21.29324 -3.32597,-18.89799 -3.39273,-32.285765 -0.21482,-43.071221 l 1.45871,-4.950721 -6.38863,3.818171 c -21.90611,13.092186 -39.16033,32.083801 -45.83567,50.451071 -7.02664,19.33385 -9.10077,50.71259 -4.35298,65.85434 1.62882,5.19466 1.59713,5.32623 -3.98364,16.51159 -19.75684,39.59853 -31.88907,78.03349 -34.29834,108.65732 -1.270377,16.14755 -0.275889,28.71866 3.68636,46.59855 5.62157,25.3677 15.27174,40.04552 32.7358,49.79086 12.81599,7.15161 18.66691,7.15713 25.54343,0.0242 z"
     id="path3851"
     inkscape:connector-curvature="0" />
  <path
     style="fill:#000000"
     d="m 379.11864,308.25932 c -0.94212,-2.9952 -1.90137,-16.04108 -1.65618,-22.52411 0.12542,-3.31565 1.24977,-11.42629 2.49859,-18.02361 4.76601,-25.17828 8.5487,-33.29711 17.36535,-37.27177 16.07779,-7.24807 49.81765,-2.88769 71.99798,9.30467 l 7.75904,4.26508 -2.39163,2.54447 c -3.93159,4.18288 -15.02016,11.91849 -20.83098,14.53201 -7.94851,3.57507 -21.27593,7.2345 -29.98512,8.23335 l -7.61286,0.87311 -5.20899,8.81997 c -5.56307,9.41953 -8.38627,12.6406 -19.83734,22.63282 -8.85349,7.72559 -11.32347,9.07595 -12.09786,6.61401 z"
     id="path3849"
     inkscape:connector-curvature="0" />
  <path
     style="fill:#faf0e6"
     d="m 152.83721,399.81402 c -9.42621,-16.25054 -9.68526,-38.23197 -0.73372,-62.25684 6.80521,-18.26434 13.70673,-25.78567 24.58128,-26.78889 11.12642,-1.02644 10.80666,-2.1466 5.20663,18.23919 -2.74619,9.99692 -7.08848,26.51419 -9.6496,36.70511 -4.50406,17.92232 -8.49847,28.43941 -13.27115,34.94211 -1.25968,1.71631 -2.55529,3.26324 -2.87911,3.43759 -0.32384,0.17434 -1.78828,-1.75087 -3.25433,-4.27827 z"
     id="path3847"
     inkscape:connector-curvature="0" />
  <path
     style="fill:#fff5ee"
     d="m 117.64453,369.9813 c -6.11623,-3.31567 -7.51891,-16.27176 -3.23248,-29.85747 1.86838,-5.92187 3.20927,-7.09883 5.95453,-5.2266 1.4947,1.01935 2.33456,3.64406 4.65155,14.5361 1.5551,7.3107 2.55789,14.7339 2.22841,16.496 -0.82323,4.40269 -5.3957,6.33225 -9.602,4.05197 z"
     id="path3845"
     inkscape:connector-curvature="0" />
  <path
     style="fill:#fff5ee"
     d="m 312.88829,212.12248 c -9.67091,1.69533 -13.08279,2.93576 -31.3188,11.38653 -11.25606,5.2162 -22.35851,10.48723 -24.67216,11.71344 -4.16846,2.20922 -4.24296,2.18888 -8.2163,-2.24386 -9.17942,-10.24065 -8.16864,-19.17575 3.05212,-26.98094 6.77138,-4.7102 17.48566,-8.34419 28.88716,-9.79774 14.07611,-1.79452 35.94823,2.36922 50.47407,9.60868 l 7.74223,3.85861 -7.54755,0.27634 c -4.15114,0.15201 -12.43148,1.13253 -18.40077,2.17894 z"
     id="path3047"
     inkscape:connector-curvature="0" />
  <path
     style="fill:#66cdaa;fill-opacity:1;fill-rule:nonzero;stroke:#ff0000;stroke-width:0;stroke-linecap:round;stroke-linejoin:miter;stroke-miterlimit:4;stroke-opacity:1;stroke-dasharray:none"
     d=""
     id="path3839"
     inkscape:connector-curvature="0" />
</svg>
