<?xml version="1.0" encoding="UTF-8" standalone="no"?>
<!-- Created with Inkscape (http://www.inkscape.org/) -->

<svg
   xmlns:dc="http://purl.org/dc/elements/1.1/"
   xmlns:cc="http://creativecommons.org/ns#"
   xmlns:rdf="http://www.w3.org/1999/02/22-rdf-syntax-ns#"
   xmlns:svg="http://www.w3.org/2000/svg"
   xmlns="http://www.w3.org/2000/svg"
   xmlns:sodipodi="http://sodipodi.sourceforge.net/DTD/sodipodi-0.dtd"
   xmlns:inkscape="http://www.inkscape.org/namespaces/inkscape"
   id="svg2"
   version="1.1"
   inkscape:version="0.48.5 r10040"
   width="512"
   height="512"
   sodipodi:docname="preferences-desktop-color.svg">
  <metadata
     id="metadata8">
    <rdf:RDF>
      <cc:Work
         rdf:about="">
        <dc:format>image/svg+xml</dc:format>
        <dc:type
           rdf:resource="http://purl.org/dc/dcmitype/StillImage" />
        <dc:title />
      </cc:Work>
    </rdf:RDF>
  </metadata>
  <defs
     id="defs6" />
  <sodipodi:namedview
     pagecolor="#ffffff"
     bordercolor="#666666"
     borderopacity="1"
     objecttolerance="10"
     gridtolerance="10"
     guidetolerance="10"
     inkscape:pageopacity="0"
     inkscape:pageshadow="2"
     inkscape:window-width="1130"
     inkscape:window-height="716"
     id="namedview4"
     showgrid="false"
     inkscape:zoom="0.70710678"
     inkscape:cx="441.3682"
     inkscape:cy="344.09308"
     inkscape:window-x="33"
     inkscape:window-y="24"
     inkscape:window-maximized="0"
     inkscape:current-layer="svg2" />
  <path
     style="fill:#e1e8ad"
     d="m 161.27237,430.93357 c 11.15394,-8.26018 10.44248,-24.17765 -1.38773,-31.04786 -5.73622,-3.33122 -14.72801,-2.79107 -19.95923,1.19897 -4.27797,3.26296 -7.46728,9.48859 -7.46728,14.57634 0,4.38549 2.88685,10.7583 6.29539,13.89728 5.39234,4.9659 16.73494,5.65862 22.51885,1.37527 z"
     id="path2996"
     inkscape:connector-curvature="0" />
  <path
     style="fill:#fcd951"
     d="M 15.45041,457.87753 C 11.772503,457.05046 7.053435,453.82263 4.2368981,450.20752 2.2164839,447.61426 2.213147,447.32302 2.213147,273.60197 l 0,-174.007992 4.704714,-4.73074 c 3.742883,-3.76358 5.777757,-4.96102 9.953413,-5.85714 3.637143,-0.78056 29.085611,-1.12641 82.883492,-1.12641 l 77.634794,0 5.60497,-7.74886 c 3.08274,-4.26187 7.14939,-10.53709 9.03699,-13.94494 4.77393,-8.61876 8.83161,-11.98263 15.46311,-12.81916 5.67308,-0.71563 9.12527,0.36539 15.23558,4.77086 1.71036,1.23316 4.38462,3.02508 5.9428,3.98205 3.23753,1.98836 14.61467,9.33451 18.82404,12.15456 1.55532,1.04198 5.0564,3.32531 7.78018,5.07408 2.72379,1.74877 6.90745,4.49624 9.29702,6.1055 2.38958,1.60925 5.42563,3.52628 6.74677,4.26006 2.39691,1.33127 15.96347,10.2402 21.59393,14.180362 5.02887,3.51918 12.58261,8.37254 16.76188,10.76969 2.19028,1.2563 4.88626,3.11616 5.99105,4.13302 1.1048,1.01686 3.53501,2.62861 5.40047,3.58167 2.94313,1.50364 11.23445,6.91403 27.68321,18.06428 2.38282,1.61526 5.62821,3.77401 7.21199,4.79722 3.85511,2.49063 5.68723,6.36521 6.43771,13.61453 0.34306,3.31379 -6.95837,9.14372 -6.44761,9.14372 1.43698,0 24.13102,-8.49196 33.9949,-12.62447 7.42961,-3.11266 9.64804,-3.62962 13.56566,-3.16117 10.83298,1.29536 11.37145,2.09748 23.60757,35.167 1.01752,2.75 3.16304,8.375 4.76781,12.5 1.60477,4.125 5.67344,14.7 9.04151,23.5 3.36807,8.8 7.24375,18.925 8.61263,22.5 1.36887,3.575 3.21331,8.525 4.09874,11 l 1.60986,4.5 19.80768,-0.31011 c 23.23492,-0.36377 26.58032,0.39023 31.37383,7.07118 l 2.89795,4.03901 0,87.48192 c 0,86.47211 -0.0235,87.52025 -2.03219,90.80174 -1.23666,2.02021 -4.05687,4.31992 -7.20423,5.87461 l -5.17205,2.5548 -238.18374,-0.15849 C 125.73852,458.64718 17.158395,458.26161 15.45041,457.87753 z"
     id="path3019"
     inkscape:connector-curvature="0"
     sodipodi:nodetypes="ssscssscsssssssssssssssssssssssscsscscscss" />
  <path
     style="fill:#fcd951"
     d="m 159.39435,433.41102 c 6.9831,-3.56772 10.35055,-8.5796 10.83066,-16.1196 0.31487,-4.94489 -0.0414,-7.16218 -1.66113,-10.33701 -9.46917,-18.56112 -37.14967,-12.07376 -37.14967,8.70661 0,14.83845 15.02404,24.36938 27.98014,17.75 z"
     id="path2994"
     inkscape:connector-curvature="0" />
  <path
     style="fill:#f2a04d"
     d="m 159.39435,433.41102 c 6.9831,-3.56772 10.35055,-8.5796 10.83066,-16.1196 0.31487,-4.94489 -0.0414,-7.16218 -1.66113,-10.33701 -9.46917,-18.56112 -37.14967,-12.07376 -37.14967,8.70661 0,14.83845 15.02404,24.36938 27.98014,17.75 z"
     id="path2992"
     inkscape:connector-curvature="0" />
  <path
     style="fill:#9aca55"
     d="m 159.39435,433.41102 c 6.9831,-3.56772 10.35055,-8.5796 10.83066,-16.1196 0.31487,-4.94489 -0.0414,-7.16218 -1.66113,-10.33701 -9.46917,-18.56112 -37.14967,-12.07376 -37.14967,8.70661 0,14.83845 15.02404,24.36938 27.98014,17.75 z"
     id="path2990"
     inkscape:connector-curvature="0" />
  <path
     style="fill:#4495cf"
     d="m 178.13101,458.30082 c 0,-0.51434 9.02853,-2.38466 7.86028,-1.92707 -2.95579,1.15774 7.89619,-7.14045 8.60103,-10.90787 0.42867,-2.29125 1.45093,-3.78198 3.11474,-4.54213 1.36215,-0.62234 28.6597,-11.25114 60.66123,-23.61955 32.00152,-12.36842 92.11148,-35.60615 133.57767,-51.63942 41.4662,-16.03326 76.87177,-30.06776 78.67905,-31.18778 3.78535,-2.34587 7.42787,-9.13991 7.42787,-13.85446 0,-1.78125 -4.725,-15.55368 -10.5,-30.60542 -5.775,-15.05173 -12.66949,-28.84303 -12.66949,-29.48409 0,-0.84569 7.5153,-0.2138 21.64925,-0.2138 22.62856,0 25.2767,-1.19952 30.62216,7.31937 l 3.71164,5.91513 -0.81356,85.81778 c -0.82014,86.51207 -0.028,87.76673 -2.03797,91.02782 -1.20938,1.96217 -4.13526,4.35452 -7.19635,5.88409 l -5.15837,2.57756 -158.8974,0.375 c -95.69691,0.22585 -158.63178,-0.36077 -158.63178,-0.93516 z"
     id="path3007"
     inkscape:connector-curvature="0"
     sodipodi:nodetypes="sssssssssssscssscss" />
  <path
     style="fill:#4495cf"
     d="m 160.50889,434.58473 c 6.85339,-3.44298 11.88239,-11.39138 11.89974,-18.80769 0.01,-4.22112 -2.19791,-9.9072 -5.31511,-13.6889 -8.11185,-9.84108 -24.24677,-9.84108 -32.35862,0 -5.20579,6.31552 -6.45006,13.12045 -3.78184,20.68298 4.32102,12.2471 17.89395,17.67227 29.55583,11.81361 z"
     id="path2988"
     inkscape:connector-curvature="0" />
  <path
     style="fill:#8cc43e"
     d="m 12.024947,457.41404 c -1.774654,-0.89863 -4.32211,-2.97134 -5.6610135,-4.60604 -1.3389133,-1.63469 -2.4785492,-2.59589 -2.5325209,-2.136 -0.053952,0.4599 -0.4528514,-0.30168 -0.8863866,-1.69241 -1.0302651,-3.30493 -1.0302651,-347.66313 0,-350.968065 0.4335352,-1.390723 0.8324151,-1.958345 0.8863866,-1.261381 0.053952,0.696965 0.6365033,-7.05414 2.5850241,-9.269877 2.0685933,-2.352275 4.5107443,-3.913096 6.6098573,-4.512077 2.293862,-0.654552 26.211843,0.05686 77.252308,0.05327 76.687338,-0.0053 -76.278235,1.545439 -76.278235,-0.218721 0,-1.012111 165.987263,-1.057684 168.183993,-4.078669 2.19672,-3.020986 6.26862,-9.428419 9.04864,-14.238735 6.05637,-10.479431 8.71034,-12.425382 17.00102,-12.465475 5.238,-0.02529 6.60412,0.425834 11.81429,3.901673 15.37519,10.257188 36.26474,24.10568 44.28785,29.360134 2.70745,1.773144 8.02387,5.308728 11.81429,7.856857 10.48722,7.050086 15.2761,10.237996 18.71559,12.458766 9.33407,6.02674 12.83378,8.39488 16.71748,11.31214 2.35818,1.77138 5.68353,3.96227 7.38968,4.86867 2.78762,1.48094 17.0611,10.97584 29.9365,19.91413 8.62343,5.98652 10.384,9.03463 10.4222,18.04411 0.007,1.58366 -5.52732,11.39405 -14.54902,25.7916 -17.26433,27.55179 -83.10659,132.10006 -127.37888,202.25982 -9.47783,15.01981 -17.77008,28.34557 -18.42721,29.61281 -0.65713,1.26723 -3.97595,12.85162 -1.78463,13.24489 -6.46842,5.95576 0.65433,-15.99142 2.51463,-15.03294 0.45186,0.23281 -0.38195,4.64102 -0.38531,6.98291 -0.014,9.77553 -4.71521,25.38414 -6.62561,28.80746 -1.20944,2.16724 -3.7427,5.34684 -5.62945,6.37825 -3.26448,1.78457 -7.50452,1.3117 -87.622644,1.28978 -75.493062,-0.0207 -84.525559,-0.19185 -87.418799,-1.65688 z"
     id="path3001"
     inkscape:connector-curvature="0"
     sodipodi:nodetypes="cscsscsssssssssssssscssscssssssc" />
  <path
     style="fill:#ffffff"
     d="m 160.50889,434.58473 c 6.85339,-3.44298 11.88239,-11.39138 11.89974,-18.80769 0.01,-4.22112 -2.19791,-9.9072 -5.31511,-13.6889 -8.11185,-9.84108 -24.24677,-9.84108 -32.35862,0 -5.20579,6.31552 -6.45006,13.12045 -3.78184,20.68298 4.32102,12.2471 17.89395,17.67227 29.55583,11.81361 z"
     id="path2986"
     inkscape:connector-curvature="0" />
  <path
     style="fill:#e7484a"
     d="m 200.36387,419.71649 c -0.41859,-0.41858 -0.76107,-78.03641 -0.76107,-166.60082 l 0,-161.026208 -2.31464,-3.434683 c -3.13549,-4.652766 -8.46391,-8.063941 -12.59629,-8.063941 -4.48581,0 -4.36227,-1.414533 0.71738,-8.214308 2.27131,-3.040472 6.48149,-9.489225 9.35592,-14.330564 6.26204,-10.547021 9.00616,-12.505521 17.57838,-12.545868 5.41588,-0.02549 6.82838,0.428577 12.2155,3.926837 15.89732,10.323334 37.49629,24.261141 45.79186,29.549485 2.79939,1.784579 8.29636,5.342965 12.21551,7.907528 10.84335,7.095557 15.79488,10.304026 19.35116,12.53912 9.65106,6.065612 13.26962,8.449012 17.28521,11.385102 2.43825,1.78279 5.87654,3.98782 7.64061,4.90007 2.88231,1.49049 17.6405,11.04661 30.95315,20.04255 8.91629,6.02514 10.73666,9.0929 10.77614,18.16049 0.0125,2.88334 -3.66225,8.65474 -111.46639,175.06141 -28.2326,43.57989 -55.6702,88.99806 -56.70509,90.69273 -0.5612,0.91899 0.38124,0.46966 -0.0373,0.0511 z"
     id="path2984"
     inkscape:connector-curvature="0"
     sodipodi:nodetypes="cscsssssssssssscssc" />
</svg>
