<?xml version="1.0" encoding="UTF-8" standalone="no"?>
<!-- Created with Inkscape (http://www.inkscape.org/) -->

<svg
   xmlns:dc="http://purl.org/dc/elements/1.1/"
   xmlns:cc="http://creativecommons.org/ns#"
   xmlns:rdf="http://www.w3.org/1999/02/22-rdf-syntax-ns#"
   xmlns:svg="http://www.w3.org/2000/svg"
   xmlns="http://www.w3.org/2000/svg"
   xmlns:sodipodi="http://sodipodi.sourceforge.net/DTD/sodipodi-0.dtd"
   xmlns:inkscape="http://www.inkscape.org/namespaces/inkscape"
   id="svg2"
   version="1.1"
   inkscape:version="0.48.5 r10040"
   width="512"
   height="512"
   sodipodi:docname="preferences-desktop-wallpaper.svg">
  <metadata
     id="metadata8">
    <rdf:RDF>
      <cc:Work
         rdf:about="">
        <dc:format>image/svg+xml</dc:format>
        <dc:type
           rdf:resource="http://purl.org/dc/dcmitype/StillImage" />
        <dc:title />
      </cc:Work>
    </rdf:RDF>
  </metadata>
  <defs
     id="defs6" />
  <sodipodi:namedview
     pagecolor="#ffffff"
     bordercolor="#666666"
     borderopacity="1"
     objecttolerance="10"
     gridtolerance="10"
     guidetolerance="10"
     inkscape:pageopacity="0"
     inkscape:pageshadow="2"
     inkscape:window-width="952"
     inkscape:window-height="618"
     id="namedview4"
     showgrid="false"
     inkscape:zoom="0.65186406"
     inkscape:cx="359.53834"
     inkscape:cy="207.40554"
     inkscape:window-x="15"
     inkscape:window-y="39"
     inkscape:window-maximized="0"
     inkscape:current-layer="svg2" />
  <g
     id="g2982"
     transform="matrix(1.0143357,0,0,1.0143357,-9.7547289,-4.7185808)">
    <path
       style="fill:#f6c53d"
       d="m 86.372886,470.00299 c -13.842131,-4.73653 -24.508089,-13.46362 -30.659864,-25.0865 -7.039766,-13.3006 -6.560477,0.29244 -6.560477,-186.06054 0,-151.37206 0.169135,-169.2429 1.64946,-174.282698 5.448697,-18.550199 18.96493,-31.952227 38.155627,-37.833232 5.913503,-1.812198 14.054528,-1.901034 174.211878,-1.901034 160.15734,0 168.29836,0.08883 174.21187,1.901034 19.19069,5.881005 32.70693,19.283033 38.15563,37.833232 1.48032,5.039798 1.64946,22.910638 1.64946,174.282698 0,151.37205 -0.16914,169.24289 -1.64946,174.28269 -5.39135,18.35495 -19.21291,32.17651 -37.56786,37.56786 -5.04205,1.48098 -22.94134,1.64673 -175.24577,1.62276 l -169.630154,-0.0267 -6.72034,-2.29959 z M 406.06406,424.80331 c 18.15246,-5.6372 33.84753,-20.72445 40.11763,-38.56403 9.4066,-26.76347 -0.64533,-56.65242 -24.21778,-72.01048 -35.96401,-23.43147 -83.31465,-4.50152 -94.1431,37.63675 -1.85311,7.2113 -2.05279,18.85305 -0.45646,26.61324 4.00581,19.47331 20.23361,38.18328 39.03767,45.00878 13.24008,4.80589 26.95794,5.26096 39.66204,1.31574 z"
       id="path2990"
       inkscape:connector-curvature="0" />
    <path
       style="fill:#367dee"
       d="m 175.04351,391.67796 c -24.64512,-4.14983 -45.61721,-23.2037 -52.02611,-47.2675 -1.91153,-7.17728 -2.14238,-23.6404 -0.43131,-30.7579 4.31434,-17.94626 17.90753,-34.931 34.17165,-42.69759 10.42248,-4.97704 16.76958,-6.41258 28.35244,-6.41258 11.59426,0 17.92466,1.43452 28.4322,6.44298 15.64454,7.45704 28.46636,22.90379 33.70015,40.59939 2.87065,9.70573 2.43293,25.66569 -0.99466,36.26751 -9.73916,30.12399 -40.4219,49.00896 -71.20436,43.82569 z m 134.4004,-160.1887 c -21.82369,-3.96976 -40.24954,-18.20189 -48.90556,-37.77468 -5.78076,-13.07131 -6.94172,-30.44196 -2.94379,-44.04572 8.39968,-28.58167 36.09815,-47.94784 65.97008,-46.12486 39.13274,2.38814 67.1575,39.2722 59.02104,77.67904 -4.92462,23.24586 -23.34952,42.63923 -46.35955,48.79634 -6.92992,1.85433 -20.55711,2.60222 -26.78222,1.46988 z m -157.93543,-2.7195 c -9.68451,-1.5598 -15.0186,-3.1651 -22.666,-6.82137 -16.42517,-7.85297 -29.169536,-23.75558 -33.791875,-42.166 -2.324193,-9.25708 -1.519101,-26.98588 1.631162,-35.91949 4.526603,-12.83667 13.574473,-24.3217 25.382193,-32.21917 10.69131,-7.15079 18.22459,-9.5429 32.04893,-10.17681 19.83489,-0.90951 34.32384,4.57948 48.08732,18.21737 16.76369,16.61074 23.10524,39.92829 16.88478,62.08448 -5.94574,21.17772 -24.37754,39.54097 -45.0898,44.92212 -6.03731,1.56853 -18.50115,2.7208 -22.48671,2.07887 z"
       id="path2988"
       inkscape:connector-curvature="0" />
    <path
       style="fill:#e83e30"
       d="m 175.04351,391.67796 c -24.64512,-4.14983 -45.61721,-23.2037 -52.02611,-47.2675 -1.91153,-7.17728 -2.14238,-23.6404 -0.43131,-30.7579 4.31434,-17.94626 17.90753,-34.931 34.17165,-42.69759 10.42248,-4.97704 16.76958,-6.41258 28.35244,-6.41258 11.59426,0 17.92466,1.43452 28.4322,6.44298 15.64454,7.45704 28.46636,22.90379 33.70015,40.59939 2.87065,9.70573 2.43293,25.66569 -0.99466,36.26751 -9.73916,30.12399 -40.4219,49.00896 -71.20436,43.82569 z m -23.53503,-162.9082 c -9.68451,-1.5598 -15.0186,-3.1651 -22.666,-6.82137 -16.42517,-7.85297 -29.169536,-23.75558 -33.791875,-42.166 -2.324193,-9.25708 -1.519101,-26.98588 1.631162,-35.91949 4.526603,-12.83667 13.574473,-24.3217 25.382193,-32.21917 10.69131,-7.15079 18.22459,-9.5429 32.04893,-10.17681 19.83489,-0.90951 34.32384,4.57948 48.08732,18.21737 16.76369,16.61074 23.10524,39.92829 16.88478,62.08448 -5.94574,21.17772 -24.37754,39.54097 -45.0898,44.92212 -6.03731,1.56853 -18.50115,2.7208 -22.48671,2.07887 z"
       id="path2986"
       inkscape:connector-curvature="0" />
    <path
       style="fill:#52b428"
       d="m 175.04351,391.67796 c -24.64512,-4.14983 -45.61721,-23.2037 -52.02611,-47.2675 -1.91153,-7.17728 -2.14238,-23.6404 -0.43131,-30.7579 4.31434,-17.94626 17.90753,-34.931 34.17165,-42.69759 10.42248,-4.97704 16.76958,-6.41258 28.35244,-6.41258 11.59426,0 17.92466,1.43452 28.4322,6.44298 15.64454,7.45704 28.46636,22.90379 33.70015,40.59939 2.87065,9.70573 2.43293,25.66569 -0.99466,36.26751 -9.73916,30.12399 -40.4219,49.00896 -71.20436,43.82569 z"
       id="path2984"
       inkscape:connector-curvature="0" />
  </g>
</svg>
