<?xml version="1.0" encoding="UTF-8" standalone="no"?>
<svg
   xmlns:dc="http://purl.org/dc/elements/1.1/"
   xmlns:cc="http://creativecommons.org/ns#"
   xmlns:rdf="http://www.w3.org/1999/02/22-rdf-syntax-ns#"
   xmlns:svg="http://www.w3.org/2000/svg"
   xmlns="http://www.w3.org/2000/svg"
   xmlns:sodipodi="http://sodipodi.sourceforge.net/DTD/sodipodi-0.dtd"
   xmlns:inkscape="http://www.inkscape.org/namespaces/inkscape"
   viewBox="0 0 128 128"
   id="svg2"
   version="1.1"
   inkscape:version="0.48.5 r10040"
   width="100%"
   height="100%"
   sodipodi:docname="putty.svg">
  <metadata
     id="metadata69">
    <rdf:RDF>
      <cc:Work
         rdf:about="">
        <dc:format>image/svg+xml</dc:format>
        <dc:type
           rdf:resource="http://purl.org/dc/dcmitype/StillImage" />
        <dc:title></dc:title>
      </cc:Work>
    </rdf:RDF>
  </metadata>
  <sodipodi:namedview
     pagecolor="#ffffff"
     bordercolor="#666666"
     borderopacity="1"
     objecttolerance="10"
     gridtolerance="10"
     guidetolerance="10"
     inkscape:pageopacity="0"
     inkscape:pageshadow="2"
     inkscape:window-width="1066"
     inkscape:window-height="612"
     id="namedview67"
     showgrid="false"
     fit-margin-top="0"
     fit-margin-left="0"
     fit-margin-right="0"
     fit-margin-bottom="0"
     inkscape:zoom="3.4766083"
     inkscape:cx="94.953941"
     inkscape:cy="59.668535"
     inkscape:window-x="15"
     inkscape:window-y="39"
     inkscape:window-maximized="0"
     inkscape:current-layer="svg2" />
  <defs
     id="defs4">
    <linearGradient
       id="linearGradient3764"
       x1="1"
       x2="47"
       gradientUnits="userSpaceOnUse"
       gradientTransform="matrix(0,-1,1,0,-1.5e-6,47.999998)">
      <stop
         stop-color="#e4e4e4"
         stop-opacity="1"
         id="stop7" />
      <stop
         offset="1"
         stop-color="#eee"
         stop-opacity="1"
         id="stop9" />
    </linearGradient>
    <clipPath
       id="clipPath-439865942">
      <g
         transform="translate(0,-1004.3622)"
         id="g12">
        <path
           d="m -24,13 c 0,1.105 -0.672,2 -1.5,2 -0.828,0 -1.5,-0.895 -1.5,-2 0,-1.105 0.672,-2 1.5,-2 0.828,0 1.5,0.895 1.5,2 z"
           transform="matrix(15.333333,0,0,11.5,414.99999,878.8622)"
           id="path14"
           inkscape:connector-curvature="0"
           style="fill:#1890d0" />
      </g>
    </clipPath>
    <clipPath
       id="clipPath-445363359">
      <g
         transform="translate(0,-1004.3622)"
         id="g17">
        <path
           d="m -24,13 c 0,1.105 -0.672,2 -1.5,2 -0.828,0 -1.5,-0.895 -1.5,-2 0,-1.105 0.672,-2 1.5,-2 0.828,0 1.5,0.895 1.5,2 z"
           transform="matrix(15.333333,0,0,11.5,414.99999,878.8622)"
           id="path19"
           inkscape:connector-curvature="0"
           style="fill:#1890d0" />
      </g>
    </clipPath>
  </defs>
  <g
     id="g33"
     transform="translate(-1.4406293,84.676971)" />
  <g
     id="g35"
     transform="matrix(4.466242,0,0,4.466242,-45.676803,-44.294641)">
    <g
       clip-path="url(#clipPath-439865942)"
       id="g37">
      <g
         transform="translate(1,1)"
         id="g39">
        <g
           id="g41"
           style="opacity:0.1">
          <!-- color: #eeeeee -->
          <g
             id="g43">
            <path
               d="M 11.531,13 C 11.238,13.031 10.996,13.301 11,13.594 l 0,10.813 c 0,0.316 0.281,0.594 0.594,0.594 l 5.406,0 0,2 -4,0 0,2 7.281,0 0,-3.969 -2.313,-2.031 -4.531,0 c -0.211,0 -0.406,-0.195 -0.406,-0.406 l 0,-7.188 c -0.004,-0.188 0.129,-0.371 0.313,-0.406 0.023,-0.004 0.07,-0.004 0.094,0 l 11.125,0 c 0.211,0 0.406,0.199 0.406,0.406 l 0,2.875 2.031,0 0,-4.688 C 27,13.281 26.719,13 26.406,13 m -14.875,0"
               id="path45"
               inkscape:connector-curvature="0"
               style="fill:#000000;fill-opacity:1;fill-rule:nonzero;stroke:none" />
            <path
               d="m 25.13,19 2.469,2 6.969,0 c 0.211,0 0.406,0.195 0.406,0.406 l 0,7.188 c 0,0.211 -0.195,0.406 -0.406,0.406 l -11.125,0 c -0.207,0 -0.406,-0.195 -0.406,-0.406 l 0,-1.125 -2.02,-1.781 0,4.719 c 0,0.316 0.27,0.594 0.594,0.594 l 5.406,0 0,2 -4,0 0,2 12,0 0,-2 -4,0 0,-2 5.395,0 c 0.316,0 0.605,-0.277 0.605,-0.594 l 0,-10.813 C 37.017,19.281 36.736,19 36.412,19 m -11.273,0"
               id="path47"
               inkscape:connector-curvature="0"
               style="fill:#000000;fill-opacity:1;fill-rule:nonzero;stroke:none" />
            <path
               d="m 15,19 9,8 0,-5 7,3 -10,-8 0,3.75 L 15.004,19 M 15,19"
               id="path49"
               inkscape:connector-curvature="0"
               style="fill:#000000;fill-opacity:1;fill-rule:evenodd;stroke:none" />
          </g>
        </g>
      </g>
    </g>
  </g>
  <g
     id="g51"
     transform="matrix(4.466242,0,0,4.466242,-45.676803,-44.294641)">
    <g
       clip-path="url(#clipPath-445363359)"
       id="g53">
      <!-- color: #eeeeee -->
      <g
         id="g55">
        <path
           d="M 11.531,13 C 11.238,13.031 10.996,13.301 11,13.594 l 0,10.813 c 0,0.316 0.281,0.594 0.594,0.594 l 5.406,0 0,2 -4,0 0,2 7.281,0 0,-3.969 -2.313,-2.031 -4.531,0 c -0.211,0 -0.406,-0.195 -0.406,-0.406 l 0,-7.188 c -0.004,-0.188 0.129,-0.371 0.313,-0.406 0.023,-0.004 0.07,-0.004 0.094,0 l 11.125,0 c 0.211,0 0.406,0.199 0.406,0.406 l 0,2.875 2.031,0 0,-4.688 C 27,13.281 26.719,13 26.406,13 m -14.875,0"
           id="path57"
           inkscape:connector-curvature="0"
           style="fill:#c0274b;fill-opacity:1;fill-rule:nonzero;stroke:none" />
        <path
           d="m 25.13,19 2.469,2 6.969,0 c 0.211,0 0.406,0.195 0.406,0.406 l 0,7.188 c 0,0.211 -0.195,0.406 -0.406,0.406 l -11.125,0 c -0.207,0 -0.406,-0.195 -0.406,-0.406 l 0,-1.125 -2.02,-1.781 0,4.719 c 0,0.316 0.27,0.594 0.594,0.594 l 5.406,0 0,2 -4,0 0,2 12,0 0,-2 -4,0 0,-2 5.395,0 c 0.316,0 0.605,-0.277 0.605,-0.594 l 0,-10.813 C 37.017,19.281 36.736,19 36.412,19 m -11.273,0"
           id="path59"
           inkscape:connector-curvature="0"
           style="fill:#283751;fill-opacity:1;fill-rule:nonzero;stroke:none" />
        <path
           d="m 15,19 9,8 0,-5 7,3 -10,-8 0,3.75 L 15.004,19 M 15,19"
           id="path61"
           inkscape:connector-curvature="0"
           style="fill:#ea8e00;fill-opacity:1;fill-rule:evenodd;stroke:none" />
      </g>
    </g>
  </g>
</svg>
