<?xml version="1.0" encoding="UTF-8" standalone="no"?>
<!-- Created with Inkscape (http://www.inkscape.org/) -->

<svg
   xmlns:dc="http://purl.org/dc/elements/1.1/"
   xmlns:cc="http://creativecommons.org/ns#"
   xmlns:rdf="http://www.w3.org/1999/02/22-rdf-syntax-ns#"
   xmlns:svg="http://www.w3.org/2000/svg"
   xmlns="http://www.w3.org/2000/svg"
   xmlns:sodipodi="http://sodipodi.sourceforge.net/DTD/sodipodi-0.dtd"
   xmlns:inkscape="http://www.inkscape.org/namespaces/inkscape"
   id="svg2"
   version="1.1"
   inkscape:version="0.48.5 r10040"
   width="256"
   height="256"
   sodipodi:docname="redshift.svg">
  <metadata
     id="metadata8">
    <rdf:RDF>
      <cc:Work
         rdf:about="">
        <dc:format>image/svg+xml</dc:format>
        <dc:type
           rdf:resource="http://purl.org/dc/dcmitype/StillImage" />
        <dc:title />
      </cc:Work>
    </rdf:RDF>
  </metadata>
  <defs
     id="defs6" />
  <sodipodi:namedview
     pagecolor="#ffffff"
     bordercolor="#666666"
     borderopacity="1"
     objecttolerance="10"
     gridtolerance="10"
     guidetolerance="10"
     inkscape:pageopacity="0"
     inkscape:pageshadow="2"
     inkscape:window-width="1049"
     inkscape:window-height="657"
     id="namedview4"
     showgrid="false"
     inkscape:zoom="1.84375"
     inkscape:cx="210.47349"
     inkscape:cy="129.09534"
     inkscape:window-x="15"
     inkscape:window-y="39"
     inkscape:window-maximized="0"
     inkscape:current-layer="svg2" />
  <path
     inkscape:connector-curvature="0"
     id="path2992"
     d="M 28.522285,240.53027 C 22.58819,237.835 17.628298,233.06 14.737874,227.25966 l -2.551887,-5.12098 0,-94.53831 0,-94.538318 2.551887,-5.120977 c 2.890424,-5.80034 7.850316,-10.575354 13.784411,-13.270608 3.836707,-1.742628 8.793724,-1.836545 98.029025,-1.857271 l 93.98798,-0.02183 5.12096,2.55189 c 5.80035,2.890431 10.57536,7.850321 13.27061,13.784411 1.74335,3.838272 1.83545,8.779682 1.83545,98.472703 0,89.69301 -0.0921,94.63443 -1.83545,98.4727 -2.69525,5.93408 -7.47026,10.89398 -13.27061,13.78441 l -5.12096,2.55189 -93.98798,-0.0219 c -89.235301,-0.0207 -94.192318,-0.11458 -98.029025,-1.85721 z"
     style="fill:#b31c1c" />
  <path
     inkscape:connector-curvature="0"
     id="path2988"
     d="m 27.442218,246.04976 c -6.150717,-2.79365 -11.291664,-7.74297 -14.287612,-13.75505 l -2.645047,-5.30792 0,-97.9894 0,-97.989408 2.645047,-5.307916 c 2.995948,-6.01208 8.136895,-10.961403 14.287612,-13.755048 3.976766,-1.806242 9.114725,-1.903587 101.607542,-1.92507 l 97.41896,-0.02263 5.30792,2.6450459 c 6.01208,2.995946 10.9614,8.136894 13.75505,14.287607 1.80698,3.978387 1.90244,9.100181 1.90244,102.067419 0,92.96723 -0.0955,98.08902 -1.90244,102.06742 -2.79365,6.1507 -7.74297,11.29165 -13.75505,14.2876 l -5.30792,2.64505 -97.41896,-0.0227 c -92.492817,-0.0214 -97.630776,-0.1188 -101.607542,-1.92504 z M 141.17499,205.43513 c 0.57961,-5.05489 -1.08638,-5.86194 -12.10061,-5.86194 -6.38135,0 -10.41592,0.44509 -11.20719,1.23636 -1.34006,1.34006 -1.68207,6.21692 -0.51765,7.38134 0.39528,0.39529 5.84301,0.58847 12.10606,0.42929 l 11.38736,-0.28941 0.33203,-2.89564 z m 1.21343,-8.83873 c 1.82523,-0.50366 2.6725,-1.54262 2.90778,-3.56566 0.61871,-5.31995 -0.78498,-5.8212 -16.30173,-5.8212 -15.51675,0 -16.92044,0.50125 -16.30173,5.8212 0.43091,3.70516 2.60858,4.27644 16.30173,4.27644 5.95,0 11.97728,-0.31985 13.39395,-0.71078 z m 4.56929,-12.45227 c 1.97603,-0.75129 2.64283,-1.7391 2.64283,-3.91515 0,-5.11328 -1.03279,-5.38308 -20.60607,-5.38308 -19.57818,0 -20.60607,0.26891 -20.60607,5.39077 0,2.06318 0.67914,3.19104 2.31818,3.84986 3.14691,1.26489 32.95114,1.31225 36.25113,0.0576 z m 0.78081,-12.64672 c 1.1167,-0.88626 1.79273,-3.73588 2.16789,-9.13808 0.70495,-10.15113 3.01838,-14.58342 11.49707,-22.02731 13.11405,-11.51349 19.1127,-24.24976 19.0983,-40.549243 -0.026,-29.400603 -22.34822,-51.887699 -51.50731,-51.887699 -29.15908,0 -51.48132,22.487096 -51.507304,51.887699 -0.01473,16.727043 4.956347,27.038653 20.044484,41.578253 7.70847,7.42823 8.66715,8.78175 9.70506,13.70224 0.63344,3.00289 1.15169,7.73213 1.15169,10.50941 0,3.72222 0.47396,5.32567 1.80303,6.09978 2.72426,1.58673 35.51989,1.43383 37.54709,-0.17505 z m -22.44638,-29.8112 c -1.51581,-2.99131 -7.12945,-9.94527 -12.75861,-15.8049 -11.88362,-12.37016 -13.99483,-16.9019 -13.17994,-28.291022 0.81,-11.320899 6.25415,-19.511919 16.64209,-25.038908 6.07916,-3.234469 19.91842,-3.234469 25.99759,0 10.38793,5.526989 15.83208,13.718009 16.64209,25.038908 0.81489,11.389122 -1.29632,15.920862 -13.17995,28.291022 -5.62916,5.85963 -11.2428,12.81359 -12.75861,15.8049 -1.4887,2.93781 -3.15475,5.34149 -3.70233,5.34149 -0.54757,0 -2.21363,-2.40368 -3.70233,-5.34149 z"
     style="fill:#3b2c2c" />
  <path
     inkscape:connector-curvature="0"
     id="path2984"
     d="M 24.947238,245.91045 C 19.754445,243.34004 12.509783,235.79903 10.413705,230.78242 8.18715,225.45353 8.18715,30.990862 10.413705,25.661966 12.530594,20.595542 19.837344,13.024704 25.041631,10.505352 29.41403,8.388711 30.814412,8.3595998 128.26245,8.3595998 c 97.44805,0 98.84843,0.029116 103.22083,2.1457522 5.20428,2.519352 12.51104,10.09019 14.62792,15.156614 1.25375,3.00063 1.49043,19.312537 1.49043,102.719514 0,97.81512 -0.029,99.2122 -2.14575,103.58496 -2.51936,5.20428 -10.0902,12.51103 -15.15662,14.62793 -3.00029,1.25359 -19.24984,1.49028 -102.26489,1.48959 -97.785772,-8.1e-4 -98.738371,-0.0209 -103.087132,-2.17351 z M 140.1988,210.07954 c 1.22106,-0.89287 1.89049,-2.79654 1.93264,-5.49588 0.0406,-2.6052 0.8501,-5.00499 2.19251,-6.50034 1.32869,-1.48007 2.15245,-3.89659 2.19308,-6.43336 0.0398,-2.48522 0.85771,-4.93858 2.10636,-6.31798 1.32806,-1.46712 1.96556,-3.51714 1.82448,-5.86694 -0.3697,-6.15797 -0.33296,-7.02289 0.69324,-16.31731 0.54905,-4.97284 1.57949,-10.15468 2.28984,-11.51519 0.71035,-1.3605 5.61051,-6.94886 10.88923,-12.41858 5.96404,-6.17982 10.65314,-12.12473 12.38555,-15.70253 10.78529,-22.274 6.94495,-46.123835 -10.21098,-63.413715 -11.02304,-11.109109 -22.90897,-16.12088 -38.2323,-16.12088 -15.32332,0 -27.20925,5.011771 -38.232285,16.12088 -10.936461,11.021845 -16.216163,23.664987 -16.190694,38.771334 0.02627,15.616021 4.96025,26.454871 18.365263,40.344911 5.278718,5.46972 10.178866,11.05808 10.889226,12.41858 0.71035,1.36051 1.74078,6.54235 2.28984,11.51519 1.0262,9.29442 1.06294,10.15934 0.69323,16.31731 -0.14107,2.3498 0.49643,4.39982 1.82449,5.86694 1.24865,1.3794 2.06658,3.83276 2.10636,6.31798 0.0406,2.53677 0.86439,4.95329 2.19308,6.43336 1.34241,1.49535 2.15185,3.89514 2.19251,6.50034 0.093,5.9589 1.91817,6.86191 13.86898,6.86191 6.62822,0 10.70647,-0.46674 11.93635,-1.36603 z m -16.26085,-73.74437 c -1.85804,-2.73486 -7.03424,-8.74429 -11.50267,-13.35428 -9.81024,-10.12101 -12.39138,-15.2439 -12.39138,-24.593494 0,-10.808539 4.91977,-19.275502 14.45833,-24.882858 4.26563,-2.507609 5.95375,-2.858264 13.76022,-2.858264 7.80648,0 9.4946,0.350655 13.76023,2.858264 9.27869,5.454586 14.44349,14.099124 14.48133,24.237987 0.0384,10.295035 -1.61929,13.776445 -11.51818,24.189715 -4.93055,5.18675 -10.49744,11.66807 -12.37087,14.40293 -1.87344,2.73485 -3.83206,4.97246 -4.35251,4.97246 -0.52044,0 -2.46646,-2.23761 -4.3245,-4.97246 z"
     style="fill:#251313" />
</svg>
