<?xml version="1.0" encoding="UTF-8" standalone="no"?>
<!-- Created with Inkscape (http://www.inkscape.org/) -->

<svg
   xmlns:dc="http://purl.org/dc/elements/1.1/"
   xmlns:cc="http://creativecommons.org/ns#"
   xmlns:rdf="http://www.w3.org/1999/02/22-rdf-syntax-ns#"
   xmlns:svg="http://www.w3.org/2000/svg"
   xmlns="http://www.w3.org/2000/svg"
   xmlns:sodipodi="http://sodipodi.sourceforge.net/DTD/sodipodi-0.dtd"
   xmlns:inkscape="http://www.inkscape.org/namespaces/inkscape"
   id="svg2"
   version="1.1"
   inkscape:version="0.48.5 r10040"
   width="512"
   height="512"
   sodipodi:docname="update-manager.svg">
  <metadata
     id="metadata8">
    <rdf:RDF>
      <cc:Work
         rdf:about="">
        <dc:format>image/svg+xml</dc:format>
        <dc:type
           rdf:resource="http://purl.org/dc/dcmitype/StillImage" />
        <dc:title />
      </cc:Work>
    </rdf:RDF>
  </metadata>
  <defs
     id="defs6" />
  <sodipodi:namedview
     pagecolor="#ffffff"
     bordercolor="#666666"
     borderopacity="1"
     objecttolerance="10"
     gridtolerance="10"
     guidetolerance="10"
     inkscape:pageopacity="0"
     inkscape:pageshadow="2"
     inkscape:window-width="640"
     inkscape:window-height="480"
     id="namedview4"
     showgrid="false"
     inkscape:zoom="0.4609375"
     inkscape:cx="256"
     inkscape:cy="256"
     inkscape:window-x="15"
     inkscape:window-y="39"
     inkscape:window-maximized="0"
     inkscape:current-layer="svg2" />
  <rect
     style="fill:#ffffff;fill-rule:evenodd;stroke:#ffffff;stroke-width:0;stroke-linecap:butt;stroke-linejoin:miter;stroke-miterlimit:4;stroke-opacity:1;stroke-dasharray:none"
     id="rect2988"
     width="397.01697"
     height="397.01697"
     x="60.40678"
     y="51.898296"
     rx="17.766806" />
  <g
     id="g2982"
     transform="translate(1.8305058,-6.6779659)">
    <path
       style="fill:#5fa9dc"
       d="m 71.527246,488.80315 c -19.198944,-5.17101 -35.774998,-21.90484 -40.796911,-41.18527 -2.304125,-8.84613 -2.304125,-359.889664 0,-368.735797 5.082059,-19.511343 21.725151,-36.154435 41.236494,-41.236494 8.845662,-2.304002 357.839291,-2.304002 366.684951,0 19.51134,5.082059 36.15443,21.725151 41.23649,41.236494 2.30413,8.846133 2.30413,359.889667 0,368.735797 -5.08206,19.51134 -21.72515,36.15443 -41.23649,41.23649 -8.55981,2.22955 -358.837923,2.18068 -367.124534,-0.0513 z M 281.67548,397.47917 c 51.01596,-9.67148 92.83511,-45.72531 109.30709,-94.23767 4.11142,-12.10869 6.42978,-23.50112 7.09492,-34.8644 0.29711,-5.07585 0.99923,-9.80562 1.56028,-10.51059 0.73916,-0.92878 5.50401,-1.28178 17.30131,-1.28178 8.95468,0 16.28123,-0.34917 16.28123,-0.77594 0,-0.42676 -12.92139,-13.69113 -28.71418,-29.47638 l -28.71418,-28.70045 -29.47639,29.47639 -29.47638,29.47638 16.91726,0.0157 c 9.3045,0.008 17.56549,0.42609 18.35777,0.92769 1.12478,0.71209 1.29977,2.56284 0.7984,8.44403 -3.38494,39.70637 -31.94466,74.0741 -70.60762,84.96665 -14.79984,4.16956 -35.92586,4.36826 -51.31647,0.48264 -9.69453,-2.44755 -28.01817,-11.81927 -35.89552,-18.35895 -3.79184,-3.14792 -7.24706,-5.72352 -7.67826,-5.72352 -1.20561,0 -31.05882,30.07906 -31.05882,31.29379 0,1.52828 13.58351,12.72531 22.04661,18.17325 18.84467,12.13088 40.29612,19.82565 62.30996,22.35101 9.97062,1.14379 30.51879,0.30214 40.96299,-1.67784 z m -114.0399,-105.51733 29.21108,-29.22457 -16.91274,-0.0157 c -9.30201,-0.008 -17.56098,-0.42609 -18.35325,-0.92769 -1.12479,-0.7121 -1.29978,-2.56284 -0.79841,-8.44404 2.92294,-34.28696 25.19187,-65.66401 56.76265,-79.97888 23.10103,-10.47451 53.27091,-11.11459 76.21778,-1.61704 9.63369,3.98732 17.70188,8.67636 24.62973,14.31419 2.95804,2.40724 6.00742,4.83455 6.77639,5.39403 1.06285,0.7733 5.08782,-2.66627 16.78414,-14.3431 8.4623,-8.44821 15.38601,-15.84162 15.38601,-16.4298 0,-1.52828 -13.58351,-12.72531 -22.04661,-18.17326 -56.36942,-36.28665 -128.71229,-29.12087 -177.23677,17.55586 -6.03641,5.80656 -16.41586,18.60219 -21.3859,26.36421 -11.5622,18.05742 -19.84539,43.46251 -21.03275,64.50884 -0.37945,6.72577 -0.96079,9.57646 -2.14343,10.51059 -1.13809,0.89894 -6.31148,1.28178 -17.320853,1.28178 -8.633942,0 -15.698077,0.34304 -15.698077,0.76232 0,0.84393 56.58352,57.68683 57.4236,57.68683 0.28948,0 13.67132,-13.15106 29.73741,-29.22458 z"
       id="path2986"
       inkscape:connector-curvature="0" />
    <path
       style="fill:#3b96d5"
       d="m 69.19491,485.99679 c -18.007974,-6.162 -31.036129,-19.65052 -36.304736,-37.5876 -1.470208,-5.00536 -1.635939,-23.76312 -1.635939,-185.15921 0,-161.39609 0.165731,-180.153853 1.635939,-185.15921 5.39756,-18.3761 19.909242,-32.887782 38.285343,-38.285342 5.00482,-1.470052 23.676428,-1.63594 184.133783,-1.63594 197.31899,0 182.54715,-0.490749 195.85577,6.506702 7.87231,4.139132 17.55347,13.820296 21.6926,21.692606 6.99863,13.310852 6.5067,-1.573921 6.5067,196.881184 0,161.39609 -0.16573,180.15385 -1.63594,185.15921 -5.39756,18.37611 -19.90924,32.88778 -38.28534,38.28534 -5.00662,1.47058 -23.66362,1.63327 -184.57626,1.60947 L 75.860163,488.2775 69.19491,485.99676 z m 211.46652,-86.42086 c 4.91993,-0.81028 13.45658,-2.91042 18.97033,-4.66698 56.45028,-17.98386 95.63516,-67.59424 100.59057,-127.35367 l 0.69713,-8.40699 17.68856,-0.28057 c 15.93647,-0.25279 17.68856,-0.45528 17.68856,-2.04434 0,-2.16116 -58.33464,-60.73865 -60.48685,-60.73865 -2.1776,0 -60.51314,58.56361 -60.51314,60.74972 0,1.64927 1.51297,1.80112 17.94491,1.80112 l 17.94491,0 0,4.42608 c 0,10.2161 -3.97754,24.96573 -10.00574,37.10358 -22.61432,45.53413 -78.87157,65.15448 -125.01517,43.60043 -8.97396,-4.1918 -15.47061,-8.31408 -22.96032,-14.56887 -2.57422,-2.14977 -5.33746,-3.90868 -6.14052,-3.90868 -2.06919,0 -32.75959,30.8889 -32.75959,32.97147 0,2.30608 10.6545,11.82152 20.90869,18.67336 31.63625,21.13932 67.63764,28.86997 105.44767,22.64299 z M 168.91084,293.76297 c 16.25405,-16.2468 29.48745,-30.28262 29.48745,-31.27542 0,-1.64927 -1.51297,-1.80113 -17.94491,-1.80113 l -17.94492,0 0,-4.42608 c 0,-10.41065 3.99419,-25.0232 10.28202,-37.61629 22.53104,-45.12456 78.78152,-64.55478 124.7389,-43.08772 8.97395,4.1918 15.47061,8.31409 22.96032,14.56887 2.57421,2.14977 5.33745,3.90868 6.14051,3.90868 2.0692,0 32.75959,-30.88889 32.75959,-32.97147 0,-2.32441 -10.96489,-12.12729 -21.02118,-18.79346 -28.03413,-18.5834 -60.00253,-26.91319 -92.54449,-24.11366 -71.35062,6.13816 -126.38849,61.69992 -132.35158,133.61142 l -0.69714,8.407 -17.688553,0.28057 c -15.936466,0.25278 -17.688558,0.45527 -17.688558,2.04433 0,2.16116 58.334641,60.73865 60.486851,60.73865 0.84603,0 14.8076,-13.26343 31.02569,-29.47429 z"
       id="path2984"
       inkscape:connector-curvature="0" />
  </g>
</svg>
